<?xml version="1.0" encoding="utf-8"?>
<!-- Generator: Adobe Illustrator 26.0.2, SVG Export Plug-In . SVG Version: 6.00 Build 0)  -->
<svg version="1.1" id="Layer_1" xmlns="http://www.w3.org/2000/svg" xmlns:xlink="http://www.w3.org/1999/xlink" x="0px" y="0px"
	 viewBox="0 0 91.4 68.9" style="enable-background:new 0 0 91.4 68.9;" xml:space="preserve">
<style type="text/css">
	.st0{opacity:0.1;fill:#FFFFFF;}
</style>
<path class="st0" d="M73.7,14.2c-0.1-0.2-0.2-0.3-0.3-0.4c-0.3-0.3-0.8-0.5-0.7-1.1c0.1-0.6,0.4-1.2,0.7-1.7
	c0.2-0.3,0.7-0.3,0.9,0.1c0.3,0.5,0.6,0.4,1,0c0.1-0.1,0.1-0.1,0.2-0.2C77,9.5,79,9.8,80.8,9.8c0.2,0,0.4,0.1,0.4,0.3
	c0,0.8,0.6,1.2,1.1,1.7c0.7,0.8,0.7,1.2,0,2.1c-0.6,0.8-0.6,1.3,0.2,1.6c1,0.3,1.2,1,1.1,1.9c0,0.2,0,0.4,0,0.7
	c1.3-0.3,1.7,0.7,2.2,1.4c0.5,0.6,0.4,1.4,0.3,2.1c-0.1,0.4-0.3,0.6-0.7,0.8c-0.6,0.2-1.3,0.5-1.9,0.8c-0.4,0.1-0.5,0.4-0.5,0.7
	c0,0.4,0,0.9-0.1,1.3c-0.1,0.8,0.1,1.5,0.7,2.1c0.5,0.5,0.9,0.9,1.7,0.7c0.6-0.2,0.7,0.1,0.7,0.6c0,0.4,0.1,0.8,0,1.2
	c-0.1,0.9,0.2,1.3,1,1.7c0.7,0.3,1.5,0.7,1.6,1.7c0,0.1,0.2,0.3,0.3,0.4c1,0.3,0.5,0.8,0.2,1.3s-0.6,0.9-0.2,1.6
	c0.3,0.6-0.1,1.4-0.8,1.6c-1,0.3-1.7,1-2.6,1.5c-0.2,0.1-0.3,0.3-0.4,0.6c-0.3,0.7-0.4,0.8-1,0.4c-0.6-0.4-1.1-0.3-1.7,0
	c-1,0.4-1.9,0.8-3,0.7c-0.6-0.1-1.1,0.2-1.2,1c0,0.5-0.3,0.7-0.8,0.7c-0.5,0.1-0.5-0.3-0.6-0.6c-0.1-0.5-0.4-1-0.9-1
	c-0.7,0-1.5-0.1-2,0.6c-0.5,0.6-0.5,1.4-0.5,2.1c0,0.4,0.3,0.6,0.7,0.6c0.8,0,1.3,0.3,1.7,1.1c0.2,0.4,0.6,0.8,0.5,1.4
	c0,0.4-0.2,0.6-0.6,0.6c-0.5,0-1-0.1-1.4,0.5c-0.3,0.4-0.7,0.1-1,0.1c-0.6-0.1-1.3-0.2-1.8,0.4c-0.2,0.3-0.5,0.3-0.9,0.1
	c-0.4-0.1-1.3,0.5-1.5,0.9c-0.1,0.2,0,0.3,0.1,0.4c0.2,0.6-0.1,0.8-0.6,0.8c-0.4,0.1-0.7,0-1.1,0c-0.8,0-1.1,0.4-0.9,1.1
	c0.1,0.3,0.4,0.4,0.5,0.7c-0.7,0.5-1.4,0.7-2.1,0.8c-1.2,0.1-1.2,0.1-1.5,1.3c-0.1,0.3-0.2,0.5-0.2,0.8c-0.1,0.5-0.1,1,0.4,1.3
	c0.2,0.1,0.4,0.3,0.1,0.6c-0.2,0.2-0.4,0.6-0.8,0.4c-0.4-0.2-0.9-0.4-1.4-0.4c-0.3,0-0.7-0.2-0.9,0.1s-0.3,0.8,0.1,1.1
	c0.3,0.2,0.1,0.4,0,0.6c-0.7,0.8-0.3,1.9,0.7,2.2c0.4,0.1,0.9,0.2,1.3,0.3c0.5,0.1,1,0.3,1.2,0.9c0,0,0,0.1,0.1,0.1
	c0.9,1.2,0.9,1.2,0.6,2.7c-0.5,0.1-0.6-0.5-1-0.5c-0.4,0.2-0.3,0.7-0.5,1c-0.4,0.8-1.1,1.1-1.9,0.6c-0.5-0.3-1.1-0.6-1.2-1.3
	c-0.1-0.5-0.4-0.6-0.9-0.6c-0.8,0-1.7-0.1-2.5-0.2c-1-0.1-1-0.1-0.9-1.1c0.1-0.7,0-0.7-0.7-0.5c-0.2,0.1-0.5,0.1-0.7,0.1
	c-0.4-0.1-0.9,0.1-1.1-0.3c-0.2-0.4,0.3-0.6,0.4-0.9c0.2-0.3,0.4-0.5,0.6-0.8c-0.6-0.7-1.2-1.6-2.4-1.3c-0.5,0.1-1.2,1.3-1.2,1.9
	c0,1.1,0.1,1.2,1.6,1.8c-1.1,0-1.7,0.6-2.3,1.3c-0.3-0.5,0-0.9,0-1.3c0.1-0.8-0.3-1.3-1.1-1.2s-1.7-0.1-2.3,0.8
	c-0.2,0.3-0.4,0.1-0.6-0.1c-0.7-0.4-1.4-0.8-2.1-1.2c-0.3,0.3-0.3,0.7-0.4,1C43.4,63,43.2,63,43,63s-0.4-0.1-0.4-0.3
	c-0.1-0.5-0.2-1-1-0.9c-0.7,0.1-0.9,0.5-0.9,1.2c0,0.2-0.1,0.3-0.1,0.5c-1.3-0.1-2-1.7-3.5-1.3c0-0.2-0.1-0.4,0-0.5
	c0.1-1-0.1-1.8-1.2-2.2c-0.5-0.2-0.7-0.6-0.5-1.1c0.2-0.8,0-1.4-0.7-1.9c-0.8-0.6-0.9-1.5-0.9-2.3c-0.1-1.8-1.4-2.8-2.3-4.1
	c-0.2-0.4-0.6-0.2-0.9-0.1c-0.5,0.1-1,0.3-1.1-0.5c0-0.4-0.4-0.5-0.7-0.5c-0.4,0-0.6,0.1-0.6,0.5c0,0.3-0.1,0.6-0.4,0.7
	c-0.5,0.1-0.9,0.3-1.4,0.4c-0.2,0-0.3-0.2-0.4-0.4c-0.3-0.8-0.6-1.7-1-2.5c-0.4-0.9-0.4-0.9-1.3-0.6c-1,0.3-2,0.6-2.2,1.9
	c-0.6-0.1-0.9-0.6-1.6-0.7c-0.8,2-1.2,4.2-2.3,6.1c-0.5-0.1-0.5-0.4-0.6-0.8c-0.1-0.5-0.1-1-0.2-1.6c0-0.2,0-0.5-0.3-0.5
	c-0.8-0.1-0.7-0.7-0.8-1.3c-0.2-1.1-0.2-1.2-1.3-1c-0.4,0-0.6,0-0.6-0.5c0-0.4-0.1-0.7-0.3-1c-0.1-0.1-0.1-0.2-0.3-0.4
	c-0.8,0.7-1.6,1.4-2.4,2c-0.3,0.2-0.3,0.6-0.3,0.9c0,0.5,0.2,1.1-0.5,1.5c-0.1,0-0.2,0.3-0.1,0.4c0.2,1-0.7,1.5-1.1,2.3
	c-0.1,0.2-0.2,0.3-0.4,0.3c-0.7,0-1.5,0.2-2.2-0.1C5.4,54.1,4.6,54,4.1,55c-0.1,0.2-0.3,0.4-0.5,0.3c-0.3-0.1-0.2-0.4-0.1-0.6
	c0.3-0.5,0.1-0.8-0.4-1c-0.4-0.1-0.4-0.4-0.2-0.7C3,52.8,3,52.6,3.1,52.5c0.2-0.5,0.5-1,0.5-1.5s-0.7-0.7-1-1C2,49.6,2.2,49,2,48.4
	c-0.2-0.7,0-1.2,0.7-1.5c0.5-0.2,0.6-0.6,0.3-1.1c-0.2-0.3-0.3-0.6-0.4-0.9c0.2-0.5,1-0.1,1.1-0.7c0.2-0.9,1-1.7,0.7-2.6
	c-0.3-1,0.4-1.6,0.9-2.2c0.1-0.1,0.3-0.3,0.5-0.3c0.9-0.3,1.2-1,1.1-1.9c0-0.1,0-0.2,0.1-0.4c0.6,0.3,0.9,1,1.7,0.8
	c0.9-0.1,1.4-0.7,1.1-1.6c-0.2-0.5-0.1-0.8,0-1.3c0.3-0.9,0.2-1.8-0.4-2.7c-0.4-0.6-0.3-1,0-1.6c0.8-1.4,0.6-2.1-0.5-3.2
	c-0.2-0.2-0.4-0.4-0.6-0.6c-0.7-0.8-0.7-0.8,0.2-1.3c0.3-0.2,0.7-0.4,1.1-0.6c0.2-0.1,0.4-0.2,0.5-0.4c0.2-0.8,0.6-1.5,1.3-1.9
	c0.2-0.1,0.1-0.4,0-0.6c-0.1-0.7-0.2-1.4-0.7-2c-0.4-0.4-0.3-0.9-0.3-1.4c0.1-1.3-0.5-2.4-1-3.5v-0.1c-0.7-0.6-1.5-1.2-2-2
	C7.2,12.5,7,13.1,6.7,13c-0.1-0.6-0.2-1.2-0.7-1.7c-0.4-0.4-0.4-0.8,0-1.3c0.7-1,1.8-1.3,3-1c1,0.3,1.5-0.3,2.1-0.9
	c0.4-0.5,0.2-1-0.2-1.5c-0.3-0.4-0.2-0.9,0.2-1.3c0.2-0.2,0.3-0.3,0.5-0.5c0.9-0.9,0.9-0.9,1.9-0.2c0.5-0.3,0.8-0.9,1.5-1
	c0.4-0.1,0.6-0.5,0.8-0.9c0.3-0.5,0.7-0.6,1.2-0.5c0.2,0,0.5,0.1,0.5,0.4c0,0.6,0.4,0.8,0.9,1s1,0.5,1.3,1c0.4,0.6,0.8,0.7,1.4,0.3
	c0.4-0.3,0.6-0.3,1.1-0.1c0.6,0.2,1.4,0.4,2-0.3c0.1,0.1,0.1,0.2,0.2,0.2c0.1,0.3,0,0.8,0.5,0.9c0.4,0.1,0.9-0.1,1.2-0.4
	c0.4-0.5,0.8-1.1,1.2-1.7c0.6,0.2,0.7,0.7,0.9,1c0.5,1,1.3,2,1.2,3.2c0,0.6,0.5,1,1.2,1c0.5,0,0.9,0,1.2,0.5c0.2,0.4,0.7,0.2,1,0.2
	c0.6,0,0.8,0.3,0.8,0.8c0,0.7,0,1.5,0,2.2c0,0.4-0.3,0.6-0.6,0.9c-0.4,0.3-0.7,0.5-1,0.8s-0.7,0.7,0,1c0.1,0,0.2,0.3,0.1,0.4
	c-0.1,0.7,0.3,0.9,0.9,1c0.2,0,0.4,0.1,0.5,0.3c0.4,0.8,1,0.6,1.5,0.3c1.2-0.6,2.3-0.3,3.4,0.3c0.4,0.2,0.6,0.3,0.9,0
	c0.2-0.3,0.5-0.5,0.8-0.4c0.6,0.1,0.8-0.3,0.9-0.8c0.1-0.5,0.2-1,0.3-1.6c0.1-0.7,0.4-0.8,1-0.5c0.5,0.2,0.9,0.8,1.5,0.2
	c0.1-0.1,0.1-0.1,0.2,0c0.5,0.6,0.8,0.1,1.1-0.2c0.5-0.4,0.7-0.4,0.9,0.3c0.2,0.6,0.3,1.2,0.4,1.8c0.1,0.5,0.3,0.6,0.7,0.6
	s0.7,0,0.9-0.4c0.2-0.5,0.4-1.1,0.6-1.6c0.4-1.6,0.8-3.2,1.2-4.8c0.1-0.3,0.1-0.6,0.2-0.8c0.4-1,0.6-1.1,1.5-0.5
	c0.6,0.5,1.1,0.2,1.7-0.1C54,8.2,54,8.2,54.4,8.9c0.2,0.4,0.5,0.6,0.9,0.7c0.7,0.2,1.2,0.7,1.6,1.2c0.5,0.7,0.8,1.5,1.7,1.8
	c0.4,0.2,0.2,0.6,0.3,1c0,0.4,0.2,0.5,0.5,0.5c0.8-0.1,1.6-0.2,2.1-1c0.1-0.2,0.3-0.3,0.4-0.5c0.5-0.5,1.1-0.4,1.1,0.3
	c0,1,0.6,0.8,1.2,0.9c1.4,0.2,2.5-0.2,3.3-1.4c0.5-0.8,1.2-1.4,1.9-2.1c0.4-0.4,0.8-0.4,1.2,0c0.4,0.4,0.1,0.6-0.1,0.9
	c-0.2,0.3-0.4,0.5-0.6,0.8c-0.1,0.2-0.2,0.3-0.1,0.6c0.2,0.8,0.2,0.8-0.5,0.9c-0.2,0-0.5,0.1-0.7,0.1c-0.9,0.3-1.3,1.4-1,2.3
	c0.1,0.2,0.2,0.3,0.4,0.3c0.8,0,1.7,0,2.5-0.1c0.1,0,0.3-0.1,0.4-0.2C71.9,15.4,72.8,14.9,73.7,14.2z"/>
</svg>
