<?xml version="1.0" encoding="utf-8"?>
<!-- Generator: Adobe Illustrator 26.0.2, SVG Export Plug-In . SVG Version: 6.00 Build 0)  -->
<svg version="1.1" id="Layer_1" xmlns="http://www.w3.org/2000/svg" xmlns:xlink="http://www.w3.org/1999/xlink" x="0px" y="0px"
	 viewBox="0 0 74.3 60.9" style="enable-background:new 0 0 74.3 60.9;" xml:space="preserve">
<style type="text/css">
	.st0{opacity:0.1;fill:#FFFFFF;}
</style>
<path class="st0" d="M52.7,12.5c0.7,0.2,1.1-0.2,1.3-0.7c0.2-0.6,0.7-0.6,1.1-0.7c0.5-0.1,0.7,0.1,0.8,0.6c0.2,1.2,1.2,1.7,2.3,1.1
	c1-0.6,1.9-0.5,2.7,0.4c0.9,1,1.3,1,2.1-0.1c0.3-0.5,0.7-0.5,1-0.1c0.9,1,2.1,1.6,3.3,2.2c0.2,0.1,0.4,0.3,0.5,0.5
	c0.2,0.4,0.4,0.4,0.8,0.4c1-0.1,1.5,0.6,2.2,1.2c0.4,0.4,0.3,1,0.2,1.5c-0.1,0.3-0.3,0.6-0.3,0.9c0,0.7,0.2,1,0.9,1
	c0.4,0,0.6,0.2,0.6,0.5c0.1,0.5,0.2,1,0.4,1.6c-1.5,0.4-2,1.7-3,2.7c-0.2,0.2-0.3,0.4-0.1,0.7c0.2,0.3,0.4,0.2,0.7,0.1
	c0.4-0.1,0.8-0.2,1.2-0.2c0.2,0,0.4,0,0.5,0.2s0,0.3-0.1,0.4c-0.4,0.6-0.9,1-1.7,1.3c0.6,0.9,0.1,1.6-0.5,2.2
	c-0.9,0.8-1.4,2-2.6,2.4c-0.3,0.1-0.3,0.5-0.3,0.7c0.1,1.2-0.7,1.7-1.5,2.2c-0.7,0.4-1.4,0.8-2.2,1.1c-0.5,0.2-0.7,0.6-0.7,1.1
	c0.1,0.8,0,1.6,0.1,2.4c0.1,0.6-0.1,1.1-0.6,1.5c-1.4,1.2-2.7,2.5-4.1,3.8C57,46,57,46.1,57.5,46.9c0.1,0.2,0,0.4-0.1,0.5
	c-0.7,0.6-0.9,1.4-0.9,2.3c0,0.5-0.2,0.8-0.5,1.2c-0.8,0.9-1.6,1.7-2.4,2.6C53,54,51.4,54.2,51,54c-0.2-0.1-0.2-0.2-0.2-0.4
	c0-0.3-0.1-0.5-0.4-0.7c-1-0.7-1.2-0.6-2,0.3c-0.2,0.2-0.4,0.5-0.7,0.7c-0.2,0.3-0.6,0.3-0.9,0.3c-0.4-0.1-0.2-0.4-0.3-0.7
	c0-0.2-0.1-0.4-0.3-0.5c-1-0.3-1.4-1.1-1.9-1.8c-0.4-0.6-0.9-1.2-1.6-1.3c-0.4-0.1-0.6-0.4-0.8-0.8c-0.4-0.7-1-0.9-1.7-0.4
	c-0.6,0.4-1,0.5-1.6,0c-0.7-0.6-1.3-0.3-1.8,0.4c-0.3,0.5-0.5,1.1-0.6,1.7c-0.4,1.6-0.8,3.1-1.2,4.7c-0.1,0.5-0.2,1-0.6,1.4
	c-0.4-0.1-0.3-0.4-0.4-0.7c-0.1-0.4-0.2-0.9-0.3-1.3c-0.3-1.1-0.7-1.2-1.7-0.6c-0.3,0.2-0.5,0.3-0.7,0c-0.1-0.1-0.3-0.2-0.4-0.1
	c-0.5,0.6-1,0.2-1.5,0c-0.8-0.4-1.4,0-1.6,0.9c-0.1,0.3-0.1,0.6-0.1,0.8c-0.2,0.9-0.7,1.5-1.6,1.6c-0.2,0-0.3-0.1-0.4-0.1
	C24.9,57,24,57,23.2,56.9c-0.1,0-0.3,0-0.4,0c-0.4,0.2-0.8,0.4-1.2,0.5c-0.5,0.1-0.5-0.7-1-0.7c-0.4,0-0.7-0.2-0.7-0.6
	c0-0.5-0.3-1,0.3-1.3c0.9-0.5,1.2-1.2,1.1-2.2c0-0.5,0.1-1.1,0.1-1.6c0-0.9-0.5-1.4-1.4-1.5c-0.4,0-0.7,0-1-0.4s-0.7-0.3-1.1-0.3
	s-0.8-0.1-0.8-0.6c0.1-1.5-0.9-2.5-1.5-3.8c-0.1-0.3-0.3-0.6-0.6-0.8c-0.7-0.6-0.8-0.6-1.3,0.1c-0.4,0.6-0.7,1.2-1.3,1.6
	c-0.4-0.2-0.3-0.5-0.5-0.7c-0.3-0.5-0.8-0.6-1.2-0.4C9.9,45,9.8,45,9.2,44.1c-0.2,0.1-0.4,0.2-0.6,0.3c-1,0.5-1,0.6-1.9-0.2
	c-0.3-0.3-0.7-0.4-1.1-0.6c-0.5-0.2-0.6-0.5-0.5-1c0.1-0.4,0.3-0.8,0.4-1.2c0.1-0.3,0.3-0.6,0.1-0.8c-0.5-0.9-0.2-1.8-0.1-2.7
	c0.1-0.7,0.2-1.4-0.5-2c-0.3-0.2-0.2-0.7-0.2-1c0.1-0.8,0-1.6-0.4-2.3c0-0.1-0.1-0.1-0.1-0.2c-0.2-1.2-0.6-2.2-1.7-2.9
	c-0.4-0.2-0.4-0.8-0.1-1.3c0.8-1.1,0.7-2.2-0.2-3.3c-0.6-0.6-0.4-0.9,0.4-1.2c1-0.3,0.9-0.3,0.7-1.3s-0.5-1.9-1.2-2.7
	c-0.2-0.2-0.3-0.5-0.3-0.9c0.7-0.2,1.5,0.1,2.1-0.5c0.7-0.7,1-1.4,0.5-2.2c-0.3-0.4-0.2-0.6,0.1-0.9c0.3-0.2,0.6-0.5,0.8-0.7
	c1-0.9,1.1-2,0.2-3c-0.2-0.2-0.5-0.4-0.5-0.7C4.9,9.7,4.1,9,3.2,8.2c0.5-0.6,0.9-1.1,1.4-1.7C4.8,6.2,4.9,6,4.7,5.7
	C4.3,5.3,4.4,4.6,4.9,4.3c0.6-0.4,1.2-0.8,2-0.7c0.6,0.1,1.2,0.1,1.8,0.1c0.2,0,0.5,0.1,0.7,0c1.5-0.7,2.4,0.1,3.4,1
	c0.7,0.7,1.2,1.4,0.9,2.4c-0.1,0.3-0.2,0.8,0.1,1.1c0.4,0.4,1,0.7,1.4,1.1c0.1,0,0.2,0,0.2,0c0.3-0.1,0.6-0.5,1-0.1
	c0.4,0.4,1,0.8,0.9,1.4c0,1.3,1,2.2,1.5,3.3c0.1,0.3,0.4,0.3,0.7,0.3c0.8,0,1.7,0.1,2.5,0.1c0.5,0,0.9-0.2,1.4-0.5
	c0.4-0.2,0.6-0.2,0.9,0.2c0.5,0.6,0.8,0.6,1.3-0.1c0.2-0.3,0.4-0.4,0.8-0.4c0.5,0,1,0,1.5,0c0.9-0.1,1.8-0.2,2-1.3
	c0-0.2,0.2-0.3,0.4-0.4c1.2-0.1,2.3,0,3.3,0.9c1.1,1.1,2,2.3,2.9,3.5c0.3,0.4,0.1,0.6-0.2,0.8c-0.5,0.4-0.8,0.8,0,1.3
	c0.4,0.2,0.2,0.7,0.2,1c0,0.4,0.1,0.7,0.6,0.6s0.9,0,1.2,0.5c0.3,0.3,0.9,0.3,1.3,0.1c0.6-0.3,0.8,0,1.1,0.4
	c0.1,0.1,0.2,0.3,0.3,0.4c0.8,1.1,0.8,1,2,0.8c0.8-0.2,1-0.7,1.2-1.3c0.3-0.8,0.7-1.2,1.4-0.8c1.1,0.6,1.9-0.2,2.9-0.2
	c0.3,0,0.3-0.4,0.4-0.7c0.1-0.6,0-1.2,0.7-1.7c-0.2-0.1-0.3-0.2-0.4-0.2c-0.3,0-0.4-0.2-0.4-0.5s0.2-0.4,0.4-0.4
	c0.7-0.1,1-1.1,1.8-0.9c0.2-0.7,0.4-1.3,1.1-1.6C51.7,13.1,52.7,13,52.7,12.5C52.6,12.4,52.7,12.4,52.7,12.5z"/>
</svg>
