<?xml version="1.0" encoding="utf-8"?>
<!-- Generator: Adobe Illustrator 26.0.2, SVG Export Plug-In . SVG Version: 6.00 Build 0)  -->
<svg version="1.1" id="Layer_1" xmlns="http://www.w3.org/2000/svg" xmlns:xlink="http://www.w3.org/1999/xlink" x="0px" y="0px"
	 viewBox="0 0 63 37" style="enable-background:new 0 0 63 37;" xml:space="preserve">
<style type="text/css">
	.st0{opacity:0.1;fill:#FFFFFF;}
</style>
<path class="st0" d="M37.4,35c-1.6-0.4-3.1,0-4.7,0.1c-0.6,0.1-1.2,0.1-1.5-0.6c-0.1-0.3-0.4-0.5-0.7-0.6c-0.1,0-0.3-0.2-0.1-0.4
	c0.1-0.2,0.3-0.2,0.4-0.1c0.5,0.2,1,0.4,1.6,0.6c0.3,0.1,0.6,0.1,0.8-0.2c0.2-0.4,0.2-0.6,0-1c-0.4-0.5-0.9-0.8-1.5-0.9
	c-0.1,0-0.2,0-0.4,0c-0.1,1.2-1.5,0.2-1.8,1.1c-0.1,0.2-0.3,0.1-0.5,0c-0.4-0.3-0.6-0.7-0.9-1.2c-0.2,0.4-0.3,0.7-0.5,0.9
	c-0.3,0.3-0.7-0.2-1.1,0.1c0,0.7-0.2,1.4,0.3,2.1c0.1,0.1,0.1,0.2,0,0.3c-0.1,0.2-0.3,0.1-0.4,0C26,35,25.9,34.6,26,34.3
	c0.6-1.7-0.4-2.7-1.5-3.8c-0.7-0.6-1.5-1-2.3-1.2c-0.7-0.2-1.1-0.5-1.4-1.1s-0.7-0.8-1.3-0.8c-0.8,0-1.7,0-2.2-0.9
	c-0.1-0.2-0.2-0.1-0.4,0c-1.2,0.6-2.1,0.4-2.7-0.7c-0.1-0.2-0.3-0.4-0.4-0.6c-0.2-0.4-0.4-0.6-0.8-0.3c-0.2,0.1-0.5,0.3-0.7,0.1
	c-0.8-0.7-1.9-0.5-2.8-0.9c-0.2,0.1-0.1,0.2-0.1,0.4c0.1,0.4,0.6,0.6,0.4,1.1C9.6,26.1,9,25.9,8.6,26c-0.7,0-1.4,0.1-2.1-0.3
	c0.6-2-0.1-3.9-1.8-5.2c-0.1,0-0.1-0.1-0.2-0.1c-1,0.3-1.7-0.9-2.7-0.7c-0.1,0-0.2,0-0.3-0.1c-0.1-0.1-0.2-0.2-0.2-0.3
	c-0.1-0.2,0.1-0.3,0.2-0.4s0.2-0.1,0.3-0.1c1.9,0,3.7-0.5,5.6-0.4c0.8,0,1.2-0.2,1.3-0.9c0.3-0.9-0.1-1.8-0.7-2
	c-0.6-0.1-1-0.5-1.5-0.7c-0.7-0.4-0.7-0.4-1.2,0.3c-0.1,0.2-0.3,0.4-0.6,0.7c0.1-1.2,0.1-2.1-1.2-2.3c0.7-1.1,0.7-1.1,1.7-0.6
	c1.3,0.6,2.6,0.9,4,0.9c0.2,0,0.4,0,0.6,0c0.2-0.1,0.3-0.3,0.3-0.5S10,13,9.8,13c-0.4-0.1-0.9,0-1.3-0.2c-0.2-0.4,0.2-0.7,0-1.1
	c-0.5,0.2-1,0.4-1.5,0.6c-0.3-0.2-0.2-0.4-0.1-0.5c0.1-0.2,0.2-0.3,0-0.5s-0.4-0.1-0.6,0c-1.1,0.3-2.2,0.6-3.4,0.3
	c-0.4-0.1-0.5,0.2-0.7,0.3c-0.7,0.2-1-0.1-0.9-0.8c0-0.2,0.1-0.3,0.1-0.5c-0.3-1,0-1.8,1-2.1c-0.2-0.6-0.7-0.7-0.8-1
	s0.6-1.2,1.1-1.2c0.3,0,0.6,0,0.8,0c0.7,0,1.3,0,1.4-0.9C5,4.9,5.3,4.9,5.7,5c0.7,0.3,1.4,0.4,2-0.4c0.2-0.3,0.7-0.2,1-0.3
	c0.5,0,0.5,0.4,0.6,0.7s1.2,0.3,1.4-0.1c0.7-1.2,1.7-0.9,2.6-0.6c0.5,0.1,0.8-0.1,1.1-0.3c0.3,0.3,0.2,0.6,0.2,0.8
	c0,0.4,0.1,0.7,0.6,0.6c0.4-0.1,0.6,0.1,0.7,0.5c0.1,0.1,0.4,0,0.7,0c0.3-0.1,0.3-0.3,0.3-0.6c0-0.2,0-0.4,0-0.6
	c0-0.4,0.2-0.5,0.5-0.5c0.8-0.1,1.7-0.2,2.4,0.4c0.5,0.5,0.9,0.3,1.2-0.3c0-0.1,0.1-0.1,0.1-0.2c0.4-0.6,1.1-1.1,0.1-1.8
	c0.4-0.3,0.7-0.5,1-0.7c0.3-0.3,0.6-0.3,1,0c0.5,0.4,0.9,0.8,1.5,0.1c0.1-0.2,0.5-0.1,0.8-0.2C26,1.4,26.6,1.4,27,1
	c0.4,0.2,0.3,0.7,0.7,0.9c0.3,0,0.2-0.4,0.3-0.6c0.2-0.4,0.6-0.2,1-0.3c0.3,0,0.4,0.2,0.4,0.5c0,0.2,0,0.4,0.3,0.5
	c0.6,0,0.7,0.3,0.6,0.8c-0.1,0.4,0.1,0.7,0.6,0.7c0.4,0,0.6,0.3,0.5,0.7c-0.1,0.7,0.3,1.1,0.9,1.4c0.6,0.3,0.9,0.8,0.7,1.5
	c-0.2,0.5,0.1,0.8,0.5,0.9c0.1,0,0.2,0.1,0.3,0.1c0.7,0.2,1,0.6,0.9,1.3c0,0.3,0,0.7,0.4,0.7s0.6-0.1,0.6-0.6c0-0.4,0.3-0.6,0.6-0.7
	c0.4-0.2,0.9-0.4,1.3-0.7c0.6-0.3,1.2-0.6,1.6-1.3c0.4-0.8,1.3,0.3,1.9-0.3c0.1-0.1,0.3-0.1,0.5-0.2c0,0.4,0.1,0.8,0.1,1.2
	c0.3,0.2,0.4-0.1,0.5-0.2c0.5-0.1,0.7,0,0.8,0.7c0.1,0.3-0.1,0.7,0.5,0.7c0.4,0,0.9,0.1,1-0.4s0.4-0.6,0.8-0.5
	C46,8,46.4,7.6,46.8,7.1c0.7-0.9,0.7-0.8,2-0.6c-0.1,0.5-0.5,0.7-0.6,1.1c0.9,1,2.1,1.2,3.4,1.1c0.6,0,1.4-0.3,1.9,0.1
	c0.4,0.3,0.5,1.1,0.6,1.7c0.2,1.2,1.1,1.7,2,2.3c0.6,0.4,1,0.3,1.4-0.3c0.5-0.6,1.3-0.5,1.7-1.2c0.1-0.2,0.4,0.1,0.6,0.2
	c0.4,0.3,1.2-0.2,1.4,0.4c0.1,0.4,0,1,0,1.4c0,0.3,0.1,0.6,0.2,0.9c0.3,0.5,0.4,1.2-0.1,1.7c-0.7,0.7-0.7,1.4-0.5,2.2
	c0.1,0.7,0.2,1.4,0.2,2.2c0,0.6-0.1,1.2,0.4,1.7c0.3,0.3,0.1,0.8,0.2,1.2c0,0.4-0.1,0.5-0.5,0.5c-1.1-0.1-1.5,0.5-1.8,1.4
	s-0.7,1.8-1,2.7c-0.1,0.4,0,0.9-0.6,0.9c-0.5,0-1-0.1-1.3-0.6c-0.4-0.7-1.1-0.8-1.8-0.8c-0.4,0-0.7,0-0.7,0.4c0,0.5-0.3,0.6-0.7,0.6
	c-1,0-1.7,0.6-2.1,1.4c-0.2,0.4-0.5,0.5-0.9,0.5c-1.1,0.1-2.2,0.2-3.3,0.2c-1.3,0-2.3,0.8-3.3,1.3c-0.4,0.2-0.4,0.6-0.3,1
	c0.2,1.2-0.3,1.8-1.4,2.1c-0.5,0.1-1,0.4-1.5,0.7c-0.9,0.5-1.7,0.6-2.4-0.3c0-0.1-0.1,0-0.2-0.1C37.7,35.3,37.6,35.1,37.4,35z"/>
</svg>
