<?xml version="1.0" encoding="utf-8"?>
<!-- Generator: Adobe Illustrator 26.0.2, SVG Export Plug-In . SVG Version: 6.00 Build 0)  -->
<svg version="1.1" id="Layer_1" xmlns="http://www.w3.org/2000/svg" xmlns:xlink="http://www.w3.org/1999/xlink" x="0px" y="0px"
	 viewBox="0 0 23.4 45.9" style="enable-background:new 0 0 23.4 45.9;" xml:space="preserve">
<style type="text/css">
	.st0{opacity:0.1;fill:#FFFFFF;}
</style>
<path class="st0" d="M17.1,38.1c0.4,0,0.6-0.3,0.8-0.4c0.3-0.1,0.6-0.2,0.7,0.1c0.1,0.2,0,0.5-0.2,0.6c-0.1,0.1-0.2,0.1-0.3,0.2
	c-0.7,0.3-1.2,0.8-0.9,1.7c0.2,0.5-0.4,0.7-0.6,1S16,41.8,16.7,42c0.6,0.2,0.3,0.7,0.1,1c-0.2,0.4-0.7,0.4-0.9,0.2
	c-0.4-0.2-0.6-0.6-1.1-0.5c-0.1,0-0.3-0.1-0.2-0.2c0.4-0.8-0.4-0.8-0.7-0.9c-1-0.5-2.1-0.7-3.1-1c-0.9-0.3-1.7-0.7-2.4-1.4
	c-0.4-0.4-0.2-1.7,0.4-1.8c1-0.1,1.1-0.9,1.8-1.6C9,35.5,7.5,35.6,6.2,35c0.1-0.7,0.4-1.3,1.1-1.7c0.4-0.2,0.5-0.5,0.1-0.8
	c-0.3-0.3,0-0.7,0.1-1s0.2-0.5-0.1-0.8c-0.3-0.3-0.5-0.2-0.8,0c-0.4,0.3-0.9,0.2-1.4,0.2c-0.8,0-1.2-0.6-0.8-1.3
	C4.7,29,4.9,28.3,5.6,28c0.4-0.2,0.7-0.5,0.6-0.9S5.9,26.2,5.3,26c-0.5-0.1-1-0.3-1.5-0.5c-0.5-0.1-0.7-0.4-0.7-0.9
	c0-0.6-0.2-1.2-0.5-1.6c0.4-0.4,0.9-0.3,1.3-0.5c0.3-0.1,0.8,0,0.9-0.5s-0.2-0.8-0.6-1c-0.5-0.3-0.9-0.5-1.3-0.8s-0.6-0.6,0-0.9
	c0.5-0.3,0.7-1,1.2-1.3c0.2-0.1,0.2-0.3,0.1-0.5C4,16.9,4,16.2,4.7,15.7c0.1-0.1,0.2-0.4,0.2-0.6c0.1-0.3,0.2-0.4,0.5-0.3
	C6,15,6.2,14.6,6.6,14.1c0.6-0.9,1.3-1.7,2.5-1.8c0.2,0,0.4-0.1,0.6-0.1c0.7,0,1-0.4,1.1-1c0-0.2,0.1-0.3,0.1-0.5
	c0.3-0.7,0.9-1,1.7-0.9c0.3,0.1,0.5,0.2,0.8,0.1c0.4-0.1,0.7,0.1,1,0.4c0.4,0.5,0.8,0.4,1.2-0.1c0.7-0.9,0.7-1.9-0.1-2.8
	c-0.2-0.2-0.4-0.5-0.3-0.6c0.6-0.5,0-1.4,0.7-1.9c0.3-0.2,0.2-0.4,0-0.6c-0.1-0.2-0.3-0.4-0.4-0.6c-0.2-0.4-0.1-0.8,0.3-1
	s0.7-0.4,1.1,0c0.3,0.3,0.4,0.6,0.5,0.9c0.1,0.7,0.3,1.3,0.5,2c0.3,0.9,0.5,1.8,0.1,2.8s-0.1,2.2,0.1,3.2c0,0.4,0.4,0.5,0.6,0.7
	c0.8,0.6,1.2,1.3,1.1,2.3c0,0.9,0.1,1.9,0.1,2.8c0,0.8,0.2,1.6,0.6,2.3c0.3,0.4,0.3,0.8,0.3,1.3c0,0.3,0,0.7,0,1
	c0.3,2-0.2,3.7-1.6,5.2c-0.3,0.3-0.4,0.8-0.4,1.2c0.1,1.4,0,2.7,0.2,4.1c0.2,1.2-0.1,2.3-0.4,3.5c-0.1,0.4-0.3,0.6-0.7,0.7
	C17.1,37,17.1,37,17.1,38.1z"/>
</svg>
