<svg id="Layer_1" data-name="Layer 1" xmlns="http://www.w3.org/2000/svg" viewBox="0 0 75.48 60.85"><defs><style>.cls-1{fill:#fff;opacity:0.1;}</style></defs><path class="cls-1" d="M0,39.9v-5A39.45,39.45,0,0,0,2.19,14C.33,2,.26,2,12,0h3C25.49.92,36,2.61,46.56,1a7.11,7.11,0,0,1,3.44.3c6,2.05,12.23,3,18.42,4.26,2.47.49,4.85,1.34,6.14,3.8,2,3.72.78,7.17-3.5,9.45s-8.93,4.5-12,8.67c-2.09,2.85-3.48,5.63-3,9.59.68,5.18-3.42,8.65-6.6,12-4.37,4.6-9.81,7.07-16.49,6.35-4-.43-6.4,2.13-8.07,5.48H21a13.14,13.14,0,0,1-2.45-3.68c-1.83-3.66-4.36-5.2-8.76-4.37C3.67,54,2.82,53,2.66,47.18A13.54,13.54,0,0,0,0,39.9Z"/></svg>