<svg id="Layer_1" data-name="Layer 1" xmlns="http://www.w3.org/2000/svg" viewBox="0 0 610.25 390.73"><defs><style>.cls-1{opacity:0.1;}.cls-2{fill:#fff;}</style></defs><g class="cls-1"><path class="cls-2" d="M348.54.69A2.57,2.57,0,0,0,347.09,3c-.16,1.5-.52,1.76-5.6,4.09-6.12,2.8-7.41,3.89-9.59,8-.88,1.56-2.12,3.68-2.85,4.67-1.76,2.38-1.45,4.82,1.09,8.55,3.68,5.28,4.3,5.7,9.79,5.85,4.51.21,4.88.11,6.38-1.14a5.36,5.36,0,0,1,3.63-1.34,6.15,6.15,0,0,0,3.21-.89c1.19-.77,1.29-.77,2,.16s.57,1-.88,1.3c-2.49.51-3.11,1.34-3.11,4.09,0,2.59-.36,4.15-1,4.15a6.16,6.16,0,0,1-1.5-2c-1.5-2.69-2.85-2.9-8-1.5S334,39.14,334,40.69a5.55,5.55,0,0,0,3.11,4.15c1.4.47.93,1.09-2.08,2.59l-2.54,1.3-.88-1.3c-1.19-1.81-2.43-2-5.65-.83a16.4,16.4,0,0,1-4,1.09c-.67,0-2.64-1.45-5-3.63-2.13-2-4.2-3.73-4.67-3.83a57.79,57.79,0,0,0-9.38-1.87A6,6,0,0,0,300,39.55a59.74,59.74,0,0,1-6.64,4.2c-2.85,1.66-6,3.58-6.84,4.25-1.4,1-3.05,1.5-8.75,2.33a91.59,91.59,0,0,0-9.44,1.82c-2.22.78-2.43.78-3.05-.11a4,4,0,0,1-.68-2c-.05-1.76-1.86-5.33-3.21-6.21a3.15,3.15,0,0,0-3-.32,36.86,36.86,0,0,1-4.76.78c-3.53.37-4.67,1.19-6.53,4.61-1.4,2.54-1.46,2.6-5.76,3.79-5.28,1.4-10.15,2-10.57,1.29-.21-.26.47-1.55,1.5-2.85,2.44-3.16,2.34-5.33-.31-6.79s-5.08-.83-8.29,2a14.27,14.27,0,0,1-5.6,3.16c-5.33,1.45-7.35,2.43-8.65,3.94-1.45,1.71-1.66,3.36-.62,4.76.52.73.57,1.45.15,3-.51,1.92-.62,2-2.12,1.66-2.23-.52-6.84-.31-8,.31-1.4.72-1.3,2.38.26,4.25a6.65,6.65,0,0,1,1.29,1.91,23.45,23.45,0,0,1-2.85,3.17l-2.85,2.79-3.21-1.14c-4.25-1.5-5.34-1.45-10,.42a35.4,35.4,0,0,1-4.51,1.55,8.68,8.68,0,0,1-2.54-1.81,7.21,7.21,0,0,0-3.11-1.81,6.12,6.12,0,0,1-2.08-.52c-.88-.47-1-1.14-1-5.44,0-2.7-.21-5-.52-5.19a4.2,4.2,0,0,0-2.33.32,4.18,4.18,0,0,1-3.42.1c-1.4-.57-2-.47-4.15.62-3.16,1.61-5.33,1.61-8,0a8.51,8.51,0,0,0-3.52-1.3,7.08,7.08,0,0,0-5.24,2.7c-1,1.4-1.08,5.65-.15,6.58.52.52.47.73-.16,1.09-4,2.28-5.75,4.4-6.47,7.88a2,2,0,0,1-1.82,1.71c-2.49.57-4.45,3.26-5.13,7.25-.52,3-.52,3.63.26,4.77.93,1.45.57,1.45,9.28.16,2-.32,5.28-.73,7.3-.89,3.48-.25,3.74-.2,4.56.94a4.89,4.89,0,0,1,.83,1.55c0,.21-1.45.88-3.21,1.51-4.51,1.6-5.6,2.38-5.6,3.83,0,1-.36,1.35-1.45,1.61a12.12,12.12,0,0,0-3.16,1.34c-1.86,1.14-1.92,1.4-.78,7.31.31,1.71.21,2-1.24,2.7a8.62,8.62,0,0,0-2.75,2.74c-1.65,2.75-7.56,8.86-10.1,10.47-3.42,2.23-12.65,11.2-12.65,12.28,0,1.66-1.34,3.11-3.52,3.73-4.41,1.35-6.27,4.67-3.63,6.53l1.14.83-1.5,1.61A37.73,37.73,0,0,1,96.57,155c-1.66,1.14-3,2.28-3,2.59,0,.78-3.11,2.43-5.33,2.85A17.16,17.16,0,0,0,83,162.79c-2.74,1.82-3.47,2-6.32,2-3.32,0-4.14.37-5.6,2.59-.46.73-1.71,2.44-2.69,3.84-2.18,3-2.23,3.78-.52,8,1.09,2.64,1.25,3.58.83,4.87-.26.94-.62,2.59-.83,3.73a16.29,16.29,0,0,1-1.66,4.36c-1.5,2.54-1.45,5.59.16,7.36.83.93.83,1.08-.57,3.11a36.09,36.09,0,0,1-3.53,4.45c-2.64,2.85-13.11,10.42-17,12.23-2.23,1.09-3.68,2.39-6.33,5.5a48.86,48.86,0,0,1-5.13,5.39l-6,4.25c-3.26,2.28-4.3,3.31-4.3,4.19a30.92,30.92,0,0,0,1.56,5.5l1.55,4.25L25,250.32c-1.61,1.66-4.72,6.74-8,13.06-3.11,6-1.61,10.57,4.77,14.87,5,3.37,5.7,5.55,2.9,9.18C20.08,293.34,20,293.59,20,299.3c0,5.9,0,6-4,8-1.76.88-3.11,1.08-7,1.08-5.55,0-6.79.57-8.35,3.89-1,2.18-.78,3.37,1.3,6.06,1.29,1.56,1.45,2.08,1,3.22-.67,1.76,0,3.42,2.13,5.18,1.5,1.24,2,1.4,4.09,1.19,1.3-.15,5.55-.67,9.43-1.09s7.62-1,8.24-1.4a73.07,73.07,0,0,0,6.9-5.33c3.16-2.59,7.51-5.91,9.63-7.31,4.36-3,6.22-5.29,6.22-7.83,0-2.38-1.65-3.42-5-3.21l-2.49.16-.26-3.73c-.21-2.8-.52-3.94-1.19-4.41-.88-.67-.88-.83.15-3.26,2.13-5.14,2.85-6.07,6.79-9,3.22-2.44,4.67-3.22,7.78-3.94a92.48,92.48,0,0,0,14.82-5.39A34,34,0,0,0,74.6,269l2.48-2.12h8.66c7.15,0,9.12.15,11.71,1,4.82,1.56,10.78,3.11,12,3.11,1.56,0,4.87,1.45,5.13,2.23.11.36.26,2.18.42,4,.2,3.27.15,3.42-1.19,4.2a5.36,5.36,0,0,0-2.08,2.69c-.57,1.71-.46,2.08.94,4.57a25.73,25.73,0,0,1,1.86,4.14,4.55,4.55,0,0,0,1.66,2.33c3.37,2.39,4.25,3.37,4.56,5,.31,1.5,0,2.23-1.81,4.82-3,4.2-5.13,9.22-5.5,12.59a9.33,9.33,0,0,1-1.55,4.46c-2.39,3.16-1,6.37,3.26,7.57,1.09.25,3.94,1.24,6.33,2.07,4.24,1.55,4.24,1.55,4.24,3.42a8.57,8.57,0,0,1-1.6,4.3c-2.64,4.2-1.4,7.31,3.26,8,1.66.31,2.13.11,3.58-1.29,1.92-2,1.71-2.18,5.39,4.82a38.36,38.36,0,0,0,4.3,6.63c1.66,1.71,1.87,2.23,1.71,4.25a9.61,9.61,0,0,0,2.8,7.05,53.07,53.07,0,0,1,3.63,5.44c3.88,6.48,6,9,7.36,9.07a10,10,0,0,0,2.79-1.87c2.28-1.91,3.06-1.76,3.06.63,0,3.88,5.39,2.69,8.76-2a17.67,17.67,0,0,1,4.61-4.05A49.51,49.51,0,0,0,180,373l1.71-1.45,2.69,1.4c3.16,1.55,7.15,2.75,9.59,2.75,1.86,0,6.89-2.34,9.33-4.36a7.51,7.51,0,0,1,3.16-1.66c2.07-.41,2.85-1.4,2.49-3.21-.32-1.45-.21-1.5,2.28-2.07a20.61,20.61,0,0,1,3.78-.62,2.19,2.19,0,0,0,2.38-2,3.64,3.64,0,0,1,.52-1.6c.36-.62.78-.42,2.33,1.24s2,1.92,3.22,1.66c.83-.16,2.69-.47,4.14-.62,2.44-.31,3-.21,4.72,1,1.14.78,2.38,1.25,2.8,1.09.62-.26.83.31,1.08,2.7.47,4.45,2.44,5.34,6.17,2.64l1.5-1,2.75,1.35a13.53,13.53,0,0,0,4,1.35,22.78,22.78,0,0,1,4.1.78c5.39,1.45,6.73.77,6.73-3.42,0-2.91.31-3.68,2.91-7.05a9.49,9.49,0,0,0,1.76-3.06c0-.47.57-.72,1.76-.72,2.28,0,5.08-1,8.6-3.17,4.15-2.54,5-3.21,5.6-4.45.78-1.45.78-6.74,0-9-.57-1.55-.52-1.76.88-2.9a6,6,0,0,1,2.44-1.24c2.9-.06,9.17-4.82,9.17-7,0-.88.47-1.3,2-1.76,3-.88,4.2-2.65,4.2-6.22a8.09,8.09,0,0,0-1.14-4.72c-.57-1-2.13-3.78-3.37-6.22a60.66,60.66,0,0,0-3.58-6.22,5,5,0,0,1-1.14-2.79c.11-.63,1.56-1.87,3.68-3.16,2.91-1.82,4.05-2.23,6.84-2.44,4-.36,5.76-1.35,6.17-3.52.16-.83.42-2.18.57-3a2.94,2.94,0,0,1,1.76-2.07,39,39,0,0,0,5.7-4.3c3.84-3.37,4.2-3.84,4.2-5.55a8.19,8.19,0,0,0-.78-3.21,9.7,9.7,0,0,1-.77-1.66,17.49,17.49,0,0,1,3.63-2.28,14.7,14.7,0,0,0,3.62-2.23,9.26,9.26,0,0,1,1.3-1.81c1-1.3,1.35-1.45,2-.83.83.62,2.44.57,6.11-.31l1.46-.31-.06,6.37c-.05,3.52.11,8.86.31,11.87.32,5.39.32,5.49-1.24,8.39-1.92,3.53-2.07,6.53-.62,9.43a5.62,5.62,0,0,1,.72,3.63c-.2,1.51-.05,1.92,1.51,3.06,2.59,2,6.53,3.63,8.08,3.32,2.18-.42,2.7.05,2.7,2.48,0,4,2.74,8.56,5.18,8.56,1,0,3,2.07,4.61,4.81,1.5,2.49,3,3.48,5.24,3.48,2.95,0,3.83.46,4.92,2.74,1.86,3.79,3.68,3.89,7.72.31a10.42,10.42,0,0,1,2.59-2c.05.1.78,1.29,1.56,2.64,1.45,2.59,3.47,3.68,4.61,2.54a4.12,4.12,0,0,1,2.33-.57c1.5,0,1.82.26,2.54,2,1.45,3.42,1.19,5.39-1.14,8-6.43,7.25-7.31,8.7-5.86,10.16a4.49,4.49,0,0,0,2.54.62c2.65,0,8.92,2.38,10.58,4a4.37,4.37,0,0,1,1.29,3.57c0,1.92.31,2.65,2.28,4.82,3.68,4.15,4.35,8.29,2.07,12.49L400.26,385l1.09,1.56c1.29,1.76,3.57,2.17,4.71.83.57-.68.83-.63,2.23.57,1,.88,1.92,1.24,2.69,1a1.92,1.92,0,0,1,2,.73c1.4,1.6,3.22,1.29,5.55-1,2-2,2.43-3,4.09-9.64a14.06,14.06,0,0,1,2.13-4.09c2.23-2.8,2-3.94-1.35-7.41a56.91,56.91,0,0,1-4.61-5.55,24,24,0,0,0-3.06-3.83,6.07,6.07,0,0,1-1.35-1.66,8,8,0,0,1,1.51-2.18c2.17-2.43,2.38-3.83,1.14-7a16.66,16.66,0,0,1-1.09-3.27c0-.78,3.31-2,5.28-2,4.46,0,7-5.18,4.56-9.22a7.16,7.16,0,0,1-1-2.34c0-.31,1.45-1.55,3.16-2.69a14.36,14.36,0,0,0,3.89-3.47,9.32,9.32,0,0,1,4.82-4.31c3.16-.77,4.71-1.91,5.23-3.83a18,18,0,0,0,.52-3.58,8.81,8.81,0,0,1,2.85-6,4.34,4.34,0,0,0,1.29-3.42c0-2.74,1-4.92,3.48-7.77,3.31-3.78,4.14-7.67,2.28-11.3a16.91,16.91,0,0,1-1.25-4.77,45.56,45.56,0,0,0-1.86-7.67l-1.56-4.87,1.51-1.29a3.5,3.5,0,0,0,1.55-3.27c0-2.38.78-4.61,1.66-4.87.36-.1,1.81-.47,3.21-.78L458,256l2.23,2.33c2.28,2.39,5.13,3.68,7.46,3.32.93-.1,1.66-.83,2.54-2.64.67-1.35,1.3-2.39,1.4-2.28a9.8,9.8,0,0,1-.31,2.95,34.49,34.49,0,0,0,.41,13.53c1.3,5.85,2.28,7.67,4.82,8.65a7.35,7.35,0,0,1,3.68,3.42c2,3.27,5,6.48,6.48,7.05a33.32,33.32,0,0,0,5.39,1c3.21.46,4.66.93,5.8,1.86a5.94,5.94,0,0,0,2,1.24,8.27,8.27,0,0,0,2.48-2c1.71-1.71,2.13-1.87,2.91-1.3a3.69,3.69,0,0,0,5.7-3.63,19.12,19.12,0,0,1,1-6.42,26.25,26.25,0,0,1,3.06,1.4c4.3,2.17,6.17,1.91,8.6-1.14a3.28,3.28,0,0,1,2.49-1.46,10.83,10.83,0,0,0,6.58-3.42l.83-1.29,1.55,1.35a5.51,5.51,0,0,0,3.84,1.29c3.37,0,4.72.73,5.44,2.85.52,1.56.47,2.07-.21,3.11-1.08,1.61-1,3.58.06,4.46a12.49,12.49,0,0,1,2,3.42c1,2.12,1.55,2.74,3,3.26a7.88,7.88,0,0,1,3.11,2.13c1.19,1.4,1.3,1.86,1,4.56-.42,3.83.26,5.23,2.54,5.23,1.76,0,2.43-.2,8.86-2.43,4-1.4,4.2-1.56,5.39-4,1.76-3.53,1.66-6.74-.36-12.08a80.84,80.84,0,0,0-3.22-7.46L565,279.76l1.61-3.32c2.07-4.2,2.54-6.84,1.5-8.81-.93-1.81-5.23-5.54-7.77-6.74-1.66-.77-1.92-.77-3.47,0a9.16,9.16,0,0,1-2.13.83c-.26,0-.31-4-.15-9l.26-8.92,1.71-1.65a11.59,11.59,0,0,0,2.64-4.77c.67-2.23,1.24-3.22,2-3.47.62-.21,3.73-1.61,6.89-3.17,6-2.9,9.33-3.73,9.13-2.22a13.53,13.53,0,0,1-.73,2.38c-.93,2.38.31,4,4.51,6a10.5,10.5,0,0,1,4.2,3,8.71,8.71,0,0,0,6.06,3.62,5.61,5.61,0,0,0,2.75-.93,9.66,9.66,0,0,1,3.78-.93,13.12,13.12,0,0,0,3.42-.42c.93-.36,1.3-.05,2.28,1.66,1.87,3.37,4.25,3.89,5.91,1.4.67-1,.83-3,.83-10,0-8.24,0-8.86-1.14-10.21-1.3-1.71-5.44-4.4-6.64-4.4a3.17,3.17,0,0,1-1.81-1c-.78-.88-.88-1.56-.57-4.77.73-8.08.83-8.5,2.9-10.93,2.7-3.32,3-4.62,1.4-7.67l-1.29-2.44,2.07-2c3.11-3.06,3.26-3.47,1.92-6.68-1-2.49-1.09-3.06-.57-5.65a47.84,47.84,0,0,1,2.22-7c2.23-5.65,1.92-6.68-2.9-9.95-3.31-2.28-4.61-3.52-7.88-7.41-1.55-1.87-3.42-1.71-7.35.57-4.51,2.7-6,4.66-6.27,8.66l-.26,3.16H572.67l-.1,5.44c-.05,3-.1,5.75-.1,6.06a.84.84,0,0,1-.83.67c-.83,0-6.43,2-10,3.68-2.49,1.14-3.22.94-3.22-.77,0-1.4-1.29-2.65-3.21-3.11a2.49,2.49,0,0,1-1.71-1.25c-.62-2-2.75-3.21-9.48-5.23-3.79-1.14-7.93-2.23-9.18-2.44-4.71-.67-7.3-5.33-6.68-12.07.31-3.21.26-3.58-1.09-5.13a7.12,7.12,0,0,0-3.52-2.18c-5.08-1.24-7.62-2.17-9.75-3.63-2.38-1.6-4.92-2-6.68-1-.78.41-1.61.26-3.58-.78-3-1.5-6.11-1.66-10.36-.52-2.65.68-2.9.68-4.25-.26-1.56-1.14-3.06-1.34-3.94-.46-.57.57-9.33.83-9.85.26-.15-.11.68-.73,1.82-1.3,3-1.5,4.76-3.83,4.76-6.27,0-1.61-.51-2.64-2.9-5.7-4-5.24-4.4-6.53-3.52-11.92a64.19,64.19,0,0,1,2.33-9,19.06,19.06,0,0,1,4.66-7.82c1.66-1.71,3.17-3.84,3.37-4.72a24.09,24.09,0,0,1,1.56-3.94,11.79,11.79,0,0,0,1.24-4c0-2.07,2.28-3.47,6.32-3.94,3.84-.41,4.82-1.45,4.36-4.46-.42-2.59-2.08-5.44-3.37-5.85-1.09-.31-1.61-1.71-1.61-4.51,0-1.71-.26-2.07-2.69-3.73a13.68,13.68,0,0,1-3.63-3.32c-1.3-2.18-4.41-4.77-5.7-4.77a12.38,12.38,0,0,0-3.84,1.61c-3.21,1.81-3.78,1.76-8-1.09a24.11,24.11,0,0,1-8.86-10.57c-1.09-2.33-2.38-4.46-2.9-4.77-1.76-1.09-14.41-8.34-17.52-10-5.59-3.11-9.12-4.72-12.38-5.49a70.36,70.36,0,0,1-13.48-4.67c-4.61-2.23-6.11-2.23-9.53.05-4.1,2.8-9.69,5.44-11.4,5.44A3.27,3.27,0,0,1,392,28.1a11.28,11.28,0,0,1-2-5.6c0-1.45-3.48-4.56-6.69-6a8,8,0,0,0-7.57.42c-1.86,1.19-2.07,2.54-.77,4.66a4.89,4.89,0,0,1,.93,2.07,4.38,4.38,0,0,1-1.81-.1c-1.25-.26-1.51-.52-1.35-1.4a5.17,5.17,0,0,0-1-2.9c-1.14-1.71-1.19-1.87-.46-3.89a4.24,4.24,0,0,0-.06-4.09c-.77-1.76-1-1.92-2.9-1.92s-2.07-.1-4-3.37c-1.66-2.85-2.18-3.37-3.37-3.37a4.41,4.41,0,0,0-3.57,3.58c0,.47-.62-.21-1.35-1.5C353.41.12,351.59-.87,348.54.69Z"/></g></svg>