<?xml version="1.0" encoding="utf-8"?>
<!-- Generator: Adobe Illustrator 26.0.2, SVG Export Plug-In . SVG Version: 6.00 Build 0)  -->
<svg version="1.1" id="Layer_1" xmlns="http://www.w3.org/2000/svg" xmlns:xlink="http://www.w3.org/1999/xlink" x="0px" y="0px"
	 viewBox="0 0 691.3 766.3" style="enable-background:new 0 0 691.3 766.3;" xml:space="preserve">
<style type="text/css">
	.st0{opacity:0.1;fill:#FFFFFF;enable-background:new    ;}
</style>
<path class="st0" d="M605.6,766.3c0.3-0.8-0.8-2.5,0.8-2.5c1.2,0,1.2,1.4,1.2,2.5H605.6z"/>
<path class="st0" d="M548.4,661.7c1.4-0.4,0.4-2.3,1.7-1.9c1.1,0.3,0.4,1.4,0,2.1c-1.3,2.6-1.3,5.7,0,8.4c1.7,3.6,1.2,7.1,0.5,10.6
	c-0.5,2.4-1,4.8-1.4,7.2c-0.5,2.8-1.2,5.8-4.3,7.3c-1.2,0.5-2.1,1.6-2.3,2.9c-0.6,5.6-5,10.1-4.4,16.1c0.2,2.4-1.3,4-4.3,3.6
	c-2.7-0.5-5.5,0.9-6.7,3.4c-0.8,1.6-3.5,0.5-3.4,3.3c-1.5-2.1-3.7-2.3-5.5-3.3c-0.7-0.4-1.5-0.4-2.2-0.1c-6,3.2-10.6-1-15.5-3
	c-1.5-0.6-2.5-2.8-2.3-4.9c0.3-3-0.9-5-4.1-5.2c-1.6-0.1-1.8-1-1-2c1.2-1.7,0.3-2.8-0.9-3.7c-0.7,1-1.4,2.1-2.1,3.1
	c-0.3,0.7-1.1,0.9-1.8,0.6c-0.1,0-0.2-0.1-0.2-0.1c-0.7-0.6-0.4-1.4,0.2-2c1.8-1.7,2.2-3.8,2-6.2c-2.5,1.6-5.7,2.4-6,6.1
	c-0.1,0.6-0.6,1-1.2,0.9c-0.1,0-0.2,0-0.3-0.1c-1-0.4-2.4-1.3-2-2.1c1-2.5-0.8-3.6-2-5.2c-1-1.2-1.9-2.6-2.6-4
	c-0.3-0.8-1-1.3-1.8-1.5c-2.7-0.8-5.6-1.2-8.2-2.2c-5.1-1.9-9.5,0.9-14.1,2.1c-3.5,0.9-7.4,0.5-10.6,2.7c-1.1,0.8-2.3,1.3-2.9,2.8
	c-1.2,3.3-4.3,3.6-6.9,2.8c-4.8-1.4-8.9,0.2-12.6,2.5c-6.6,4.2-8.2,3.2-14.5-1c-1.5-1-2.6-2.5,0.3-4.3c2-1.3,2.7-5.1,1.5-7.3
	c-3.4-6-3.1-13.3-6.7-19.2c-0.9-1.4-1.8-3.1-2.6-4.6c-0.4-0.8-1.2-1.4-0.7-2.2c0.4-0.6,1.4-0.4,2.1-0.2c0.5,0.2,1.1,1,1.6,0
	c0.2-0.6,0-1.3-0.5-1.8c-4.1-4-0.2-8.4-0.4-12.7c-0.1-1.5,2.8-0.7,4.2-2c5.1-4.8,12-5.7,18.4-7.3c5-1.3,7.9-2.1,9.1-10
	c0.3-2,2.6-2.5,3-4.6l2.5,3c-0.1-1.8-0.7-3.8,2-3.6c0.5,0,0.9,0,1-0.5c0.9-5.1,5-6.9,9.1-8.8c1.2-0.6,2.2-0.7,3.2,0.3
	c0.8,0.6,1.4,1.3,2,2.1c0.9,1.6,2.5,1,3.8,1.5c2.7,1.1,1.6-1.7,1.9-2.5c1.4-3.3,3.9-5.8,6.5-8.3c-1.3-1.4-3-0.2-4.2-1.2
	c0.8-2,2.5-2.3,4.4-2.2c0.8,0.1,2,0.3,0.9,1.5s-0.7,1.9,0.4,2.2s2.5,0.7,3.2-0.6s-0.4-1.6-1.3-1.9c-0.3-0.2-0.6-0.4-0.8-0.7
	c1.5-1.7,2.6-0.8,4.1,0.1c3.8,2.3,7.7,4.4,12,1.1c0.6-0.5,1-0.6,1.4,0.3c0.5,1.5,2.2,2.8,0.8,4.7c-0.7,0.8-1.5,1.6-2.1,2.3
	c0.1,1,0.8,0.9,1.2,0.8c1,0,2,0.4,1.9,1.3c-0.3,1.4-1.6,0.8-2.3,0.4c-1.3-0.7-1.9-0.4-2.4,0.9c-0.4,1.1-0.9,2,0.6,2.9
	c3.2,2,6.5,3.9,9.6,6.2c1.8,1.3,4.2,1.7,5.9,3.7c1.2,1.3,3.1-0.1,3.6-1.4c1.6-3.5,2.7-7.1,2.2-11.1c-0.3-2.9,0.1-5.8,1.2-8.4
	c0.7-2.1,1.7-4.2,1.3-6.5c2.1,0,2.9,1.4,3.2,3c0.8,3.3,2.6,6.2,2.8,9.7c0,0.7,0,2.4,2.4,1.6c2.7-0.8,3.7,2,4,4.2
	c0.8,4.7,3.7,8.7,4.1,13.5c0.1,1.2,1.5,1.8,2.6,2.2c2.5,0.7,4,2.9,6.5,3.8c1.1,0.4,1.3,3.5,2.3,5.2c0.7,1.1,0.8,2.7,2.8,2.4
	c0.6,0.1,1.2,0.5,1.5,1.1C541,654.8,546.3,657,548.4,661.7z"/>
<path class="st0" d="M166.7,172.4c-0.7-2.1-4.9-3.1-0.8-6.8c-2.9,1.1-4.6,1.5-5.1-1.4c-0.5-2.6-0.6-4.8,2.1-6.1
	c2-0.9,3.2-3.1,2.8-5.2c-0.4-4,0.5-7.1,4.3-9.3c1.7-1,1.2-2.8,0.4-4.3c-0.8-1.3-0.9-2.4,0.4-3.7c2.8-2.7,4.8-6.2,5.7-10.1
	c0.2-1.2,0.7-2.4,1.5-3.4c1.3-1.4,1.2-2.4-0.2-3.5s0-1.8,0.6-2.1c2.9-1.2,6.3-3.9,7.6-6.4c1-1.8,2.5-3.2,4.2-4.2
	c2.8-1.9,6.4-2.7,7.9-6.3c0.4-1,1.7-0.6,2.6-0.2c2.9,1.5,5.5,0.7,8-0.8c3.4-2.2,7.7-3.1,8.8-8c0.5-2.1,6.1-3.5,7.7-2.5
	c3.1,1.9,3.8,5.2,1.9,8.6c-2.2,3.7-5.7,6-9.3,8c-5.2,3-10.5,5.8-15.8,8.6c-2.5,1.3-5.2,3.3-5.7,5.4c-1,4.1-4.2,5.5-6.7,7.7
	c-0.3,0.3-0.5,0.7-0.6,1.1c-1.6,6.2-5.2,11.3-8.4,16.7c-2.1,3.7-4.1,7.9-4.5,12c-0.6,6.5,1.9,12.9,6.9,17.2c0.7,0.6,2.1,1.1,1.6,2.4
	s-1.7,1.4-3,1.3c-3.8-0.2-7.6-1-11.1-2.4c-2-0.8-2.4-1.9-1.3-3.7c0.4-0.6,1.5-1.1,0.2-1.7c-0.8-0.3-1.4,0-1.4,1.1
	C167.4,171.2,167.1,171.8,166.7,172.4z"/>
<path class="st0" d="M468.4,573.5c1.2-1.5,2.5-0.6,3.7-1.3c-2.8-0.9-3.9-3.9-6.9-4.2c-2.3-0.3-2.9-2.8-2.8-4.1
	c0.2-2.4,2.3-0.7,3.6-1c0.1,1.5-1.8,1.1-1.6,2.4c1.5,0,2.9,0.3,4.5-0.9s3.7-0.1,5.5,0.6s3.3,1.7,2.8,4.1c-0.3,1.6,0.9,2.8,1.6,4.1
	c1.7,2.8,3.1,2.8,4.9-0.1s4.9-3.2,7.3-5c0.2-0.2,0.8,0.1,1.2,0.2c6.3,3.1,13.2,4.8,19.9,6.8c3.5,1.1,6,4.4,9.9,4.7
	c0.2,0.1,0.3,0.3,0.4,0.5c-0.7,4.1,3,3.7,5.1,4.6c1,0.4,1.7,1.3,1.9,2.4c0.2,0.5-0.9,0.9-1.7,1.1s-2.2,1.2-0.9,1.9
	c3.7,2.1,5,6.6,8.9,8.2c0.7,0.3,2.3,2.5,2.5-0.6c0-0.6,1-0.6,1.4-0.4c0.9,0.4,1.6,1.2,1.8,2.1c0.3,1.5-0.8,2.1-1.6,3
	c-0.6,0.8-1.6,1-2.4,0.4c-0.1,0-0.1-0.1-0.1-0.1c-1.2-0.7-2.6-1-4-0.9c-4.1-0.2-6.8-2.8-8.9-6c-1.6-2.7-4.8-4.2-7.9-3.8
	c-1.3,0-2.5,0.7-3.2,1.8c-2.1,4.1-7.9,5.5-11.1,2.4c-2.4-2.6-6.2-3.5-9.5-2.1c-0.8,0.3-1.7,1.1-2.2,0c-0.3-0.9-0.1-2,0.6-2.7
	c0.8-1.1,3.3-0.6,2.7-3.2c-0.7-3-2.1-5.6-4.9-6.7c-4.3-1.7-8.6-3.1-12.9-4.9c-0.6-0.3-1-0.6-1.4,0.4c-1.2,3.1-2.9,0.3-2.9-0.2
	C471.6,574.9,470.4,573.9,468.4,573.5z"/>
<path class="st0" d="M329,26.8c2.1,0.2,4.2,0.9,6.1-0.1c1.4-0.6,3-0.1,3.6,1.3c0.3,0.5,0.3,1.1,0.2,1.7c-0.2,0.8-0.9,1.6,0.2,2.1
	c1.1,0.5,1.4-0.6,1.8-1.3c1.4-2.5,3.1-1.4,3.8,0.2c1.2,2.7,4.1,5.2,1.3,9c-1.2,1.6,0.1,4.8-2.1,6.8c-0.6,0.5,0.4,1.3,1,1.8
	c1.2,1.1,2.1,2.1,1.3,3.9s-2.1,3.1-4,3.2c-3,0.2-5.9-0.1-7.8-3.1c-0.7-1.2-2.2-1.4-3.7-1.5c-3.1-0.2-5.3-1.6-5.9-5
	c-0.5-2.8-1.9-4.7-5.7-4c2.8-4,5.2-8.2,7.1-12.7c0.1-0.2-0.1-0.6-0.1-1.2c-2.5,2.6-4.8,2.2-7.1-0.2c-0.9-1-2.4-1.4-3.4-2.2
	c-2.4-1.9-2.5-4.5-0.2-5.9c3.2-1.9,4.5-4.4,3.6-8.1c-0.6-2.8,1.1-4.4,3.1-5.8s5.2-1.4,5.5-4.9c0-0.2,2.4-1.7,3.4,0.3
	c0.5,0.9,1.2,1.8,1.6,2.7c1.2,2.8,2,5.8,5.1,7.3c1.1,0.6,1.5,2.3,0.3,2.9c-3.4,1.8-3.1,4.5-2,7.4c1,2.7-0.1,3.6-2.5,4.1
	C331.9,25.8,330.5,26.3,329,26.8z"/>
<path class="st0" d="M420,542.3l-6.9,6.7c2.4,2.7,1.3,7.3,5.1,9.1c0.4,0.2,0.8,0.3,0.6,1c-0.4,0.7-1.1,0.4-1.7,0.3
	c-2.8-0.4-3.9,0.7-3.5,3.5c0.2,1.4-0.4,2.8-1.6,3.7c-2.4,1.8-3.6,4.8-3,7.7c0.3,2.1-0.6,2.7-2.7,3c-2.3,0.3-4.4,1.1-5.9-1.4
	c-0.3-0.4-0.9-0.6-1.4-0.6c-4.1,1-7.9-1-11.9-1.3c-1.9-0.1-2.5-0.9-2.3-2.7c0.2-1.9-0.2-3.5-2.1-4.5c-1.4-0.7-2.2-2.3-1.8-3.8
	c0-0.1,0-0.2,0-0.3c0.6-2.2-1.9-4.5,0.1-6.5s4,0.3,6,0.1c1.1-0.1,1.9,0,1.8-1.5c-0.1-2,0.9-2.8,2.8-3.2c2.7-0.5,5.2-1.5,6.6-4.3
	c0.8-1.7,2.4-2.9,4.2-3.4c3.1-0.7,4.5-2.9,6-5.3c2.3-3.6,2.7-3.6,5.1-0.4C415.4,540.4,418.2,540.8,420,542.3z"/>
<path class="st0" d="M609.9,764c-2.8-1.2-5.7-2.3-8.4-3.6c-1.1-0.5-1-1.2-0.3-2.5c3.2-5.9,8.7-9.3,13.9-12.9c1.8-1.2,3.2-3,4-5
	c1-2.8,2.9-5.1,4-7.8c0.2-0.5,0.3-1.2,1.2-1.2s0.8,0.7,1,1.3c1.1,2.6,1.2,2.7,3.2,0.6c0.5-0.5,0.8-0.8,1.2-0.3
	c0.7,0.8,1.5,1.6,1.1,3c-0.5,2.2-1.5,4.4-2.9,6.2c-1.2,1.6-3.2,2.9-2.8,5.5c0.2,1.2-1.1,1.2-2.1,1.5c-2.9,0.7-4.2,2.5-4.5,5.7
	C618.3,758.6,613.3,764.5,609.9,764z"/>
<path class="st0" d="M357.3,49.6c3.4-2.4,4.8-1.3,5.6,2c0.5,2.1,3.2,2.8,4,5.3c0.9,2.2,0.1,4.8-1.8,6.2c-2.1,1.8-4.8,3.4-7.4,3.2
	c-3.6-0.3-7.2,1.1-9.8,3.7c-1.2,1.1-2.7,1.6-3.8,0.8s0.1-2.3,0.5-3.5c1-3,2.7-5.7,2.5-9.1c-0.2-1.4,0.6-2.7,1.9-3.3
	c1.2-0.5,1.5-1.7,1.3-3c-0.5-3.5,1.2-6.2,3.7-8.5c0.9-0.8,1.6-1.9,3-0.7c1,0.9,2.2,1.8,0.9,3.3C357.1,47.1,357.8,48.2,357.3,49.6z"
	/>
<path class="st0" d="M425,586.2c-1.2-0.8-0.6-3.3-3.2-2.1c-1.5,0.7-1.7-1.5-1.4-2.7c0.6-2.3,1.6-4.4-1.6-5.7
	c-1.1-0.7-1.4-2.2-0.6-3.3c0-0.1,0.1-0.1,0.2-0.2c1.9-2.2,2.4-5.1,3.1-7.8c1.7-6.4,3.4-7.7,9.4-6c2.4,0.7,4.7,0.2,7,0.5
	c1.1,0.1,1.7-0.5,2.1-1.6c0.2-0.8,0.9-1.2,1.7-1.1c0.1,0,0.3,0.1,0.4,0.2c1.1,0.8,0.1,1.6-0.5,2.4c-2,2.7-4.5,3.3-7.7,2.4
	c-2.9-0.8-5.8-0.2-8.8-0.3c-1.5,0-1.6,1-1.7,2.2c-0.3,2.1,1,3.3,2.4,4.2c1.2,0.8,1.5-0.7,2-1.3c0.4-0.5,0.8-1,1.1-1.5
	c1.2,2.9,3,0.6,4.5,0.5c0.8,0,1.6-0.5,2.3,0.3c-1.9,1,1.9,3.1-0.8,4.1c-0.6,0.2-0.8,0.7-1.2-0.3c-0.8-1.7-2.2-1.1-3.2-0.3
	c-0.9,0.8-1,2.1-0.3,3.1c0,0,0,0.1,0.1,0.1c1.9,2,1.5,5.2,4.4,6.7c1.5,0.8,0,2.9-0.2,4.5c0,0.4-0.4,0.8-0.9,0.7
	c-0.1,0-0.2,0-0.4-0.1c-1.5-0.9-4.3-0.1-4.6-2.7c-0.2-1.6-0.9-3.1-2.1-4.2c-0.7-0.5-0.9-1.4-0.4-2.1c0-0.1,0.1-0.1,0.2-0.2
	c0.6-0.8,0-1.2-0.5-1.6c-0.3-0.3-0.8-0.3-1.1,0c0,0,0,0,0,0c-0.5,0.5-1,1-0.7,1.7C425.7,578.3,424.5,582.2,425,586.2z"/>
<path class="st0" d="M625,702.2c0.8,1.6,2.3,2,3.7,2.5c2.5,0.9,2.9,3.1,3.7,5.2c0,0.1,0,0.2,0,0.3c0,1.5,0.4,3.6,1.8,3.4
	c2-0.2-0.5-2.1,0.6-3.4c0.8,1.7,1.5,3.3,2.2,5c1.2,2.7,3.6,3.6,6.2,2.1c1.1-0.6,2-0.9,3-0.2c1,0.8,1.2,2.2,0.4,3.3
	c-1.5,1.7-1.8,4.4-4.3,5.3c-1.1,0.5-1.8,1.6-1.9,2.8c-0.2,3.3-2.2,5.4-4.2,7.7c-1.2,1.5-2.3,0.5-3.4,0.1s-1.2-1.2-0.4-2.3
	c2.1-2.9,1.5-5-1.9-6.5c-1.9-0.8-3.3-2-0.2-3.8s3.1-7.2,0.3-11C628.2,709.4,626.3,705.9,625,702.2z"/>
<path class="st0" d="M502,388.7c-0.8-0.5-2.5,0.8-2.5-1.1c0-1.7-3.2-3.1-0.2-5c1.2-0.7,2.1-1.9,1.3-3.7c2.6,0.9,4.1,1.3,4.2-2.1
	c0.1-2.5,1.7-5,0.5-7.6c-0.2-0.4-0.2-1.2,0.4-1.4c0.9-0.3,1.8,0.1,2.2,1c1.2,2.1,2.8,3.9,4.8,5.3c1.7,1.2,3.8,2.7,5.9,0.3
	c0.2-0.2,0.3-0.3,0.5-0.4c2.1,2.6,3.3-1.4,5.5-0.8c-1.7,2-4,3.1-4.9,5.3c0.9,0.8,1.8,0.2,2.8-0.2c-0.2,1.5-1.5,2.6-3,2.5
	c-4.4-0.2-6.6,2.1-7.8,5.9c-2.9-1.7-5.7-3.1-9.1-2.6c-0.4,0.1-0.9-0.1-1.1,0.4c-0.2,0.4,0.1,0.9,0.5,1.1c2.8,1.2,0.8,2.2-0.1,3.3
	L502,388.7z"/>
<path class="st0" d="M432.1,490.4c-0.8,1.7-1.1,3-0.4,4.1c1.6,2.6,0.7,4.8-1.5,6.2c-2.8,1.8,0.3,3.9-0.5,5.9
	c-0.5,1.2,2.2,0.4,2.8,0.7c2.1,1.1,4.1,2.1,6.8,1.9c-2.6,1.8,0.4,4.3-1.3,6.3c-0.5,0.5-0.2,1.6-1.5,1.5s-1.9-0.5-1.9-1.7
	c0.1-0.5,0.1-1.1,0-1.6c-0.5-1.1-0.6-2.7-2.7-2c-0.4,0.1-3.6,1.5-1.9-1.7c0.1-0.2-0.3-0.8-0.4-0.8c-0.4,0.1-0.8,0.2-1.1,0.5
	c-0.9,1.1-0.3,2.2,0.1,3.3c0.5,0.9,0.1,2-0.8,2.5c0,0,0,0,0,0c-1.2,0.5-1.5-0.8-2.2-1.5c-0.1-0.1-0.1-0.4-0.1-0.6
	c-0.5-4-3-7.6-3.4-11.2c-0.4-3.4,2.2-7.3,3.1-11.2c0.7-0.4,1.6-0.4,2.4-0.2C429.1,491.6,430.4,491.4,432.1,490.4z"/>
<path class="st0" d="M517.2,731.2c3.8,2.5,7.4,3,11.3,1.8c2-0.7,3.4,1.1,3,3.5c-0.3,2.2-0.7,4.4-1.4,6.5c-0.9,2.4-2.5,4.3-5.3,4.4
	c-2.6,0.1-4-1.8-4.6-3.9c-0.8-2.8-2.2-5.5-3-8.3C517,734.2,517.2,733,517.2,731.2z"/>
<path class="st0" d="M446.2,537.7c-0.6-0.7-0.8-2.2-1.9-1.7c-1.2,0.6-0.2,1.7,0.2,2.4c0.9,2-0.7,3-1.7,2.5c-2-1-4.9-1.4-4.8-4.6
	c0.1-2.5-0.7-2.1-2.9-2.1c-3.2,0-4,0.8-4,3.9c-1.3-2.2-1.2-4.1,0.4-5.4c1.8-1.4,3-5.5,6.5-2c0.9,0.8,1.6-1.1,2.5-1.7
	c0.5-0.4-0.2-1.3,0.7-1.6c2.3-0.8,2.6-1.2,2.8-3.8c0-0.3,0.2-0.6,0.4-0.7c0.3-0.2,0.6-0.1,0.8,0.2c0.1,0.1,0.1,0.3,0.1,0.4
	c-0.3,2.8,1.7,4.7,2.4,7.1C448.4,533.3,448.3,535.6,446.2,537.7z"/>
<path class="st0" d="M523,114.8c0-1,0.1-1.9,0.3-2.8c0.2-0.6,1.4-1.6,1.6-0.6c0.6,2.8,2.3,1.8,4,1.6c0.4-0.1,1.2-0.2,1.2,0
	c2.1,4,6.8,2.2,9.8,4.4c1.4,1,1.1,1.9,0.5,2.9c-2.3,3.3-6.7,4.2-10.1,2.1c-1.8-1.2-3.6-2.6-5.3-4C523.5,117.3,522.7,116,523,114.8z"
	/>
<path class="st0" d="M654.9,173.4c-1.8-1.2-3.4-0.7-5,0.3c-0.3,0.2-1.6,1.1-2.4,0.1c-0.7-0.8-0.9-2-0.5-3c1.5-3.6,4.8-5.2,8.1-6
	c2.7-0.6,4.5,1.6,6.1,3.5c1.2,1.4,1.4,2.5-1,3.1C658.4,172,656.7,172.6,654.9,173.4z"/>
<path class="st0" d="M276.8,534.6c0.4,3.9-1.6,4.7-3.6,5.1s-3.4-0.2-3.9-2.6c-0.8-3.7-0.7-7.5,0.4-11.1c0.3-1,0.2-1.9,1.5-0.8
	C274.1,527.6,276.1,531,276.8,534.6z"/>
<path class="st0" d="M509.9,144.4c-2.3,0.3-4.1-1-5.9-1.9c-1.5-0.8-2.7-1.1-4.1,0c-0.5,0.4-1,1.1-1.5,0.1c-0.3-0.5,0.3-1.2,0.7-1.3
	c2.4-0.4,2.9-2,3.2-4.1c0.3-1.8,4.4-3.1,6-2c2.6,1.6,3.7,4.3,4.9,6.9C513.8,143.6,512.6,144.3,509.9,144.4z"/>
<path class="st0" d="M315.2,29.2c2.4-0.6,4.2,1.9,6.6,2.2c0.3,0,0.8,0.9,0.7,1.3c-0.7,2.3-2.4,3.6-4.6,4.5c-1.7,0.7-2.5-0.2-3.1-1.5
	c-0.5-1.1-1.6-1.6-2.1-2.8C311.7,29.9,312,29.2,315.2,29.2z"/>
<path class="st0" d="M430.2,464.9c-0.1,4.2-2.6,7.5-3.5,11.2c-0.3,1.3-1.3,0.4-1.8-0.3c-2.3-2.6-2-7,0.7-10.3
	c0.5-0.7,1.3-1.2,1.8-1.8s1.4-0.5,2.1-0.5C430.8,463.4,429.7,464.5,430.2,464.9z"/>
<path class="st0" d="M529,584.1c3.5-2,7.1-0.5,10.5-1.5c1.8-0.5,3.5-1.2,3.7-2.6c0.3-2.4,2-1.7,2.8-1.4c1.3,0.5,0.6,1.7,0.2,2.7
	c-2.1,4.5-7.6,6.4-12.9,4.2C531.9,584.8,530.5,584.4,529,584.1z"/>
<path class="st0" d="M156.5,192.6c0.1,1-4.1,4.8-5.3,4.8c-2.4,0-2.5-2.2-3-3.6c-0.6-1.7,1.9-4.9,3.6-4.9
	C154.2,189,155.2,191.1,156.5,192.6z"/>
<path class="st0" d="M434.7,603.5c1.8-5.9,8.3-10.2,15.9-8.7C444.8,597.1,440.3,601.6,434.7,603.5z"/>
<path class="st0" d="M439.4,514.4c3.7-0.1,7,2.8,5.4,4.6c-1.7,2-1.7,3.5-1.9,5.5c-0.1,0.7-1.4-0.2-1.5-0.4c-0.5-1.8-3-2.8-1.8-5.2
	C440.2,517.4,440.2,515.8,439.4,514.4z"/>
<path class="st0" d="M231.1,144.2c0.1-2.2,1.3-3.6,3.5-3.7s3.7,2,3.5,3.3c-0.4,2.5-3.4,2.6-5.5,3
	C231.1,147.2,231.1,145.5,231.1,144.2z"/>
<path class="st0" d="M397.4,129.3c-0.4,1.8-1.4,3.4-3.2,3.2c-2-0.1-3.6-1.7-3.6-3.7c0.1-1.6,1.5-2.8,3.2-2.7c0.1,0,0.1,0,0.2,0
	C395.4,126.4,397.9,126.3,397.4,129.3z"/>
<path class="st0" d="M458,573.2c2.7-0.1,4.8-0.3,6.1,1.8c0.2,0.3,1,0.9,0.3,1.6s-0.9,0-1.4-0.1c-2.7-0.6-5.2-2.4-8-0.1
	c-0.7,0.5-1.6-0.3-1.9-1.2s0.4-1.1,1.2-1.4C455.4,573.3,456.7,573.1,458,573.2z"/>
<path class="st0" d="M591.5,640.9c4.4,2,7,5.2,10.5,7.1c0.3,0.1,0.3,1.1,0.2,1.5c-0.3,0.7-0.8,0.2-1.3,0
	C596.9,647.7,593.6,644.7,591.5,640.9z"/>
<path class="st0" d="M421.8,519c1.7,4.2-3,4.8-4.2,7.4c-1,2-2.9,3.4-4.7,5.3c-0.7-1.3-0.3-3,0.9-3.9c2.9-2,5.3-4.2,6.3-7.7
	C420.3,519.4,421,518.9,421.8,519C421.8,519,421.8,519.1,421.8,519L421.8,519z"/>
<path class="st0" d="M608.8,628c-5.6-3.2-5.6-3.2-7.7-9.7c1.6,1,2.6,2.7,2.6,4.6c0.1,1,0.9,1.8,1.9,1.9c0.3,0.1,1-0.5,1.1-0.9
	c0.4-1,0.2-1.7-1.1-1.6c-0.1,0-0.8,0-0.4-0.5c0.3-0.5,0.8-0.8,1.3-0.7c0.7,0,0.9,0.3,1,1C607.7,623.8,607.2,625.6,608.8,628z"/>
<path class="st0" d="M310.1,1.8c2.1-0.4,3.7,0,4.1,1.9c0.2,0.8-1.1,2.3-2.1,1.8c-1.5-0.8-4.2,0.3-4.2-2.6
	C307.7,0.5,309.7,2.4,310.1,1.8z"/>
<path class="st0" d="M499.5,132.2c-0.1-1.8,0.8-2.3,2.4-2.3c1.2,0,2.4,0.3,2.2,1.7c-0.2,1.6-1,3.4-2.7,3.4
	C500.3,135.1,499.3,133.7,499.5,132.2z"/>
<path class="st0" d="M644.9,629.5c1.2-0.4,2.5,0.2,2.9,1.5c0,0.1,0,0.1,0.1,0.2c0.2,0.9-1.3,2.5-2.2,1.9c-1.3-0.9-3.7,1-4-1.3
	C641.6,630.2,643.1,629.3,644.9,629.5z"/>
<path class="st0" d="M269.3,7.6c1.4,0,2.5,0.4,2.3,1.5c-0.4,2.2-2.7,1.8-4.2,2.3c-0.7,0.2-1.3-0.2-1.5-0.8c-0.1-0.2-0.1-0.5,0-0.7
	C266.5,8.2,268.1,7.8,269.3,7.6z"/>
<path class="st0" d="M421.2,598.2c1.8-0.7,2.7,0.9,4,1.4c0.6,0.3,1.4,0.8,0.6,1.8c-0.4,0.7-1.3,0.9-2,0.5c-0.9-0.7-2-1.3-3-1.8
	c-0.9-0.3-1.9-0.4-1.8-1.4C419.3,597.5,420.5,598.3,421.2,598.2z"/>
<path class="st0" d="M555.8,582.2c1.4,1.5,2.7,3,4.1,4.5c0.6,0.5,0.8,1.4,0.2,2.1c0,0.1-0.1,0.1-0.2,0.2c-1,1.1-1.2-0.3-1.7-0.6
	c-1.6-1.4-2.8-3.4-3.3-5.5L555.8,582.2z"/>
<path class="st0" d="M569,595.6c-3.5,2.2-4.1-2.4-6.6-2.6c0-0.4-0.1-0.9,0.2-1.2c0.3-0.3,0.7-0.4,1.1-0.3
	C565.7,592.7,567.9,593.4,569,595.6z"/>
<path class="st0" d="M478.3,583.2c1.8,1.3,2.3,2.9,0.9,4.8c-0.6,0.8-1.8,1.4-2.1,0.8C475.8,586.7,476.9,584.8,478.3,583.2z"/>
<path class="st0" d="M268.1,152.5c-1.1-2.2-4.1-1.2-3.3-3.9c0.2-0.7,1-2.6,1.9-2.1C268.6,147.4,268.7,149.5,268.1,152.5z"/>
<path class="st0" d="M652.7,628.2c-1.5-0.9-2.8-1.7-4.2-0.5c-0.7,0.6-1.1,0.2-1.5-0.3c-0.5-0.8,0.2-1.3,0.7-1.5
	c1.5-0.6,3.2-1,4.8-1.5C653,625.5,652.7,626.6,652.7,628.2z"/>
<path class="st0" d="M260.6,40.6c-2.2,0.7-4,0.4-5.5-1.5c-0.4-0.4-0.5-1.1-0.1-1.5c0,0,0.1-0.1,0.1-0.1c0.6-0.7,0.9,0,1.2,0.3
	C257.7,38.8,260.1,38.3,260.6,40.6z"/>
<path class="st0" d="M452,575c-1.5,1.6-3.1,3-4.7,1.7c-1.8-1.5-0.9-3.1,1.4-2.7C449.9,574.1,451,574.4,452,575z"/>
<path class="st0" d="M482.6,107.3c1.3,1.8,2.6,3.4,1.5,5.7c-0.3,0.6-0.4,1.5-1.5,1.3s-0.8-1.1-0.8-1.7
	C482,110.8,483,109.2,482.6,107.3z"/>
<path class="st0" d="M486.5,311.1c2.2-1.1,3.8-2,5.4-1c1.2,0.8-0.2,2.1-0.5,2.4C489.4,314.1,488.8,311.1,486.5,311.1z"/>
<path class="st0" d="M485.9,709c1.9-2.2,3.7-2,5.9-0.8C489.9,710.2,488,710.6,485.9,709z"/>
<path class="st0" d="M590,285.7c-0.2-2.8,0.8-3.9,2.5-4.4c0.6-0.2,1.2-0.1,1.3,0.9C594,284.8,591.4,284.1,590,285.7z"/>
<path class="st0" d="M562.4,336.5c-0.5,2.7-1.6,4.2-3.6,4.9c-0.3,0.1-1.1-0.1-0.9-0.5C558.9,339,560.5,337.5,562.4,336.5z"/>
<path class="st0" d="M526.5,373c-0.1-1.8,1.1-3.5,2.9-4c0.8-0.3,1.6-0.3,2.2-1c0.4-0.5,0.9-1.5,1.6-0.4c0.5,0.8-0.4,1-0.9,1.3
	C530.1,369.8,528.1,371.2,526.5,373z"/>
<path class="st0" d="M332.4,84.9c0.7,1.3,0.1,2.9-1.1,3.5c-0.2,0.1-0.3,0.1-0.5,0.2c-0.5,0.2-2-0.8-1.9-1.1
	C329.1,85.6,331.2,85.9,332.4,84.9z"/>
<path class="st0" d="M579.3,600c-2.3-0.2-4.1,0.8-5-1.1c-0.4-0.8,0.7-0.9,1.2-1.1C577.4,596.7,578,598.3,579.3,600z"/>
<path class="st0" d="M438.4,569.4c3.3-1.6,5.4,0.1,7.7,0c0.5,0,0.4,0.7,0.4,1s-0.5,1-0.7,0.7C444,569.1,441.4,570.4,438.4,569.4z"/>
<path class="st0" d="M465.1,593.4c0.6-2.2,1.2-4.3,3.9-3.7L465.1,593.4z"/>
<path class="st0" d="M277.1,112.3c1.1-0.3,1.3,0.7,1.4,1.3c0.3,1.2-0.8,1.7-1.5,1.9s-1.3-0.6-1.4-1.4
	C275.6,113.2,276.2,112.4,277.1,112.3C277,112.3,277.1,112.3,277.1,112.3z"/>
<path class="st0" d="M581.4,599.3c-0.2-0.1-0.4-0.2-0.7-0.3c-1.3-1.2-2.7-2.4-2.5-4.5c0-0.1,0.5-0.2,0.8-0.4
	C579.7,595.8,581.3,597,581.4,599.3z"/>
<path class="st0" d="M257.4,141.7h-5.2C253.9,139.1,255.4,139.2,257.4,141.7z"/>
<path class="st0" d="M531.6,730.2c-0.1,0.5,0.3,1.5-0.7,1.4c-1.8-0.3-1-2.1-1.5-3.1s0.5-0.7,0.7-0.7
	C531.6,727.9,531.7,729,531.6,730.2z"/>
<path class="st0" d="M378.3,573.5c-0.4,0.7-1.1,1.1-1.9,1.1c-1,0-1.4-0.4-1.3-1.3c0.1-0.6-0.1-1.3,0.9-1.3
	C377.3,571.9,377.6,572.9,378.3,573.5z"/>
<path class="st0" d="M371.1,67.7c1.1-1,2.2-0.5,3.2-0.6c0.6,0,1.5-0.3,1.4,0.7c-0.1,0.7-0.9,1.7-1.6,1.1
	C373.3,68.1,372,69,371.1,67.7z"/>
<path class="st0" d="M317.2,519.3l2.1-7.7C319.6,514.8,319.9,517,317.2,519.3z"/>
<path class="st0" d="M482,130.9c1.1,1.3,3.6,1.8,2.7,4.7C483.4,134.3,482.5,132.7,482,130.9z"/>
<path class="st0" d="M600.8,313c-1.2-1.7-1.8-3.1-3.7-4.2C600.5,308.8,601.3,310.1,600.8,313z"/>
<path class="st0" d="M283.9,132.9c-1.6,0.1-3.3,0.9-5.2-0.8C280.8,131.9,282.5,131.5,283.9,132.9z"/>
<path class="st0" d="M372.4,64.8c-0.6,0.7-1,1.6-2.1,1.7c-0.4,0-1,0.1-1-0.5c0-1.1,0.9-1.7,1.8-2.1C371.7,63.6,372,64.4,372.4,64.8z
	"/>
<path class="st0" d="M580.7,601.6c0.5-0.1,0.6-0.2,0.7-0.2c0.9,0.9,2.9,0.1,3.2,2c0,0.2-0.3,0.5-0.6,0.6
	C582.3,604.1,581.8,602.6,580.7,601.6z"/>
<path class="st0" d="M343.5,569.1c-1.3-0.4-2.5-1-2.6-2.4c0-0.2,0.7-0.7,1-0.6C343.5,566.3,342.7,568.2,343.5,569.1z"/>
<path class="st0" d="M574.8,594.3c-1.7-0.4-3.5-0.8-4.6-2.8C572.5,591.7,573.4,593.4,574.8,594.3z"/>
<path class="st0" d="M448.1,426.6c0.9-0.1,1.4,0.4,1.5,0.8c0,1.2-1.4,1-2,1.6c-0.4-0.3-0.9-0.6-1-1
	C446.4,426.7,448.2,427.6,448.1,426.6z"/>
<path class="st0" d="M335.3,556.9c2.6-0.2,2.6,1.2,2.5,2.9C336.2,559.5,336,558.1,335.3,556.9z"/>
<path class="st0" d="M481.2,564.9c1.8-0.6,2.9,0.4,3.8,1.5c0.1,0.1-0.3,0.8-0.3,0.8C483.4,566.8,482.2,566,481.2,564.9z"/>
<path class="st0" d="M347.9,575.1l-3.5-4.7C346.9,571.7,347.8,573.1,347.9,575.1z"/>
<path class="st0" d="M531.8,93.8c0.6-1.1,1.2-2,2.6-1.8c0.3,0.1,0.4,0.4,0.5,0.7C534.3,94.2,533.1,94.1,531.8,93.8z"/>
<path class="st0" d="M448.4,592.1c-1.1,1.1-2.4,0.8-3.8,0.6C445.9,590.9,447.2,591.7,448.4,592.1z"/>
<path class="st0" d="M307.1,83.6c-0.4,0.7-0.8,1.2-1.7,1.2c-0.6,0-1.1-0.2-0.8-0.9c0.3-0.7,1-1.1,1.8-1
	C306.7,82.9,307.1,83.2,307.1,83.6C307.1,83.6,307.1,83.6,307.1,83.6z"/>
<path class="st0" d="M465.5,440.4c-0.2,1.2-1.4,1.2-2.3,1.7c-0.1,0-0.8-0.6-0.8-0.8c0.3-1.1,2-0.2,2.3-1.5
	C464.7,439.6,465.5,439.7,465.5,440.4z"/>
<path class="st0" d="M421.8,519.1c0.2-1.3,0.4-2.7,0.6-4.1c2.5,2,0.5,2.9-0.7,4L421.8,519.1z"/>
<path class="st0" d="M362.4,564.8c0.7-1.3,0.6-2.5,1.9-2.6c0.2,0,0.7,0.4,0.7,0.6C364.9,563.9,364.2,564.5,362.4,564.8z"/>
<path class="st0" d="M691.3,222.2c-1.8,0.1-2.8-1.5-3.5-2.6c-3.3-5.2-8.3-6.3-13.9-5.9c-0.2,0.7,0.5,0.9,0.7,1.3
	c0.7,1.2,0.1,2.3-0.4,3.3c-0.2,0.5-0.6,0.6-1,0.4c-1.2-0.7-0.4-2-0.6-2.7c-0.9-3-0.3-6.9-3.3-8.9c-6.8-4.3-12.3-10.1-19-14.5
	c-4.6-3-9-6.5-14.9-7.3c-6.4-0.8-13-1.1-19.4-3.8c0.1,0.6,0.1,1.2,0,1.8c-0.4,2.1-2.4,4.2,0.6,6.2c0.5,0.3,0.8,2.1,1.2,3.1
	c0.5,1.5-0.6,2.3-1.7,2.8c-1.1,0.5-2.2,1.7-3.2,0c-1.1-1.8-2.6-3.4-4.5-4.5c-1.1-0.7-1-2-0.8-3c0.4-1.4,1.4,0,2,0
	c1.1,0.1,2.1-0.6,2.4-1.6c0.5-1.3-0.2-1.8-1.2-2.5c-2.5-1.6-4.1-1.3-5.5,1.4c-1.4,2.7-3.7,3.7-6.9,2.9c-4.4-1-8.6-2.8-13.5-1.1
	c-2.3,0.8-5.3,1.4-7.7-0.6c-1.1-0.9-2.5-1.4-1.8-3.6c0.7-2.2,0.7-4.6-0.1-6.7c-1.8-3.7-10.1-6.9-14.4-5.8c-3.1,0.6-6.1,1.5-9.1,2.6
	c-2.2,1-3.9,0.6-5-1.2c-1.6-2.5-4-4.1-6.4-5.6c-1.9-1.2-4-2.3-6-3.4c1.2-0.7,2.9-0.2,3.2-2.1s-0.8-2.7-2.2-3.4
	c-2.2-1.2-4.2-2.2-7-1.5c-1.5,0.4-3.7,1-4.9-0.6c-1.6-2.3-3.9-2.5-6.2-3.1c-5.1-1.3-10.7-0.9-15.7-4.1c1.5,3.5,1.8,6-3,5.6
	c-1.6,0.1-2.8,1.4-2.8,3c0,2.4,2.4-0.2,3.2,1.3c-1.9,1.5-1.7,3.4-0.4,5.2c0.7,1.1,0.2,1.7-0.4,2.6c-0.1,0.1-0.2,0.2-0.3,0.3
	c-0.5,0.3-1.2,0.2-1.5-0.3c-1.3-1.7-2.6-1.2-4.4-0.8c-2,0.5-4.1,0.4-6.1-0.1c-2.1-0.6-4.2-0.8-5.8,1.3c-1.1,1.4-2.5,1.2-4.1,0.6
	c-2.1-0.7-2.6-2.7-3.8-4.2c-0.3-0.4,0.1-1.2-0.6-1.3s-1.2,0.5-1.4,1.2c-0.7,2.5-1.4,5.1-2,7.6c-0.8,3.2-1.8,3.7-4.5,2.3
	c-0.2,0-0.5,0.1-0.6,0c-2.7-1.4-3.2-4.3-4.8-6.5c-0.9-1.3-0.1-2.1,0.5-3c0.6-0.9,0.1-1.3-1.5-1c-0.5,0.1-0.9,0-1-0.5
	c-0.3-1.3-1.8-2.2-1.2-3.8c1.3-0.2,1.6,2.9,3.4,1.1c1.1-1.1,1.1-2.8,0-3.9c-1.1-1.2-0.9-1.8-0.4-3.3c0.6-2-0.7-4.2-1.4-6.2
	c-0.6-1.8-2.6-3.1-4.2-4.4c-1-0.8-2.4-2.3-3.4,0.2c-0.3,0.9-0.9,0.7-1.3-0.1c-0.2-0.5-0.4-1.3-1.3-1c-2.1,0.9-2.9-0.3-4.1-1.9
	c-1.3-1.9-3.5-1-5.2-0.3c-1.4,0.5-2.2,2-1.8,3.4c0.5,2.8,2.5,6.2-3,5.8c-0.1,0-0.2,0.2-0.3,0.2c-2.6,1.1-6.6,1.1-7.6-0.2
	c-1.7-2.3-3-1.4-4.8-1.4s-2.2-1.3-3-2.5c-0.9-1.4,0.1-1.5,0.9-2.2c0.8-0.7,0.5-1.9-0.7-1.8c-5.2,0.4-10.4-2.6-15.6,0.1
	c-2.1,1-4,1.1-4.2-2.2c0-1-0.6-1.9-1.5-2.3c-0.8,0.6,0.5,2.7-1.6,2.4c-1.2-0.2-3.2,1-3.5-1.1c-0.4-2.6-2.2-1.9-3.8-2.2
	c-2.3-0.3-3.6,0.7-3.9,2.8c-0.3,2.4,2.4,0.2,3,1.8c-4.4,3.9-9.6,5.9-15.2,7.2c-0.3,0.1-0.8,0-0.8-0.2c-0.1-0.4-0.2-0.8-0.1-1.2
	c2.8-0.6,2.8-4.3,5.3-5c2.7-0.8,4.2-2.7,5.8-4.7c2.8-3.3,5.2-7,8.7-9.5c2.6-2,4.9-4.2,7-6.7c1.2-1.4,3.1-3.3,2-5.4
	c-0.6-1.3-0.7-2.1,0-3.1c0.8-0.9,1-2.2,0.6-3.4c-2.3-3.7-3.4-8.1-6.1-11.6c-0.3-0.4-0.9-0.5-1.3-0.8c-4.2-2.9-8.9-1.8-13.5-1.8
	c-1.1,0-2,0.9-2,2c-0.1,2-2.4,2-3.4,1.7c-1-0.3-0.7-2-0.1-3.1c0.3-0.6,0.7-1.1,1-1.6c1.2-1.8,0.2-4.4-1.8-4
	c-2.6,0.5-4.3-1.2-7.5-0.9l4.4-4c0.6-0.6,0.9-1,0.3-1.9c-3.5-5-8.9-5.8-13-1.5c-0.8,0.8-1.6,1.7-2.2,2.7c-1.8,2.9-4.7,5.3-4.6,9.2
	c0.2,5.6,0.2,5.6-5.4,5.6h-2.2c0.4,2,1.7,3.3,3,6c-3.2-2.2-5.1-1-6.9,0.6c-1.9,1.8-4.2,2.2-6.9,1.7c0.7-1.7,1.1-3.2,3.2-3.3
	c0.6-0.1,1-0.7,0.8-1.2c0-0.1-0.1-0.2-0.1-0.3c-0.3-0.4-0.8-0.5-1.2-0.2c-1.5,1.2-4.7-1-4.9,2.6c0,0.2-0.4,0.5-1,0.2
	c-2.2-1-4.4,0.4-6.6,0.6c-0.5,0-2.4-0.3-2.5,1.4s1.5,1.5,2.5,2c-0.9,0.3-1.6,0.7-2.4,1c-4.8,1.9-10.2,2.6-14.6,5.8
	c-2.3,1.7-3.8,4.9-7.6,4.2c-0.3,0-0.5,0.1-0.7,0.3c-0.3,0.4-0.3,1,0.1,1.3c0.4,0.4,1.9-0.3,1.4,1c-0.3,0.8-1.3,0.5-2,0
	c-1-0.6-1.4,0.3-1.8,0.8c-2.1,2.4-1.7,4.7,1.2,6.5c-1,0.4-1.8,1.1-2.4,2c1.2,1.4,2.9,2.5,3.6,4.4c0.3,0.7,0.5,2.1-0.3,2
	c-2.3-0.3-3.9,1.5-5.9,1.7c-4.8,0.5-9.6,0.9-14.4,1.3c-3.3,0.3-5,2.6-4.2,5.7c0.6,2.3,0.9,4.6,0.7,7c-0.3,1.9,0.8,3.8,2.7,4.4
	c1.1,0.5,2.8,0.5,3.2,2.2c0.4,1.8,1.5,3.3,2.9,4.5c-3.8,2.6-6.3,0.9-8.1-2.5c-1.5-2.9-4.1-3.8-6.8-4.7c-1.3-0.3-2.4-1-3.3-2
	c-0.5-0.7-1-2.3-2.2-1.3c-1.2,0.9-2.7,1.8-2.9,3.7c-0.2,1.7,1,1.2,1.9,1.4c1.1,0.2,0.7,0.8,0.3,1.4c-0.3,0.4-0.1,1.1,0.1,1
	c2.1-1,2.8,0.5,2.1,1.6c-0.8,1.4-2.4,0.6-3.2-0.5c-1.3-1.9-2.9-0.5-4-0.1s-0.5,2-0.2,3.2c0.9,2.8,3,4.3,5.6,5.1
	c1.7,0.6,2.9,1.2,2.1,4c-1.9-3-4.8-2.5-7.3-3.3c-1.9-0.6-3.1-0.8-3-3.8c0.1-3.2-0.5-6.2,1.5-9.1c0.3-0.4-0.3-0.8-0.3-1.1
	c0.1-3.2-1.9-5.5-3.4-8c-0.5-0.7-0.4-1.7-1.5-2c-0.8-0.2-1.2,0.5-1.5,0.9c-0.4,0.9,0.2,1.7,0.8,2.4c4,4.7,3.7,7.9-0.9,12
	c-4.2,3.7-4.4,5.8-1.4,10.4c1.9,3,2.9,6.4,0.9,9.3c-2.5,3.6-1.4,7-0.8,10.6c0.5,2.8,2.1,2.8,4.2,2.1c0.7-0.2,1.4-0.5,2.1-0.7
	c4.2-1.2,10.7,4.6,9.6,8.9c-0.2,0.7-0.2,2-1.8,1.9c0.3-2.9-1.4-5-2.5-7.4c-0.4-1.2-1.7-1.9-3-1.6c-5.2,1.3-6.6,3.7-5.2,8.5
	c0.5,1.9,1.1,4.2-0.2,5.7c-2.8,3.3-4.1,7.6-7.4,10.7c-3.2,3.2-6,1.1-8.8,1.7c-0.1,0-0.2,0-0.3,0c-0.4-0.1-0.7-0.6-0.5-1
	c0.2-0.5,0.5-0.5,1.2-0.3c2.6,0.8,3.8-1.1,4.5-3c2-5.4,6.6-9.5,6.9-15.8c0.1-1.8,0.8-3-1.3-3.7c-1.2-0.3-1.9-1.5-1.8-2.7
	c0.3-5.3-0.5-10.6,0.5-15.9c0.7-3.5,0.9-7.3-2-10.4c-0.8-0.7-1-1.8-0.5-2.8c2-3.6,2-7.7,2.7-11.6c0.4-1.3-0.1-2.7-1.3-3.5
	c-2-1.4-4.5-2.4-6.6-1.7c-2.3,0.8-3.6,0.2-5.2-1.6c-1,3.5-1.9,6.7-2.7,9.9c-1.1,4.4-1.2,9.2-6.4,11.5c-2,0.8-2.1,4.7-0.4,6.2
	c2.4,2.1,1.9,4.5,1,7c-0.7,1.6-1.1,3.2-1.3,4.9c-0.1,1.6-0.2,4.1,2.9,2.6c1.3-0.6,1.5,0.3,1.6,1.5c0.2,1.6,0.1,3.4,2,4.3
	c0.9,0.4,2.3,1.1,1.6,2.3c-0.6,1.2-0.8,3.1-2.5,3.5c-1.6,0.4-1.7-1.3-2.4-2.1c-0.7-0.8-1.5-1.6-2.3-2.3c-3.1-2.2-6.4-4.1-9.5-6.3
	c-4.4-3.2-9.1-5.3-14.7-3.8c-0.6,0.2-1,0.1-1.1-0.7c-0.4-2.7-2.7-4-4.4-5.8c-0.5-0.6-1-1.8-2-1c-1,0.6-1.5,1.8-1.2,3
	c0.5,1.5,1.1,2.9,2.8,3.5c4.5,1.5,4.2,6.2,6,9.5c0.5,0.9-0.3,1.8-1.4,2.1c-1.3,0.3-2.2,1.3-2.4,2.6c-0.1,1.3-0.7,1.5-1.7,1.1
	c-1.1-0.5-1.4-1.3-0.3-2.2c0.8-0.6,0.5-1.1,0.1-1.9c-1.3-2.6-2.4-2.7-5.3,0c-1.8,1.7-3.4,3-6.2,1.8c-1.6-0.7-3.4,0-4.2,1.5
	c-1.2,3.2-3.8,2.2-6.1,2.6c1.9-1.6,1.4-3.6,1.4-5.5c0-0.9,2.1-1.4,0.6-2.2c-0.7-0.4-2,0.2-3,1c-4,3.4-8.6,5.6-13,8.4
	c-3.3,2.1-7,4.1-8,8.2c-0.7,2.9-2,4.3-4.9,4.2c-1.9-0.1-4.8-3.4-5-5.8c-0.2-2.9,1.8-3.2,4-3.3c1.5-0.1,2.2-0.8,1.8-2.3
	c-0.7-2.5-5.4-6.1-8-6.2c-1.6,0.1-3.3,0-4.9-0.4c4.3,3.5,2.5,7.8,1.6,11.8c-0.3,1.3-0.5,2.2,0.6,3c2.3,1.6,2.1,3.8,1.4,6.2
	c-0.4,1.4-1,2.7-1.5,4.2c-0.4-0.3-0.8-0.7-1.2-1.1c-2.9-3.5-5.2-3.7-7.8-0.1c-1.2,1.7-3,2.2-4.4,3.3c-2.7,2-3.5,4.4-1.7,7.1
	c0.7,1,1.6,1.7,0.5,3c-0.8,1.1-2.3,1.5-3.5,0.9c-2.2-1.6-5.3-1.6-6.7-4.3c-0.5-1-1.2-0.8-2.1-0.1c-2.6,2.4-1.8,5.8,2.2,7
	c2.4,0.7,1.4,2.1,1.4,3.2c0,1.6-1.5,0.9-2.3,0.9c-2.2,0.1-3.4-1.5-4.8-2.9s-2.4-1.5-3.7,0.1c-1.2,1.5-2.6,3-4,4.3
	c-6.7,6.2-12.8,13-18.9,19.8c-1.2,1.4-2.2,2.9-3.2,4.5c-0.9,1.2-0.7,2,0.8,2.7c2,0.9,4.1,1.6,6.2,3.6c-3.7-0.2-6.6,0.2-8.2,3.5
	c-0.1,0.1-0.1,0.2-0.2,0.3c-0.7,0.9-2,1.1-2.9,0.4c-4.1-2.5-8-1.2-11.9,0.6c-1.4,0.6-2.3,1.3-2,2.9c0.2,0.7-0.1,1.4-0.7,1.7
	c-1,0.4-1.2-0.5-1.7-1.1c-0.4-0.6-0.6-1.6-1.5-1.1c-1.6,0.9,0,3.4-2,4.4c-0.3,0.1-0.1,1.1,0.5,1.7s1.1,0.3,1.6-0.2
	c0.8-0.7,1.7-1.2,2.5-1.9c0.8-0.8,1.1-0.4,2.1,0.1c3.7,1.9,2,5.1,2.3,7.7c0.2,1.1-0.4,2.2-1.5,2.5c-1.1,0.4-2.4-0.1-2.8-1.3
	c-0.6-1-1.3-1.8-2.3-2.5c-1.6-1.5-2.9-1.5-4,0.7c-1.1,2.3-2.3,4.5-1.8,7c1.2,5.7-1.8,9.5-5.6,12.9c-0.9,0.8-2.7,2.8-3.4,0.2
	c-0.8-3.1-2.8-2.1-4.5-1.9c-2.3,0.3-3.9,2.5-6,3.2c-3,0.9-6.2,4.2-9.1-0.3c-0.4-0.6-0.9-0.4-1.4-0.2c-4.2,1.5-8.6,2.3-13,2.5
	c-0.8,0.1-1.3,0.1-1.4,1.2c-0.4,6,0.4,7.4,6,10c0.6,0.4,1.3,0.8,2,1c3.3,0.5,3.2,2.6,2.4,5c-0.3,0.9-0.8,1.8-1.1,2.7
	c-1.7,5-1.3,6.2,3.3,9c2.2,1.4,4.6,2.5,6.3,4.5c2.1,2.4,2,3.3-0.8,5c-2.1,1.2-4,2.6-6.1,3.8c-1.4,0.8-1.7,1.6-0.4,2.8
	c1.4,1.3,1.3,4,3.9,4.2c-0.9,4,2.9,4.2,4.8,6c0.5,0.5,1.6,1.1,1.1,1.8c-1.5,1.7,0.3,2,1,2.1c2.1,0.5,3.2,1.9,4.3,3.5
	c0.6,0.9,1.1,2,2.4,1.9c4.3-0.3,6.9,2.5,9,5.4c1.2,1.6,2.2,1.6,3.4,1.1c8.6-2.9,17.4-3.6,26.4-3.2c1.4,0.1,2-0.2,2.1-1.9
	c0.3-3.9,4.1-6.5,4.2-10.5c0-0.6,1.2-1.2,1.8-1.9c0.4-0.4,1-0.8,1-1.2c-0.2-3.7,3.4-5,4.8-7.7c0.3-0.6,1.3-1.5,2.2,0.1
	c1,1.9,2.9,2.3,5,2.1c0.8-0.1,1.9-0.7,2.3,0.4c0.4,1-0.8,1.2-1.5,1.7c-1.4,1-2.7,2.1,0.5,2.6c1,0.2,1.7,1.1,1.8,2.1
	c0.5,3,0.5,3,2.9,1.2c2.7-2.1,6.3-2.9,9.7-2.1c2.7,0.7,5.2,2.8,7.4,4.7c2.5,2.1,4.9,4.4,7.9,6c4,2.1,4.1,6.8,0.4,9.1
	c-2.5,1.6-0.7,2.4,0.3,3.2c3.7,2.6,5.9,6.9,5.9,11.4c0.1,3.8-1.2,7.3-2.1,10.8c-1.4,6-0.8,7.7,4.6,10.6c2.2,1.3,4.1,2.8,5.8,4.7
	c4,4.2,7.6,8.6,11.5,12.9c0.7,0.8,1.2,2,2.5,0.1c1.4-2.2,4.3-2,6.5-0.2c1.5,1.3,2.2,3.1,3,4.8c1.2,2.4,2.7,4.5,5.6,5
	c0.9,0.2,1.2,0.8,1.8,1.2c3.8,3,7.8,4.4,12.6,2.2c1.7-0.8,3.7-2.1,3.7,1.6c0,1.3,1.2,2.5,2.5,3.2c1.5,0.9,3.2,0.4,4.7,0.6
	c4.5,0.6,9,2.6,13.6,1.6c4.3-0.9,8.6-0.3,12.9-0.6c1.8-0.1,3.2,0.4,3.8,2.1c0.6,2.2,2.3,4,4.5,4.6c2.5,0.9,3.8,3.8,6.7,4
	c-0.6,1.8-2.3,0.5-3.2,1.8c2.1,2.7,3.4,6.2,7.9,5.9c2.7-0.2,4.3-1.3,5.1-3.9c1.1,1.2,1.7,2.8,1.6,4.5c0.2,3.7-0.3,7.3,0.5,11
	c1.2,6,4.2,11.2,5.9,16.9c1.9,6.2,6.3,11.4,7.6,17.9c0.3,1.2,1.1,2.2,2.1,2.7c1.4,0.8,3.5,1.5,4-0.2c0.9-2.9,2.9-3.1,5.4-3.2
	c-1.2-1.4-2.3-2.9-0.3-3.6c2.7-1,2.7-2.7,1.9-4.7c-0.4-0.9-0.3-1.9,0.4-2.6c1.6-2.2,1.6-4.8,1.2-7.1c-0.6-3.5-1.8-6.6,3.1-8.2
	c3-1,4.9-4,7.5-5.9c4.6-3.3,7.5-8.6,13.3-10.3c1.1-0.3,1.5-1.8,1.6-3c0.5-3.3,1.5-4.1,4.8-3.4c0.7,0.2,1.3,0.2,2,0.2
	c3.4-0.4,6.6-1.3,9.7-2.7c1.1-0.5,1.9-0.5,1.9,1.1c0.1,3,1.2,5.8,3.9,7.3s1.9,5.9,5.6,6.4c0.2,0,0.3,0.5,0.4,0.8
	c0.5,2.2,1.2,4.4,0,6.5c-0.7,1.2-0.8,2.1,0.3,3.1c0.9,0.8,2.2,1.1,3.3,0.5c2-0.7,3.8-2,5.2-3.7c1.2-1.4,2-2,2.5,0.6
	c0.4,2.5,1.5,4.6,2.2,7.2c0.7,2.6,0.3,5.8,1.8,7.6c1.8,2.1-2.9,4.7,1,6c0.3,0.1-0.3,0.9-0.8,1.2c-0.5,0.3-1.2,0.3-0.5,1.2
	c1.4,1.8,0.6,3.6-0.2,5.4c-0.6,1.5-0.8,3,0.6,4.1c4.3,3.2,6.6,7.8,8,12.8c0.2,1.1,0.6,2.2,0.9,3.3c1.7,4.2,5.3,6.6,9,8.7
	c1,0.6,1.8,1.4,1.2,2.2c-0.7,1.1-1.6,0-2.4-0.4c-1.8-0.9-2.9-3.2-4.2-3.5c-6.4-1.7-10.5-5.9-14.2-10.8c-0.4-0.8-1.2-1.2-2.1-1.2
	c-2.4,0.3-4.9-0.3-7-1.6c-1.5-0.9-1.4,0.2-1.3,1.1c0.1,0.7,0.3,1.4,0.7,2.1c2.8,3.7,6.9,6.2,9.8,10c1,1.3,3.1,2.7,3.5,4.3
	c0.5,2.2,1.9,3.5,3.2,5c0.8,0.6,1.4,1.4,1.8,2.2c2.3,6.5,7.2,11.3,12.3,15.5c2,1.7,3.8,5.5,7.8,3.3c0.2-0.1,0.4-0.2,0.7-0.1
	c0.5,0.1,0.9,0.6,0.8,1.1c0,0.7,0.2,1.6-1,1.6c-0.6,0-1.4-0.3-1.6,0.9c1.7,0.6,3.8,0.2,5.1,1.8c1.7,2.1,4.1,2.6,6.6,2.5
	c6.5-0.3,12.5,3,19.1,2c0.6-0.1,1.3,0.8,2,0.9c5.8,1.4,11.7,1.9,17.6,1.5c1.1-0.1,3.2,0,3.3-2.4c-2.7,0-5-1.1-7.9-0.3
	c-2.3,0.6-4.7,0.5-6.9-0.3c-2.1-0.8-4.4-1.5-6.4-2.5c-1.2-0.6-2.9,1.7-3.3-0.8c1.2-0.7,3.3,0.8,4.2-1.5c-2.2-0.1-4.4-0.3-6.5-0.6
	c-1.9-0.3-3.8-2.2-5.4-1.2c-3.8,2.2-6.8,1-10.1-1c-1.6-1-3.5-1.9-5.4-0.8c-0.9,0.4-1.9,0.1-2.4-0.8c-0.2-2.9-0.3-5.9-0.1-8.8
	c0.1-1.6,2.1-1.7,3.3-2.4c-0.7-1.4-1.8-2.1-2.4-3.3c-1.4-2.9-2.1-2.9-4.1-0.6c-0.3,0.3-0.5,1.5-0.9,1c-1.7-2.1-3.3-4.3-4.7-6.6
	c-0.3-0.4,0.3-1.6-0.2-2.4c-0.9-1.6-0.2-2.1,1.4-2c2.8,0.2,2.6-0.7,1.2-2.7c-2.1-3-5.1-6-3-10.3c0.2-0.4-0.2-1-0.4-1.5
	c-1.7-4-4.8-6.6-8.6-8.6c-1-0.6-2.4-1-2.6-2.2c-0.4-1.8-2-3.2-2-4.9c0.1-2.2-0.5-3.1-2.6-2.9c-0.1-0.2-0.1-0.4-0.1-0.6
	c0.2-1.6-0.2-3.1,0.5-4.7c1.3-2.8,2.7-5.6,2.7-8.7c0-1.3,0.8-1.5,1.6-1.6c0.8-0.2,1.2,0.7,1.1,1.5c-0.2,1.7,0.3,2.3,2.1,2.2
	c2.1-0.1,3.4,1,4.6,2.8c1.5,2.1,2.2,5.2,5.2,5.6c2.6,0.3,3.3,1.5,3.2,3.8c0,0.9-0.6,2.1,0.4,2.7s2-0.5,2.9-1
	c3.8-2.5,6.5-6.4,11.1-7.9c0.8-0.2,1.4-1.5,2-2.4c3.2-4.8,1.8-9.3-0.7-13.7c-2.5-4.4-6.6-7.6-9.6-11.6s-3.4-5.5,0.3-8.7
	c1.7-1.5,3.4-3,5.1-4.5c2.9-2.5,6.8-1.4,7.2,2.3c0.2,1.6,1.9,1.5,1.9,3c-0.9-0.1-1.8-0.1-2.7,0c-2,0.6-3.4,2.4-3.6,4.4
	c-0.3,1.8,1.3,2.2,2.3,2.6c2.6,1,4.2-1,5.2-2.8c0.8-1.4,3.4-2.9,0.5-5.1c-1.9-1.5-1.1-3.4,0.9-4.5c1-0.5,2.1-0.9,3.2-1.2
	c7.5-2.1,15.1-4,21.3-8.7c4.5-3.4,9.5-6.6,10.8-13c0.4-2.6,2.1-4.7,4.5-5.7c0.8-0.3,1.3-1.1,1.4-1.9c0-1.6,0.7-3.2,1.8-4.3
	c0.9-1,1.3-2.5-1-2.4c-1.3,0.1-2.5-0.4-3.4-1.3c3.9-3.3,4.4-6.5,1.1-9.3c-1.4-1.3-2.3-3-2.8-4.9c-0.4-2.1-1.8-3.9-3.7-4.9
	c-1.5-0.8-1.4-2-0.2-3.1c2-1.9,3.8-3.9,5.8-5.8c1-1.1,2.5-1.6,4-1.3c0.9,0.2,1.5,0.1,1.6-0.6c0.2-0.7,0.5-1.5-0.5-2.2
	c-2.5-1.8-7.5-1.7-9.7,0.2c-0.5,0.5-0.9,1.5-1.8,1c-0.7-0.4-1-1.2-0.9-1.9c0.1-2.1-1.1-3.3-3.1-3.1s-2.9-0.9-2.7-2.6
	c0.2-1.7,1.3-2.7,3.2-1.7c0.9,0.5,2,0.6,2.2-0.3c1-3.8,5.4-4.2,7.2-7.4c0.7-1.2,2.6-0.6,3.9-0.4c1,0.1,0.7,1.7,0.4,1.9
	c-2.6,1.9-2.2,5.2-3.5,7.7c0.6,0.1,1.3,0,1.9-0.4c2.1-0.9,3.2-3.1,5.5-3.7c2.7-0.7,5.5-1.3,7.7,0.5s0.2,3.8-1,5.5
	c-1,1.4,0.1,2.1,1.1,2.6c0.7,0.2,1.5,0.3,2.2,0.1c1.9-0.3,2.8,1,3.6,2.2c1,1.4-0.7,1.7-1.3,2.3c-0.3,0.3-0.6,0.8-0.3,1.1
	c2.5,2.8,0.9,5.4-0.4,7.9c-0.5,0.8-0.4,1.9,0.3,2.6c0.8,1.1,1.5,0.4,2.2,0.2c1.9-0.6,3.8-1.8,5.6-1.8c4-0.1,4.1-2.9,4.5-5.6
	c0.8-5.1-1.6-9.3-4.6-13.1c-3.2-4.1-2.9-5.2,1.7-7.7c2.4-1.3,4.8-2.7,4.2-6.1c-0.1-1,0.4-1.9,1.2-2.5c2-1.7,3.9-3.4,5.8-5.1
	c0,0,0,0,0,0c0.6-0.7,1.6-0.7,2.3-0.1c4.3,2.8,7.9,0.7,10.5-2.4c5.8-6.7,11.3-13.6,15.8-21.4c3.1-5.4,6.6-10.1,5.7-16.7
	c-0.5-3.9,1.5-7.1,3.2-10c2.8,2.5,2.7,5.8,2.7,9.1c-0.1,3.7-1.6,7.4-0.6,10.9c1,3.1-0.1,5.9-0.3,8.9c-0.1,1.8-0.9,3.6,0.5,5.3
	c1.9-0.9,3-5.4,5.9-0.8c0.7-2-0.3-3-1.1-4.1c-2.5-3.5-3.1-7.3-1.2-11.3c1.2-2.6,2.5-2.9,4.7-1c0.7,0.6,1,1.8,2.4,1.4
	c-1.5-2.9-3-5.8-3.5-9c-0.6-4.3-3-8.3-2.2-12.7c0.4-1.5,0.4-3.1,0-4.6c-0.6-2.1-1.1-4.3-1.3-6.5c0-0.5-0.3-1-0.7-1.4
	c-0.7-0.4-0.9,0.4-1.3,0.6c-0.9,0.6-0.2,1,0.1,1.5c0.8,1.4,1,3-0.8,3.3c-2.1,0.4-1.9,1.7-1.9,3.1c0,0.9,0,1.8,0,2.6
	c0,0.9-0.5,1.7-1.3,1.5c-1.1-0.2-0.7-1.1-0.4-1.8c1.1-2.4,0.1-4.5-1.6-5.9c-1-0.8-2-1.7-2.9-2.7c-2.4-2.6-3.5-2.6-6,0.1
	c-0.9,1-1.5,2.6-3.7,2.4c1.8-1.7-0.5-2.8-0.1-4.3c-0.4-0.1-0.9-0.2-1.3-0.1c-1.1,0.5-1,1.5-0.5,2.8c-3.4-1.5-0.2-3.2-0.8-4.9h-2.7
	c-1.2,0-2.4,0.3-2.9-1.3s0.8-2.1,1.7-2.6c6.4-4,9.8-10.9,15.3-15.8c3.4-3,5.6-7.3,9-10.5c3-2.7,6.6-4.2,10-2.9
	c4.1,1.5,7.9-0.3,11.8,0.2c1.3,0.2,2.5,0,3.7,0.7c0.9-1.2,0.8-3.2,2.5-3.7s3.5,2,4.5,1.6c2.7-1,3.1,0.9,4.3,2
	c-0.9,0.7-2.8-0.6-2.5,1.4c0.2,1.5,1.2,1.7,2.6,1.1c2-0.8,4.7,0.4,6.1-2.1c0.3-0.1,0.6-0.1,0.8,0.1c1.1,1.8,2.5,0.3,3.7,0.4
	c0.9,0.1,2.2,0,2.1-0.9c-0.1-0.8-0.4-2.3-1.8-2.3c-0.8,0-1.9-0.6-1.7-1c1.1-1.7,0.8-4.2,2.6-5.3c2.7-1.6,4.2-4,5.7-6.7
	c2.1-3.7,5.9-4.7,9.7-5.1c1.3-0.2,2.8,1.7,4.9,0.8c-2.7,3.1-1.2,6.2-0.6,9.3c3.3-1.8,5.4-4.7,8-7.1c0.4-0.4,0.3-1.6,1.2-1.1
	c3.7,1.8,2.2-1.3,2.3-2.5c0.3-4,1.8-5.6,5.5-5.1c-1.4,1.8-2.2,3.9-2.2,6.2c0.1,3.9-1,7.2-4.8,9c-1.8,1-3.4,2.4-4.5,4.1
	c-2.9,3.8-6.5,7-8.9,11.3c-1,1.7-2.5,3-4.2,3.9c-2.5,1.2-6,1.8-5.1,6c0.1,0.4-0.8,1-1.2,1.4c-3.6,3.8-4.4,8.5-3.8,13.4
	c0.4,2.8,0.6,5.7,1.2,8.5c1.1,5.4,1.8,10.8,3.1,16.1c0.4,1.4,0.9,1.5,1.7,0.8c2.6-2.2,5.4-4.4,5.7-8.2c0-2.1,1.4-4,3.4-4.5
	c2.1-0.5,2.4-1.2,2-3.3c-0.6-3.4,1.8-5.5,5.2-5.1c1.7,0.2,3.4-2.1,2.7-3.8c-0.4-1.1-1.4-2.2-0.9-3.3c0.7-1.6,0.3-4.2,3.2-4.2
	c0.9,0,1.6,1.6,2.6,0c0.9-1.1,0.7-2.7-0.3-3.7c-1.9-1.8-1.6-3.9-0.6-5.8c1.3-2.4,0.5-3.3-1.9-3.3c-2.7,0-2.5-1.2-1.5-3
	c1.8-3.6,5-6.6,5.2-11c0-0.6,0.9-1.4,1.4-1c3.3,2.2,5-0.9,7.3-2.1c0.4-0.2,0.8-0.8,1.6-0.3c0.1,1-1.6,2.5,0.1,3.2
	c1.5,0.6,1.4-1.4,2.1-2.2c4.5-4.7,8.4-4.5,12,0.6c0.3,0.5,0.9,0.9,1.5,1c0.3,0,0.7-0.7,0.8-1.2c0.4-1.3,0.7-2.6,2-3.6
	c6.4-4.9,12.5-10.2,19.5-14.2c2.8-1.7,5.6-2.4,8.8-1c2.6,1.2,4.2,0.1,4.4-2.8c0.2-1.3-0.2-2.6-1-3.6c-2-2.1-2.4-4.7-3-7.2
	c-0.4-1.5-0.4-2.5-2.5-2.2c-1.6,0.3-1.4-1.5-1.4-2.7c0.1-2.2,1.2-0.6,1.9-0.5c5.7,1,11.1-5.5,8.9-11c-0.6-1.6,0.9-1.7,1-2.7
	c0.1-0.7,0.5-0.9,1.1-0.5c0.9,0.6,0.4,1.3,0.4,2.1c0.1,3.1,3,4.8,6.2,4.4c1.9-0.3,4.3-0.9,5.1,1.9s1.3,5.8,5.3,5.4
	c0.3,0,0.8,0.7,1.1,1.1c3.7,3.9,3.7,3.9,8,0.8c-1.2-1.1-3.5-2.1-0.5-3.8c1-0.5,0.6-1.5,0.7-2.4s-0.2-2.2,0.8-2.2
	c3.9-0.3,5.6-3.7,8.3-5.5L691.3,222.2z M111,361.1c-0.3,0.1-0.6,0.2-0.9,0.1c-0.5-0.1-1,0.3-1,0.8c0,0.1,0,0.2,0,0.3
	c0.8,4.3-0.6,6-5,6l-1.1-0.1c-0.9,0-1.7,0-2.6,0c-1.3,0.1-2.5-0.8-2.7-2.2c-0.4-1.5,0.1-3.1,1.6-3.5c3.4-1,6.3-3.4,10-3.8
	c1-0.1,2-0.7,2.4,0.3C112,359.9,111.7,360.7,111,361.1z M165.5,389l0.1,0.1c-0.1-1.1,0.3-2.1,1-3c1.2-1.4,3-1.6,3.5,0.3
	c0.6,2.1,2,3.4,3.3,4.9C169.7,393.7,167.3,392.3,165.5,389z M282.2,180.2c-1.1-0.1-1.5-1.7-1.3-2.8c0.4-1.9,2-4-2-4
	c-1,0-1-1.8-0.4-2.8c1.2-2.2,2.6-4.3,3.9-6.5c-1,4.7,0.2,9.1,1.6,13.5C284.3,178.4,283.5,180.4,282.2,180.2z M519.9,163.7
	c-0.7,0.1-1-0.2-1.2-0.5c-0.1-0.5-0.2-1-0.1-1.6c3.1,0.4,2.3-2.7,3.6-4C523.5,161.9,522.9,163.1,519.9,163.7z"/>
<path class="st0" d="M504.8,390.6c-0.4-2-1.3-2.3-2.9-1.8l0.1-0.2c-2.3,2.8-3.7,5.8-3.2,9.7c0.6,4.3-4.8,11.3-9,12.8
	c-1.6,0.6-1.4-0.3-1.3-1.2c0-0.5,1-0.9,0.3-1.8c-1.1,0-2,0.8-2.2,1.9c0,2.5-2,3.9-2.8,6c-0.3,0.8-0.7,1-1.9,1
	c-4.9-0.2-9.7,0-13.6,3.6c-2.7,2.7-5.7,5.1-9,7.2c-0.3,0.2-1.5,0.4-0.4,1.2c1.9,1.4,2.9,3.7,2.6,6.1c-0.2,1.7,0.8,2.3,2.1,2.8
	c1.5,0.5,1.9-0.8,2.5-1.7c1.2-1.7,1.3-3.8,2-5.6c0.3-0.7,0.6-1.8,1.1-2c1-0.3,1.3,0.8,1.6,1.6c0.1,0.4,0.3,0.8,0.4,0.9
	c2-1,2.4-3.8,3.4-3.5c3.5,0.9,4.5-1.2,5.4-4c1.6,4.2,2.1,4.3,4.9,1.5c1.6-1.6,3.1-3.2,5.7-3.1c2.5,0.1,5.1,0.3,6.2-2.8
	c2.6,1.8,3.3,1.5,4.7-1c0.5-1.2,0.8-2.4,0.7-3.7c0.1-4.2,0.2-8.5,3.6-11.8c0.6-0.8,0.9-1.7,1-2.6
	C507.5,396.6,505.5,393.8,504.8,390.6z M464.9,426.2c1.8-1.7,3.8-0.7,6.3-0.9C469.1,427.6,469.1,427.6,464.9,426.2z"/>
<path class="st0" d="M519.3,110.8c-1.7-1.9-3.7-4.3-6.2-4.2c-2.9,0.1-4.3-0.9-5.8-3.1c-1.4-2.2-2.6-1.7-4,0.7
	c-1,1.7,0.1,3.6-0.9,5.6c-1.5-3-4-4.7-6-6.9c-1.2-1.3-2.2-1.2-3.9-0.4c-2.8,1.2-2.5,3.7-3.4,5.7c-2.2,4.9-1,9.4,2,13.6
	c1.9,2.7,4.3,3,6.5,0.7c0.5-0.5,1.1-1.2,1.9-1c1.7,0.5,3.1-0.2,4.7-0.5c1.3-0.3,3-0.7,4.3,0.6c0.9,1,1.4,0.5,1.7-0.5
	c0.5-1.9,1.9-2.4,3.7-2.2c1.8,0.2,3.5-0.9,3.9-2.7c0.5-1.5,0.5-3.1,1.6-4.4C519.7,111.3,519.6,111.1,519.3,110.8z M510.5,117.9
	c-2-1.7-2.3-3.7-2.6-5.7c-0.2-0.7,0.2-1.4,0.9-1.6c0,0,0.1,0,0.1,0c0.5-0.1,1.3-0.1,1.5,0.2c0.4,0.5,0.1,1.1-0.3,1.7
	C508.8,114.2,510.7,115.8,510.5,117.9z"/>
</svg>
