<?xml version="1.0" encoding="utf-8"?>
<!-- Generator: Adobe Illustrator 26.0.2, SVG Export Plug-In . SVG Version: 6.00 Build 0)  -->
<svg version="1.1" id="Layer_1" xmlns="http://www.w3.org/2000/svg" xmlns:xlink="http://www.w3.org/1999/xlink" x="0px" y="0px"
	 viewBox="0 0 367.8 417.2" style="enable-background:new 0 0 367.8 417.2;" xml:space="preserve">
<style type="text/css">
	.st0{opacity:0.1;fill:#FFFFFF;}
</style>
<path class="st0" d="M134.9,417.2c-1.3,0-2.7,0-4,0c-5.7-1.4-8.1-5.8-9.7-10.9c-0.3-1.1-1.1-2.4-0.1-3.3c3.1-2.9,1.1-5.4-0.3-8.1
	c-1.6-2.9-3-6-4.1-9.1c-1.5-4.3-3.5-8.2-6.7-11.5c-2.3-2.4-4.2-5.3-4.9-8.6c-1.7-7.8-3.7-15.6-4.4-23.5c-0.3-3.6-0.9-6.8-2.7-10
	c-4-7.3-7-15.1-12-21.9c-2-2.8-1.6-6.1-1.3-9.2C86,291,87.9,280.9,95,272.5c2.3-2.8,1.8-6,0.4-9c-2-4.2-3.3-8.3-2.1-13
	c0.2-0.6,0.2-1.4-0.1-2c-4.4-8.3-5.6-18.2-13.1-24.9c-4.2-3.8-8.1-7.8-10.6-13.1c-1.2-2.4-1.6-4.6-0.2-7.1c3-5.6,3.2-11.9,4.1-17.9
	c0.7-4.5-4.5-8.5-10.3-8.4c-2,0-4,0.3-5.9,0.8c-4.3,1.1-6.9-0.7-8.9-4.4c-4.6-8.1-6.6-8.8-15.8-7.1c-6.8,1.2-13,4.2-19.4,6.4
	c-4.2,1.5-8.5,3.2-12.9,0.5c0-2,0-4,0-6c1.1-4.6,0.4-9.2,0.5-13.8c0.2-10.6,5-17.2,15.3-19c7.1-1.2,12.8-4.2,17.9-9.1
	c5.2-5.1,11.6-6.3,18.5-4.8c4.4,0.9,8.7,2.2,13.2,2.9c19.1,3.3,33.2-8.6,33.3-27.9c0-6-0.5-11.9,1.5-17.8c2.4-6.8,7.2-9.3,14-6.6
	c4.7,1.8,8.8,4.6,13,7.4c3.3,2.3,6.9,4.1,11,4.4c5.8,0.4,9.6-2.7,10.3-8.4c0.2-1.3,0.5-2.8,0-4c-3.5-10,0.5-19.7,1.2-29.5
	c0.8-10.9,2.6-21.8,1.2-32.8c-0.6-4.8,1.1-6.4,5.8-4.7c8,2.9,16.4,4.3,24.5,6.7c4.5,1.3,8.9,1.5,13-1.1c3.5-2.2,7.1-2.1,11-0.5
	c8.1,3.2,10.7,2.2,14.7-5.4c1-1.9,2-3.2,4.6-3c16.4,1.6,32.9,0,49.3,0.4c12.1,0.3,21.2,5.8,27.5,16.1c0.6,1,1.3,2.1,0.8,3.3
	c-2.7,5.3,0.7,9.2,3.1,13.3c1.9,3.5,6.1,5.2,7.2,9.4c0.2,0.7,1.1,0.7,1.7,0.7c5.5-0.1,6.7,3.6,6.6,8c-0.1,3.9,1.5,3.9,5,4.3
	c8.5,0.8,12.4-5,17.3-9.7c1.1-1.1,2.1-3,4-2.3c2.1,0.7,2.4,2.8,2.2,4.6c-0.5,6.6,2.9,9.8,9,11c5.1,1.1,7.6,5.1,9.7,9.3
	c0,0.3,0,0.7,0,1c-0.7,4.6-4.9,7.4-5.7,12c-0.2,1.2-1.5,1.7-2.7,2.1c-0.9,0.3-2.4,0.7-2.4,1.6c0.3,4.6-3.5,5.7-6.1,8.1
	c-6,5.7-12.8,9.8-20.8,11.9c-2.9,0.7-5.2,2-6.8,4.6c-1.9,3-4.8,4.5-8.2,5.2c-4.3,0.9-8.2,2.7-11.9,5c-4.1,2.5-8.4,4.5-13.4,5.1
	c-5.6,0.6-10.1,5-16.1,5c-1.6,0-2.1,2.8-1.3,4.7c1.4,3.4,4.8,5.4,8.5,4.5c8.6-2,17-4.5,25.9-5.5c1.7-0.2,3.1-1.3,4.5-2
	c4-2,7.1-0.3,7.1,4.1c0,3,0,6.1-1.5,8.8c-7.1,12.8-12.6,26.5-22.4,37.7c-3,3.4-6.3,6.5-10.2,8.7c-7.6,4.2-13.4,10.3-19,16.8
	c-4.7,5.6-10.4,10.3-14.3,16.6c-2.6,4.2-5.3,8.3-1.6,13.2c0.7,0.9,0.7,2.3,0.4,3.4c-1.2,4.1,1.3,8.1,0.4,12.3
	c-0.5,2.2,0.7,5,2.6,6.8c2.9,2.6,3.3,5.9,3.4,9.5c0.1,5.8,0.3,11.6,1,17.4c0.7,6.8-4,12.6-9.8,15.1c-8.6,3.7-14.6,10.2-21.4,16
	c-2.7,2.3-3.6,4.5-2.4,7.8c1,2.8,1.8,5.7,2.7,8.6c2.6,7.6,0.3,13.4-6.6,17.4c-1.3,0.8-2.6,1.5-4,2.1c-3.1,1.4-4.7,3.7-4.4,7.1
	c0.8,8.1-2.1,14.6-8.4,19.8c-2.3,2-3.6,4.8-5,7.4c-6.8,12.8-17.1,21.5-31.2,25.5c-1.4,0.4-3,1.1-4.4,0.7
	C152.8,411.7,144.1,416.4,134.9,417.2z"/>
<path class="st0" d="M304.3,271.7c5.3,4,6.6,9.5,7.4,14.7c0.9,5.4,0.9,11.2-3.9,15.5c-2.2,1.9-1,4.7-1.6,7
	c-3.2,12.9-8,25.3-11.3,38.2c-1.8,6.7-15.2,12.1-19.2,5.1c-3.7-6.3-6.3-13.4-4.9-21.3c0.3-1.8,1.5-3.1,2.4-4.1
	c4-4.2,4.1-8.7,2.8-13.9c-2.7-11-0.4-14.8,10.2-18.7c5.2-1.9,10.2-4.3,10.8-11c0.1-0.9,1.3-1.9,2.1-2.6
	C301.6,278.3,303.8,275.8,304.3,271.7z"/>
<path class="st0" d="M329.1,127.8c2.8-0.4,4.8-1.2,6.5,0.9C333.6,130.7,331.7,130.5,329.1,127.8z"/>
<path class="st0" d="M342.4,329.2c-0.6-0.5-1.6-1-2.1-1.8c-0.2-0.3,0.7-1.3,1.1-1.9c0.5,1,2.5,0.3,2.4,2.1
	C343.8,328.4,343.9,329.2,342.4,329.2z"/>
</svg>
