<?xml version="1.0" encoding="utf-8"?>
<!-- Generator: Adobe Illustrator 26.0.2, SVG Export Plug-In . SVG Version: 6.00 Build 0)  -->
<svg version="1.1" id="Layer_1" xmlns="http://www.w3.org/2000/svg" xmlns:xlink="http://www.w3.org/1999/xlink" x="0px" y="0px"
	 viewBox="0 0 243.4 295.2" style="enable-background:new 0 0 243.4 295.2;" xml:space="preserve">
<style type="text/css">
	.st0{opacity:0.1;fill:#FFFFFF;}
</style>
<path class="st0" d="M243.3,128.9c-1.1,3.5-2.8,6.5-5.9,8.6c-0.9,0.6-1.3,1.6-1.7,2.6c-0.4,1-0.8,2.3-1.8,2.8
	c-2.7,1.4-2.5,3.6-2.3,6.1c0.4,6.6-1.1,12.7-5,18.2c-0.8,1.1-0.9,2.5-1.8,3.7c-1.9,2.4-4.3,2.3-6.7,2.6c-1.6,0.2-3.1,0.5-4.1,2
	c-0.2,0.2-0.5,0.5-0.7,0.5c-3.1-0.7-4.5,1.9-6.4,3.4c-2.1,1.6-2.7,3.8-2,6.4c0.6,2.2,0.3,4.1-1.7,5.5c-0.3,0.2-0.6,0.4-0.7,0.7
	c-2.2,4.8-5.9,8.5-8.9,12.8c-0.3,0.5-0.5,1-0.9,1.4c-3.5,5.3-6.1,6.2-12.2,4.4c-0.7-0.2-1.3-0.8-2.2-0.3c1.3,1.1,3.5,1.7,1.9,4.1
	c-0.2,0.3,0.2,0.8,0.5,1c2.3,1.4,1.3,3.1,0.3,4.7c-2.4,4.2-6.5,5-10.8,5.4c-2.2,0.2-4.5,2.6-4.3,4.8c0.1,0.8,1.1,1.7-0.3,2.4
	c-1.4,0.7-2.8,1.3-4.3,0.7c-0.8-0.3-1.6-0.7-2.5-1.2c-0.5,1.1-0.2,2.2-0.1,3.3c0.1,1.2,0.7,2,2.1,1.4c0.9-0.4,1.6-0.3,1.8,0.8
	c0.2,0.9,0.4,1.8-0.8,2.2c-3,1-4.3,3-4.2,6.2c0.1,1.2-1,1.7-1.9,2.2c-0.8,0.5-1.8,0.7-2.5,1.3c-2.5,1.9-1.8,5.1,1.3,6.4
	c2.4,1,2.8,4.1,0.6,5.6c-2.3,1.6-4.1,3.3-4.1,6.3c0,0.6-0.4,0.8-0.8,1.1c-3.8,3.1-4,4.1-1.7,8.4c0.5,1,1.6,2.1-1.2,1.8
	c1.2,1,2,1.8,2.3,3.1c0.9,3.8,3.6,6,7.1,7.4c0.5,0.2,1.4,0.2,1.2,1.1c-0.1,0.7-0.8,0.9-1.5,0.9c-1.9,0.2-3.6,1.4-5.6,1.4
	c-0.1,0-0.2,0-0.2,0c-2.5,1.4-3.3,1.4-6.1-0.3c-0.4-0.3-1.1-0.1-1.6-0.2c-2.2-0.4-3.3-1.8-3.7-3.9c-0.2-1-1.2-1.6-1.9-1.3
	c-2.1,0.8-2.4-0.7-2.7-1.9c-0.5-1.6-0.9-3-2.8-3.3c-0.4-0.1-0.8-0.6-0.4-1.3c0.8-0.1,1.3,1.2,2.4,0.4c-1.2-0.8-0.9-2.8-3.1-2.9
	c-0.6,0-1.6-2.6-0.9-3.7c0.8-1.2,0.2-1.5-0.1-2.4c-1.4-3.9-1.6-8-0.6-12.1c0.2-0.8,1.1-1.1,1.7-1.6c0.8-0.6,1.6-1.4,1.1-2.4
	c-0.4-0.7-1.4-1.3-2.5-0.7c-0.4,0.2-0.9,0.5-1.3-0.1c-0.2-0.4-0.1-0.9,0.3-1.3c1.3-1.1,1.8-2.8,2.6-4.2c0.5-0.9,1-1.5,0.4-2.7
	c-0.6-1.2,1.3-3.2,2.1-2.4c1.7,1.5,1.4-0.3,1.6-0.8c0.7-2.1,0.3-4.4,1.5-6.4c0.3-0.5-0.1-1.8-1-1.9c-1.1-0.1-0.7,0.9-0.8,1.5
	c-0.1,1.1-0.5,2.1-0.3,3.3c0.2,0.8-0.4,1.8-1.6,1.6c-1.3-0.2-0.8-1-0.9-1.9c-0.1-2.5,1.9-4.8,0.8-7.4c-0.1-0.3-0.1-0.7,0.1-0.9
	c2.1-3.5,1.7-7.1,0.9-10.8c-0.5-2,1.3-3.4,2.1-5c2.7-6.1,4.1-12.3,3.7-19c-0.3-4.2,1.3-8.3,2-12.4c0.4-2,1-4.1,0.8-6.1
	c-0.3-3.3,0.6-6.4,1.1-9.6c1.2-7.8-0.7-11.1-7.9-14.6c-1.4-0.7-2.8-1.2-4.1-2c-2.8-1.7-5.5-3.6-5.4-7.5c0-0.4-0.2-0.8-0.4-1.1
	c-3.7-5.1-5.7-11.1-9.3-16.3c-0.2-0.3-0.3-0.7-0.5-0.8c-2.2-0.7-3-2.2-3.3-4.6c-0.3-2-0.3-3.4,1.5-4.4c1.3-0.8,1.9-1.4,0.5-2.8
	c-1.8-1.9-0.9-4,0.1-5.9c1.9-3.7,4.3-7,7.7-9.4c0.4-0.3,0.8-0.7,0.8-1.1c0.4-3.1,0.7-6.2-0.5-9.1c-0.8-1.9-2.5-3.2-2.9-5.4
	c-0.1-0.8-1.2-1.2-1.7-0.7c-0.9,0.8-3.1,0.9-2.4,2.7c0.6,1.6-0.4,1.5-1.1,1.6c-1.1,0.2-2.1-1-3.3-0.3c0,0-0.5-0.4-0.4-0.5
	c0.9-2.7-1.2-1.6-2.2-1.8c-1.4-0.3-2.8-0.3-3.2-2.1c-0.3-1.4-1.6-2-3-1.8c-2.2,0.3-2.9-0.7-2.7-2.7c0.1-0.9-0.2-1.7-0.8-2.4
	c-2.9-3.1-6.1-5.8-10.6-6.2c-3.4-0.3-6.2-1.7-8.5-4.3c-2.1-2.4-4.5-4-7.9-1.9c-1.8,1.1-3.7,0.2-5.5-0.4c-5.5-1.9-10.5-4.7-15.8-6.9
	c-1.9-0.8-3.5-2.2-5-3.6c-1.1-0.9-1.5-2-0.9-3.4c0.9-2.2,0.3-4.1-1.1-5.7c-2.7-3.1-5.1-6.6-8.8-8.7c-0.5-0.3-1-0.7-0.9-1
	c0.6-3-2-3.9-3.6-5.4c-1.5-1.4-2.3-3.8-4.9-4c-0.5,0-0.4-0.5-0.3-0.8c0.4-2.4-1.3-4.2-1.9-6.3c-0.4-1.6-2-1.7-3.2-2.1
	c-0.7-0.2-1.4,0.4-1.1,1.1c0.9,2.1,0.1,5.3,3.8,5.4c0.6,0,0.8,0.8,0.8,1.3c0,2,1.2,3.5,2.3,4.8c2.3,2.6,3.7,5.5,4.7,8.7
	c0.2,0.7,0.3,1.1,1.2,1.2c1.6,0.2,1.8,1.9,2.3,3c0.3,0.7-0.6,1.4-1.3,1.8c-0.8,0.4-0.8-0.3-1.1-0.8c-1-1.8-2.5-3-4.5-3.7
	c-1.3-0.5-1.9-1.1-1.4-2.7c0.6-1.9-0.5-4.1-2.5-4.4c-2.4-0.4-3.8-2.1-5.7-3.8c1.3-0.2,2.6-0.1,2.8-1.5c0.1-1.1-0.9-1.7-1.6-2.1
	c-2.5-1.6-3.7-4-4.8-6.7c-0.9-2.4-1.8-4.7-3.3-6.8C10,7.7,8.5,6.4,6.5,6C3.8,5.4,2.3,3.6,1.1,1.1c9.2-0.6,17.2,2,24.5,7.2
	c6.9,4.9,13.2,10.5,20.4,15c6,3.7,12.7,5.4,19.6,6.3c3.7,0.5,3.8,1.7,2.7,4.7c-2,5.7-2,11,2.2,15.8c0.4,0.4,0.5,1,0.8,1.5
	c1.7,2.9,4.7,4,7.9,3.1c0.5-0.2,1.1-0.4,1.6-0.5c5.3-0.9,5.5-1.1,6.4-6.2c0.1-0.7,0.3-1.4,1-1.4c2.6-0.3,5.1-1.4,7.8-1.1
	c0.9,0.1,1.7,0.3,2,1.3c0.2,1,0.2,1.9-0.8,2.5c-0.4,0.2-1,0.2-1,0.9c0.1,3.6-2.6,6.5-2.7,10c0,0.6-0.3,1.2-0.6,2
	c2.5,0.4,4.9,0.1,7.2-0.1c1.4-0.2,2.8-0.3,4.2,0.2c3.3,1.1,4,2.4,3,5.7c-0.8,2.7-0.4,5.5-0.9,8.3c-0.2,1,0.6,1.8,1.3,2.4
	c1,0.9,2.2,1.6,3.2,2.5c1.5,1.5,3,1.4,4.7,0.3c2.4-1.6,4.8-1,7.2,0.2c0.8,0.4,1.1,1.8,2.3,1.2c1.3-0.6,2.7-1.5,3-2.9
	c0.6-2.9,2.4-3.8,5-4.2c2-0.3,4-1,5.4-2.7c0.7-0.8,1.7-1.2,2.5-0.3c0.9,0.9,0.5,1.7-0.7,2.1c-0.4,0.1-0.6,0.5-0.5,0.9
	c0.2,0.7,0.7,0.3,1.2,0.3c2.8,0.2,2.5-2.4,3.7-4.4c0.1,2.7,2.5,2.7,3.5,3.8c1.9,2.1,3.7,2.3,6.1,1.8c0.9-0.2,1.6,0.5,2.3,1.1
	c1.5,1.1,2.8,0.8,3.3-0.9c0.6-1.8,1.3-2.1,2.6-0.8c1.4,1.4,3.1,0.8,4.7,0.5c1.5-0.3,3.3-1.3,2.5,1.9c-0.4,1.4,0.4,3.1,2.1,3.9
	c2.4,1.1,4.4,2.6,5.8,5c1.4,2.4,3.8,2.9,6.4,2.7c4.8-0.3,8.9,0.9,12.3,4.5c0.7,0.7,1.3,1.5,1.4,2.5c0.2,1.7,0.9,3,2.3,4
	c1,0.7,1.5,1.7,0.6,2.9c-0.8,1-0.4,1.8,0.6,2c2.3,0.7,4.2,2.1,6.7,2.6c3,0.5,6.6,0.7,8.2,4.3c0.2,0.4,0.5,0.8,1.1,0.6
	c1.7-0.6,3.3,0.1,4.9,0.6c1.6,0.4,3.2,0.8,4.9,0.5c1.6-0.3,3.1,0.4,4.4,1.5c2.8,2.3,5.3,5.2,9.4,5c0.8,0,1.1,0.9,1.4,1.5
	c0.4,1.1,0.7,2.2,1.1,3.3C243.3,127,243.3,128,243.3,128.9z"/>
<path class="st0" d="M133.1,49.4c-3.3,2.5-7,0.6-10.3,1.9c-0.3-1.2,0.8-1.4,1.2-2.2c-3.1-1.3-5.6-3.9-9.2-4.4
	c-0.9-0.1-1.7-0.3-2.5-0.7c-0.5-0.2-2.1,0.7-1.5-1.2c0.1-0.3-1.9-0.1-3,0.3c-1.5,0.7-2.6,2.5-4.8,1.8c0.8-1.9,2.2-3.3,4.1-3.6
	c4-0.6,8.2-1.9,11.7,1.5c0.1,0.1,0.2,0.3,0.4,0.3C124.7,43.3,128,48.4,133.1,49.4z"/>
<path class="st0" d="M146.5,55.7c-0.5-0.1-0.8-0.1-1-0.2c-2.1-0.4-3.7,1.9-5.3,1.5c-1.8-0.5-3.3-1.8-5.3-0.9
	c-0.5,0.2-1.1,0.1-1.7,0.1c-0.7-0.1-1.6-0.6-1.5-1.3c0.1-0.9,1.1-0.8,1.8-0.5c1.8,1,1.3-1.2,2.3-1.6c0.8-0.3-0.1-0.9-0.7-1.1
	c-0.5-0.2-0.5-0.5-0.2-0.9c0.5-0.6,1.3-1.4,2-0.8c1.4,1.3,3,0.8,4.5,0.7c3-0.1,5,1.8,7.3,3.2c0.4,0.3,0.6,0.7,0.4,1.2
	c-0.2,0.6-0.7,0.5-1.2,0.5C147.4,55.6,146.8,55.7,146.5,55.7z"/>
<path class="st0" d="M169,276.5c1-0.2,2.3-0.1,2-1.8c-0.1-0.4,0.4-0.7,0.8-0.7c1.8,0,3.6-0.1,5.4,0.1c1,0.1,2.1,0.6,1.3,2
	c-0.7,1.3-4.3,2.7-5.6,2.1c-0.4-0.2-0.8-0.3-1.3-0.3C170,278.2,170,278.2,169,276.5z"/>
<path class="st0" d="M234.1,287c3.1-0.7,5.1,0.2,5.9,2.1c0.2,0.5,0.5,1.1,0,1.5c-0.6,0.4-1,0-1.3-0.5c-0.5-0.9-1.2-1.4-2.1-1.9
	C235.7,287.9,234.9,287.5,234.1,287z"/>
<path class="st0" d="M124.5,57.1c-1.2,0.3-2.2-0.5-3.2-1.3c-0.3-0.2-0.3-0.9,0.1-1c1.1-0.3,2.3-0.4,3.5,0c0.4,0.1,0.7,0.3,1.1,0.4
	c0.5,0.2,1.1,0.3,1,1c-0.1,0.9-0.8,0.8-1.4,0.8C125.3,57.1,125,57.1,124.5,57.1z"/>
<path class="st0" d="M85.7,109.9c-1.9,0.4-1.2-1.5-1.8-2.2c-0.3-0.4-0.2-1.1,0.5-0.9c1.3,0.4,3.2,0.3,3.6,1.8
	C88.3,109.9,86.5,109.5,85.7,109.9z"/>
<path class="st0" d="M157.7,55.9c-1.5,0.7-3,0.5-4.5,0.6c-0.6,0-0.9-0.2-1-0.8c0-0.5,0-1,0.6-1C154.5,54.6,156.3,54.1,157.7,55.9z"
	/>
<path class="st0" d="M124.9,31.3c0,0.5,0,1.3-0.7,1.3c-1,0-0.4-0.7-0.4-1.2c0-1-0.6-1.4-1.6-1c-0.6,0.2-1.2,0.2-1.8,0.4
	c-0.5,0.2-1,0.1-1.1-0.5c-0.1-0.8,0.5-0.5,1-0.6c0.8-0.1,1.5-0.3,2.3-0.5C124.2,29,124.7,30,124.9,31.3z"/>
<path class="st0" d="M121.9,34.5c1.2,1,1,2.6,1.6,3.9c0.1,0.2-0.1,0.7-0.3,0.8c-0.2,0.1-0.6,0-0.9-0.2
	C120.9,37.6,120.9,36.1,121.9,34.5z"/>
<path class="st0" d="M169.4,61.6c-0.2,0.5-0.2,1.1-1,0.8c-0.5-0.2-1.2-0.2-0.9-1c0.1-0.5,0.1-1.1,0.9-1.1
	C169.2,60.4,169.3,61,169.4,61.6z"/>
<path class="st0" d="M136.5,45.5c0.1,1.4-0.4,2.2-1.4,2.3c-1,0.1-1.6-0.5-0.5-1.2C135.2,46.3,135.7,45.8,136.5,45.5z"/>
<path class="st0" d="M132.2,42c0.9-0.1,1.7,0,1.7,1c0,0.4-0.3,0.8-0.7,0.8C132,43.7,133.1,42.3,132.2,42z"/>
<path class="st0" d="M109.3,45.3c0.1,0.6-0.2,0.9-0.8,1c-0.7,0.2-0.8-0.3-0.9-0.8c0-0.5-0.1-1,0.6-1
	C108.8,44.6,109.3,44.7,109.3,45.3z"/>
<path class="st0" d="M126,34c2.2,0.4,1.3,1.8,1.2,2.8C126.8,35.9,126.5,35.1,126,34z"/>
<path class="st0" d="M128.3,36.1c0.9,0.3,1.5,0.9,1.4,1.8c0,0.1-0.3,0.2-0.4,0.2C128.2,37.9,128.6,36.8,128.3,36.1z"/>
<path class="st0" d="M145,283.9c-0.8-0.5,0.2,3.3-2.1,1.4c-0.4-0.3-1.2-0.3-1.1-1.1c0.1-1.1,0-2.3,0.9-3c0.4-0.4,1,0.1,0.8,0.6
	C142.4,284.2,143.7,284.1,145,283.9z"/>
<path class="st0" d="M141.3,80.2c0,0.7,0,1.3-0.8,1.3c-1.2,0-1.3-1-1.5-1.8c-0.2-0.5,0.3-1.2,0.9-1
	C140.8,78.8,141.2,79.4,141.3,80.2z"/>
<path class="st0" d="M197.9,196.1c0.1,1.7-0.7,2.7-1.5,3.6c-0.3,0.3-0.7,0.5-1,0.1c-0.5-0.5,0-0.8,0.3-0.9
	C196.8,198.5,196.5,197,197.9,196.1z"/>
<path class="st0" d="M130.9,275.3c0.5-0.7,0.8-1.6,1.9-1.4c0.4,0.1,0.6,0.6,0.4,0.9C132.7,275.8,131.9,275.8,130.9,275.3z"/>
<path class="st0" d="M165.3,78.4c0.9-1,1.7-0.9,2.7-0.6C167.4,79,166.5,79,165.3,78.4z"/>
</svg>
