<svg id="Layer_1" data-name="Layer 1" xmlns="http://www.w3.org/2000/svg" viewBox="0 0 362.17 470.34"><defs><style>.cls-1{opacity:0.1;}.cls-2{fill:#fff;}</style></defs><g class="cls-1"><path class="cls-2" d="M361.78,36.19c-1.7-1.6-7.5-.3-9-1.3s.8-6.6-.2-8-8.5-3.2-10.2-5-1-8.8-3-11-13.5-2.8-17.7-.3c-1.5.8-15.2,1.8-24,0-6.4-1.3-19.4-.3-27.7,2-7,.5-17.3,5-22.2,6.8s-12.9,9.5-14.8,12.5a20.37,20.37,0,0,0-2.7,11.3c.3,3.5,1,14.7-.7,17s-4.3,2.9-3.3,5.8,7.7,5.2,11,5.7,3.6-1.4,5.3-1.2,6.2,1.1,6,2.3-6.2,5.7-7.8,7.2-2.2,11.5-1.2,13.5,5.5,5,7.5,5.3,14.5-1.7,18.8-.7c2,.7,2.6,2.4,0,2.7,0,0-9.5.3-11,2.2s1,9.9,0,12.2-6,10.3-8,10.3-12.3,4.9-13.3,5.3c-1.8.7-2,7.8-3.5,7.3s-10.2.5-12.5-.3-5.2-5.2-6.3-6.3-9.9-4.5-11.7-5.3-7.1.2-7.4-1.5,8.3-9.5,11.1-13.5c1.1-1.5-4.3,1.5-4.3.7s1.6-2,1.3-4.7-2.2-15.7-1.2-16.5,11.2,2.4,12.9,1.2,4.1-3.7,5.7-5,1-6.1,0-7.3-8.6.4-10.1-.9.8-8.4.5-12.4-1.8-6.9-2.3-9-2.3-2-4-1.7-5.8,4.7-8,4.7-3-.3-4.5-2.5.8-7.1-3.2-7.8-5.2,9.7-6.3,12.3-3,7.4-5.3,13-5.2,21.2-8.7,29.7-12.8,25.8-16.8,30.3a83.71,83.71,0,0,1-10.2,9.7,81.51,81.51,0,0,1-7.3,5c-1.7,1.1-4.7,5.3-4.7,5.3a9.82,9.82,0,0,0-7,1c-3.3,2-3.5,2.9-2.3,6.5.8,3.1,2.2.9,2,2.3s-.6,7.9.7,8.7c3.5,3.1,4.6,3,8.7,7.3a36.47,36.47,0,0,0,8.3,6s6.2,3.8,8.3,5,13.8,1.2,13.8,1.2-2.2,3.4-5.2,3.4-11.1-1.7-12.8-2-.8,4.6-.8,4.6-9,1.2-11,1.2-4.5-3.8-7-4.5-2.4,5.8-5.7,6-4.3-1.2-6.6-.2,3.7,7,7.2,7.3,11.3,5.2,12.1,9.1-1.9,3.9-4.1,3.6-8-.6-11-2.8-1.1-8.1-3.8-10c-2.5-1.7-6.3-1.6-7.6-2.5-2.7-1.9.5-5-3.4-7s-16.4-2.1-19.8-1.5a51.76,51.76,0,0,0-8.5,2.3c-2.6,1,.3,5.7.3,5.7s2.5,6.5,5.7,7.7,6.8-1.2,8,.3.7,3.5,3.3,4.7,6.9,3.1,9,4,3.9-5.9,7-5.7,6.7,2.7,6.7,2.7.7,4.1,3.5,5.1,8.8,1.5,8.8,1.5,5.2,4.5,3.1,5.5-5.6-2-5.6-2-3.8,3.5-5.8,2.2-5.2-8-8-7.8-3.9,5-6.8,5-2.9,0-9.5-1.2-9.6-6.9-14-8.8c-3.47-1.5-9.65-.82-13.4-.32a4.56,4.56,0,0,0-2.5-.08c-5,1.2-17,5.4-24.3,8.1C31.7,228.77,20.28,235.1,16,237.6c-3.14,1.44-13,6.33-14.42,7.19-2,1.2.2,6,1.5,8.3s-1.2,8.5-2.5,11.5-.4,5.2,2.5,10.5c.9,1.7,1.6,2.8,2.8,5.5,2.6,5.9,2.3,11.1,5.8,11.9,4.8,1.3,4-2.8,7.3-4.4s12.5-.8,15.8,2.2c3.8,4.6,4.3,13,4.3,13s-1.4,11.6-.2,14.2a9.27,9.27,0,0,0,7.5,4.7c2.7,0,5-4.8,9-4.5,4.7,1.3-1.1,4.5,1.2,6s7-.3,9.3,4.5-.3,8.3,0,11.5.8,5,3,6,6.7-2.8,9-3,2.3,3,4.5,3,5-2.5,7.3-1.2S103,354,103,358.29s-6,6.7-5.8,10.7,5.5,6.9,5.3,9.6-6.2,3.7-7.7,7,.5,4.8,2.3,6.7,28.3,5.7,34.2,1.8c3.7-2.2,3.8-6.2,5.2-9.5s11.2-10.3,13.8-9.5,1.8,4.9,0,10.2-7,10.7-7.3,11.7c-.7,2,5.8,8.7,7.3,9.7s-4.3,1.7-5,4-2.7,7.2.3,8.5,9.7,2.2,13.7,8c1.5,2.3,10.7,3.5,16.8,9.8s8.5,19.7,10.2,20.7,19.7-1.5,24.5,0l.36-.14c5.72,6,17.36,10.34,21.64,9.64s6.3-3,8.3-4,10,9.4,12.7,6.7c2-5.7,3-18.3,6-22s7.8-9.3,7.8-9.3,3.1-4,1.8-7-6.6-1-10.3-3.7-4.8-4.6-8-7.7c-.7-6.3-3.5-13.6-5-18a87.74,87.74,0,0,1-2.6-12.4v-.05c2.93-2,7.48-10.45,11.11-12.65s11-4.7,11.8-6-.5-5.5-1.7-7.3,2.6-2.8,2.5-6.5c-1-5.2-8-6-12-10s6.7-5,6-10c0-2.7-6.7-3.3-8.5-4.5s.2-4.2-1-7c-1.07-2.49-5.76-6.47-6.79-7.33a.31.31,0,0,0,.09-.07c1.8-1.8-.9-6.1.8-8.8s2.9.1,4.2-2.2-.2-6.8-.2-6.8l-1-4.8-2.2-3.8-6.8-.9v-7.7s6.8,1.3,8.1-.2,12.8-8.4,13.5-10.5a5.87,5.87,0,0,0-.6-4.3l-6-1.7s-2.5-1,.3-5,12.4-10.3,12.7-13.3-.4-3.7-.7-7,2.6-9.2,2-11.7-7-7.5-7.3-9.7,1.5-7.7.7-9-3.8-1.6-4.7-2,.8-4.5,0-6a32.08,32.08,0,0,0-3-4c-.9-1.1-1.1-5.5.3-6.3s12.4,1.8,13.7,1-1.6-6.2.3-6.7,8.7,8,15.2,8.3c3.7.1,11.2-.2,14.2-1.7s4-4.2,6.7-4a50.52,50.52,0,0,1,6.7,1.2s7.5-8.7,7.3-11.5-8.1-4.3-8.3-7.5,9.5-7.1,11.3-7.8.5-2.4,3.3-4.7,13.7-8.2,15-10.7c1.3-1.9-1-2.4-1.6-3.8s4.7-9.4,4.7-9.4-1.4-10-3.9-10.5-5.1,1.1-7.2,2-4.1-.4-7.3-.7-8.3-1.7-9.3-3.7-1.4-5.1.3-6.3a7.58,7.58,0,0,0,3.3-5.3c.5-2.7.5-2.5-1-6.5,3.6-2.8,21,1.4,24,.4s1.8-12.9,3.6-16.9,8.3-12,8.3-12,3.9-12.4,4.7-15,.1-15.1,0-17S363.48,37.89,361.78,36.19Z"/><path class="cls-2" d="M113.48,177.49c1.5.5,1.5,6.8,3,8.7s9.1,6.6,11,8,9.3,2.8,9.3,1.3-11.5-11.5-13.3-14-6.9-4.5-8.2-5.3-.2-2.3-2-3.3-7.8,0-9,1a3.89,3.89,0,0,0-1,4.5C104.08,179.79,112,177,113.48,177.49Z"/><path class="cls-2" d="M91.38,188.19c1.8,1.3,7.2-.7,8.7-.3s3.8,7.3,5,8.3,6.3,1.1,7.5,1.1,3.8-1,3.8-2.5-3.1-2.3-4.5-3.5.2-3.1-1.3-5-5.1-3.4-7.7-3.7-9-.9-12.8-.1C87.88,183,89.58,187,91.38,188.19Z"/><path class="cls-2" d="M247.48,119.69c1.5-1,5.9-3.9,5.9-6s-.1-7.1-1.6-8.9-9.7-4-11.6-4-7.1,1-9.1,3.4-4.9,5.8-4.9,5.8-18.8,10.3-21.9,12.1c-.6,1.1-.1,1.5,0,2.8s5.8,2.9,7.9,3.4,6.5,6.2,7.9,7.2,5.2.6,7.1,0a4.18,4.18,0,0,0,3-2.9c.5-1.3-.6-2-.2-3.8C234.88,124,246,120.69,247.48,119.69Z"/><path class="cls-2" d="M200.28,21.09c.6-.3,13.5-8,13-8.5s-1.3-.2-2.7,0-12.7,7.5-13.3,8.5C197.28,21.79,199.68,21.39,200.28,21.09Z"/><path class="cls-2" d="M221.68,9s1-1.2,2.3-2.6c.8-.9,10.7-.9,15.4-2.4,2.1-.7,6-3.3,5.6-3.8s-8.8,2.8-8.8,2.8-7.5-.4-8.8-.4-7.1,2.2-7.8,2.8-.4,3,0,3.6S221.68,9,221.68,9Z"/><path class="cls-2" d="M189.08,45.39c.3-.5-.5-1.5.1-2.2s6.3-4.1,7.5-5.9c.7-1.4.7-4.8.7-6.2s-.8-4.6-1.7-4.6c-1.5-.6-13.1,13.5-13.1,13.5a20.79,20.79,0,0,0,.8,5.7C183.68,47.19,188.78,45.89,189.08,45.39Z"/><path class="cls-2" d="M257,3.79a87.56,87.56,0,0,1,8.9,0c1,0,4.5-1.8,4.2-2.4s-8.2,1.7-12.5,0a6.65,6.65,0,0,0-4.1-1.2c-1.2,0-1.2,1.5-1.2,2.2S255,4,257,3.79Z"/><path class="cls-2" d="M287.18,2.89c1.5,0,2.8-1.5,3.8-1.4s6.3,0,7.2-.5.9-.5.5-.8-8-.2-9.2,0a5.36,5.36,0,0,0-2.3,1.2S286.78,2.89,287.18,2.89Z"/></g></svg>