<svg id="Layer_1" data-name="Layer 1" xmlns="http://www.w3.org/2000/svg" viewBox="0 0 125.71 125.93"><defs><style>.cls-1{fill:#fff;opacity:0.1;}</style></defs><path class="cls-1" d="M123.71,116.18c-3.14,2.22-6.2,0-9.19.48-2,.33-4-.3-4.9,2.78s-4.31,3-6.37.16c-1.4-1.89-3.46-2.58-5.21-1.74-2.05,1-3.7,1.77-6.08,1-1-.33-2.75.65-1.09,2.4.84.88,1.83,1.75-.13,2.46-1.33.48-2.74,2.57-3.92-.22-.58-1.37-1.73-2.25-3.15-1.69s-.63,1.82-.39,2.94c.42,1.92-1.24,1-1.68.8-5.47-1.91-10.89-4-16.35-5.92A2,2,0,0,1,64,116.84c.83-2.35,1.89-4.64-.25-6.79-3.33-3.33-6.38-7.3-11.69-7.24-2.3,0-4.16-.72-4.94-2.54-1.74-4.07-5.3-5.41-8.91-6.87,1.64-5.37-3.23-5.82-5.94-8a6.86,6.86,0,0,1-2.42-3c-1.52-4.07-3.33-4.18-6.45-.59a7.63,7.63,0,0,0-.86,1.74c-1.29-.71-1.45-2.14-2.1-3.25-2-3.42-5.86-7.4,2.33-7.93a3.19,3.19,0,0,0,2.2-1.78c2.15-5.79,6.55-8,12.36-8.25a23.13,23.13,0,0,0,4-1.13c-9.83-1.58-17.9-5.73-26.91-5.69-1.88,0-2.92-.76-3.56-2.7C8.59,46.06,5.65,39.57,1,34A3.73,3.73,0,0,1,.5,29.51C3.62,22.35,6.16,15,3.6,7c-.64-2-.51-3,2.07-3A63,63,0,0,0,27.06.7c1.2-.41,2.68-1.48,3.4.27,1.72,4.2,4.75,3.29,7.71,2.12,4.56-1.81,7-.34,8.32,4.31,1.78,6,3.62,12.07,4.34,18.36.56,4.81,2.32,7.88,7.63,9.52C69.62,38.71,77,47.13,82.72,56.87c2.81,4.79,6,8,12,8.13,8.3.14,16.53.87,24.22,4.71s9.1,10.2,3,16.34c-2.71,2.72-4.87,5.28-4.09,9.39a2.35,2.35,0,0,1-1,2.4c-5.94,5.2-5.15,11.64,1.77,15.83C120.05,114.57,121.71,115.21,123.71,116.18Z"/></svg>