<svg id="Layer_1" data-name="Layer 1" xmlns="http://www.w3.org/2000/svg" viewBox="0 0 181 80"><defs><style>.cls-1{fill:#fff;opacity:0.1;}</style></defs><path class="cls-1" d="M192.91,51c0,11.47-.08,22.94.06,34.41,0,2.15-.41,2.58-2.56,2.56-13.15-.13-26.31-.06-39.46-.06-.42-2.2,1.58-3,2.44-4.46-3.12.81-6.95.41-8.44,4.46q-64.68,0-129.37.08c-3,0-3.6-.6-3.58-3.58.16-22.77.09-45.55.09-68.33C16,16,17.28,19,17.75,21.83s1.92,4.13,3.77,5.9C26.7,32.68,32,37.14,38.62,40.34c5.22,2.51,8.51,7.86,11.56,12.76,2.48,4,.28,8.06-4.34,9.83s-9.4,1.26-15.18.87c3.3,4,7.08,5.28,10.52,6.84,1.7.77,2.16-1.06,2-2.47-.22-3,1-4.63,3.94-5.39,2.62-.67,3.44-3.47,5.23-5.13,2.4-2.22.65-4.17-.07-6.3a4.59,4.59,0,0,1,1.35-5.43c1.64-1.32,3.62-1.15,7.36.55a18.58,18.58,0,0,0-6.73-5c-2.24-1.11-4.55-2.16-5.75-4.56-.8-1.58-2.35-1.64-3.78-2-4.44-1.25-7.78-3.71-8.91-8.46a11.24,11.24,0,0,0-4.51-6.36A12.1,12.1,0,0,1,26.28,9.31a4.8,4.8,0,0,1,.79-1.2c53.82,0,107.63.06,161.45-.11,4,0,4.54,1.14,4.48,4.69-.24,12.44-.09,24.88-.09,37.32-2.67-.13-2.52-2.68-3.52-4.19-1.32-2-2.66-4.36-5.27-3.92-7.78,1.3-14.47-1.64-20.84-5.22-7.43-4.17-14.21-2-20.76,1.48-3.15,1.69-6.08,3.3-9.74,3.19-1.5,0-3.24,0-4.29,1-4.37,4.2-9.92,4.11-15.35,4.69-1.19.12-3.33,0-3.21,1.54.15,2-1.42,4.63,1,6,4.63,2.53,1.83,4.12-.94,6.11,5,.93,5,4.93,5.58,8.39.61,3.77,1.5,4.45,5.31,3.15a5.6,5.6,0,0,1,5.6,1.16c2.61,2.14,4.89,2.45,7.22-.49,2.61-3.29,6-2.12,8.5-.28,4.74,3.46,8.9,4.2,14,.36,3.38-2.57,8.19-.43,10,4,.77,1.9,1.42,2.68,3,1.27,3.83-3.39,7.92-6.62,9.4-11.88C180.74,58.84,186.52,54.64,192.91,51Z" transform="translate(-12 -8)"/><path class="cls-1" d="M192.91,51c-1.15,1.17-2.22,2.44-3.46,3.51-4.36,3.8-8,7.6-10,13.62A22.75,22.75,0,0,1,165.2,81.9c-1-2.77,1.88-6.83-3.36-8.11-2.42-.58-4-1.09-6.14.76-4.64,4.06-7.51,3.61-12.71.1-2.84-1.92-6.47-5.79-9.42.74-.81,1.78-3.86,2.58-6.4.35-5.25-4.61-6.58-4.15-7.84,2.63-1.9-2.21-1.45-6.72-5.85-5.65-.09,0-.46-.7-.44-.72,3-2.24.44-5,.6-7.49s-2.32-2.37-4.17-2.53c-1-.1-2.46.46-2.48-1.47s1.37-1.56,2.43-1.5c1.88.11,3.23-.36,3.65-2.81-5,.54-4.38-1.56-4.55-5.72-.23-5.57,3.75-5,5.7-5.16,4.43-.33,9,.84,12.15-3.58a1.76,1.76,0,0,1,1.32-.62c8.71.77,15.23-5.42,23.14-7.45,6.63-1.7,11.27,1.07,16.35,3.29,5.29,2.31,10.08,5.37,16.34,3.28,2.39-.8,4.7.93,6,3.25,1.2,2.14,2.26,4.34,3.39,6.52Z" transform="translate(-12 -8)"/><path class="cls-1" d="M27.06,9.15c.55,4.44,1.62,8.45,6.19,10.75A6.81,6.81,0,0,1,37,25.39c.23,4.78,3.65,8.11,7.11,7.87,5.22-.36,4.94,4.71,8.29,6,3.53,1.33,7.28,2.93,9.66,6.29.81,1.16,3.35,1.94,1.08,3.86s-2.13-1-2.84-1.78c-1.94-2-4.33-2.44-6.17-.93-2,1.62-1.74,4.22.23,6,2.21,2.05,2.28,3.23-.45,5.13-2.9,2-3.4,7-8.55,6.58-1.32-.1-1.81,2.12-.7,3.64,1.3,1.79-.09,3.3-.93,4.41-1.22,1.59-3,0-3.86-.68-2.58-2.06-5.62-3.22-8.46-4.71-1.77-.92-2.87-1.84-2.06-3.67.66-1.49,2-1.69,3.73-1,4.33,1.61,8.76.54,13-.52s5.65-6.44,2.27-9.92c-4.76-4.88-8.06-11.42-15.73-13.23-4.32-1-6.91-5.36-10.06-8.28-2-1.83-3.51-3.48-6.12-3.61,1.86-5.09-.46-8.22-4.31-10.74v-1Q17.48,6.87,27.06,9.15Z" transform="translate(-12 -8)"/><path class="cls-1" d="M145,87.92c-1.42-3.43.84-4.59,3.45-4.9s5.1,0,7.36-1.82c-.94,2.9-3.06,4.67-4.81,6.72Z" transform="translate(-12 -8)"/><path class="cls-1" d="M27.06,9.15c-6.24-1.15-10.39,2.93-15,5.94,0-7,0-7,7.17-7h7.81Z" transform="translate(-12 -8)"/><path class="cls-1" d="M69.61,43.89a49.94,49.94,0,0,1,18.31,6.76c4.69,2.82,8,8.78,12.29,13.09,1.36,1.38,3.12,2.41,3.85,4.42.33.91,1.11,1.68-.18,2.34-1.07.54-1.28-.57-1.75-1.08-1.95-2.12-2.38-6.23-7.08-4.56C92,66,89.82,68.93,90.66,72.18a32.77,32.77,0,0,1,.48,4c-3.63-3.1-8-4.44-9.51-9a1.92,1.92,0,0,0-2-1.23c-5.24.35-5.26-2.16-3.77-6.16.53-1.42,1.1-3.92-.74-5.06C71.17,52.34,69.85,48.61,69.61,43.89Z" transform="translate(-12 -8)"/><path class="cls-1" d="M109.71,83.14c-3,4.26-6.47,2.6-9.45,2.42-1.33-.08-2.55-1.27-3.9-1.52s-3.22-.4-3-1.69c.26-1.63,2.47-2,3.72-1.3C100.8,83,104.83,82.92,109.71,83.14Z" transform="translate(-12 -8)"/></svg>