<?xml version="1.0" encoding="utf-8"?>
<!-- Generator: Adobe Illustrator 26.0.2, SVG Export Plug-In . SVG Version: 6.00 Build 0)  -->
<svg version="1.1" id="Layer_1" xmlns="http://www.w3.org/2000/svg" xmlns:xlink="http://www.w3.org/1999/xlink" x="0px" y="0px"
	 viewBox="0 0 236.9 207.9" style="enable-background:new 0 0 236.9 207.9;" xml:space="preserve">
<style type="text/css">
	.st0{opacity:0.1;fill:#FFFFFF;}
</style>
<path class="st0" d="M236.9,55c0,0.7,0,1.3,0,2c-1,7.9,0,15.9-1.6,23.7c-1.3,6.6-2.4,13-0.2,19.6c0.7,2.2,0.4,4.6,0,6.9
	c-1,6.2-5.6,10-11.8,10c-4.9,0-9.1-1.9-13-4.5c-3.9-2.5-7.7-5.3-12-7.1c-6.3-2.7-9.7-1.1-11.7,5.3c-1.6,5.1-1.3,10.2-1.1,15.3
	c0.9,20.5-15.7,35.8-38,31.1c-4.1-0.9-8.1-2-12.2-2.8c-6.1-1.2-11.6,0-16.1,4.5c-5.3,5.1-11.3,8.3-18.8,9.5
	c-8.7,1.3-13.5,7.5-13.9,16.4c-0.2,4.8,0.1,9.7-0.1,14.5c-0.2,4.6-1.4,5.8-5.8,5.4c-7.1-0.7-13.8,1.1-20.5,2.9c-2.3,0-4.7,0-7,0
	c-3-1-5.6-2.7-8.1-4.6c-5.4-4.1-10.4-8.8-16.6-11.7c-2.6-1.2-4-3.4-4.6-6.1c-2.1-8.3-7-13.8-15.8-15.4c-1-0.2-1.5-0.8-1.7-1.6
	c-1.3-5.4-5.5-9.9-4.6-16c0.3-1.6-0.5-3.2-1.5-4.6c0-0.7,0-1.3,0-2c3.3-5.2,4.9-11.1,5.5-16.9c0.7-6.1-0.2-12.4-3.3-18
	c-1.8-3.2-1.7-6.4,0-9.5c3.1-5.4,4.6-11.9,9.7-16.1c0.9-0.7,1.2-2,1.6-3.1c3.1-9.7,9-16.8,18.3-21.1c3.7-1.7,6.6-4.4,9.2-7.5
	c1.7-2,2.5-4.1,2.1-6.9c-1.2-9,3.2-15.7,10.3-20c5.3-3.3,8.9-7.1,10.8-13c1.7-5.2,3.7-5.7,8-2.3c2.2,1.7,4.3,2.3,6.9,1.7
	c1.1-0.3,2.4-0.6,3.5-0.2c5.7,2.5,9.9-0.6,14.8-2.9c11-5.3,22.3-9.9,34.9-7.4c7.6-2.8,15.9,0.2,23.5-2.5c1.3,0,2.7,0,4,0
	c0.6,0.3-0.2,0,0.4,0.3c2.7,1.1,4.8,4.6,4.6,7.7c0,0.9,0.2,1.7,0.7,2.4c2.2,3.5,1.5,6.6-1.3,9.5c-1.9,2-0.9,2.9,0.9,4.6
	c4.6,4.4,10.1,5.4,15.9,6.1c5.2,0.6,9.7,2.4,12.2,7.4c1.1,2.2,3.2,2.8,5.4,3.2c3.9,0.8,7.6,2.3,11,4.5c4.8,3,7.6,1.4,7.6-4.2
	c0-6.4,5-11.3,11.3-11.2c4.8,0.1,7.2,2.4,8.3,7.8c0,0.7,0,1.3,0,2C236.1,45,236.1,50,236.9,55z"/>
<path class="st0" d="M236.9,55c-1.6-5-1.7-10,0-15C236.9,45,236.9,50,236.9,55z"/>
<path class="st0" d="M17.4,63.7c2.1-2.2,2.2-5.7,5.1-7.4C22.7,59.6,21.3,61.8,17.4,63.7z"/>
<path class="st0" d="M1.2,63.6c1.6-2.2,3.5-3.5,6.3-3.6C6.7,63.3,5,64.9,1.2,63.6z"/>
</svg>
