<?xml version="1.0" encoding="utf-8"?>
<!-- Generator: Adobe Illustrator 26.0.2, SVG Export Plug-In . SVG Version: 6.00 Build 0)  -->
<svg version="1.1" id="Layer_1" xmlns="http://www.w3.org/2000/svg" xmlns:xlink="http://www.w3.org/1999/xlink" x="0px" y="0px"
	 viewBox="0 0 181 80" style="enable-background:new 0 0 181 80;" xml:space="preserve">
<style type="text/css">
	.st0{opacity:0.1;fill:#FFFFFF;enable-background:new    ;}
</style>
<path class="st0" d="M180.9,43c-1.1,1.2-2.2,2.4-3.5,3.5c-4.4,3.8-8,7.6-10,13.6c-2.4,6.5-7.6,11.6-14.2,13.8
	c-1-2.8,1.9-6.8-3.4-8.1c-2.4-0.6-4-1.1-6.1,0.8c-4.6,4.1-7.5,3.6-12.7,0.1c-2.8-1.9-6.5-5.8-9.4,0.7c-0.8,1.8-3.9,2.6-6.4,0.3
	c-5.2-4.6-6.6-4.2-7.8,2.6c-1.9-2.2-1.4-6.7-5.8-5.7c-0.1,0-0.5-0.7-0.4-0.7c3-2.2,0.4-5,0.6-7.5s-2.3-2.4-4.2-2.5
	c-1-0.1-2.5,0.5-2.5-1.5s1.4-1.6,2.4-1.5c1.9,0.1,3.2-0.4,3.7-2.8c-5,0.5-4.4-1.6-4.6-5.7c-0.2-5.6,3.8-5,5.7-5.2
	c4.4-0.3,9,0.8,12.2-3.6c0.3-0.4,0.8-0.6,1.3-0.6c8.7,0.8,15.2-5.4,23.1-7.5c6.6-1.7,11.3,1.1,16.4,3.3c5.3,2.3,10.1,5.4,16.3,3.3
	c2.4-0.8,4.7,0.9,6,3.2c1.2,2.1,2.3,4.3,3.4,6.5L180.9,43z"/>
<path class="st0" d="M15.1,1.1c0.5,4.4,1.6,8.4,6.2,10.8c2.1,1.1,3.5,3.1,3.8,5.5c0.2,4.8,3.7,8.1,7.1,7.9c5.2-0.4,4.9,4.7,8.3,6
	c3.5,1.3,7.3,2.9,9.7,6.3c0.8,1.2,3.4,1.9,1.1,3.9s-2.1-1-2.8-1.8c-1.9-2-4.3-2.4-6.2-0.9c-2,1.6-1.7,4.2,0.2,6
	c2.2,2,2.3,3.2-0.5,5.1c-2.9,2-3.4,7-8.5,6.6c-1.3-0.1-1.8,2.1-0.7,3.6c1.3,1.8-0.1,3.3-0.9,4.4c-1.2,1.6-3,0-3.9-0.7
	c-2.6-2.1-5.6-3.2-8.5-4.7c-1.8-0.9-2.9-1.8-2.1-3.7c0.7-1.5,2-1.7,3.7-1c4.3,1.6,8.8,0.5,13-0.5s5.7-6.4,2.3-9.9
	c-4.8-4.9-8.1-11.4-15.7-13.2c-4.3-1-6.9-5.4-10.1-8.3c-2-1.8-3.5-3.5-6.1-3.6C6.3,13.8,4,10.6,0.1,8.1v-1C3.7,1.6,8.7-0.4,15.1,1.1
	z"/>
<path class="st0" d="M133,79.9c-1.4-3.4,0.8-4.6,3.4-4.9s5.1,0,7.4-1.8c-0.9,2.9-3.1,4.7-4.8,6.7H133z"/>
<path class="st0" d="M57.6,35.9c6.5,1,12.7,3.3,18.3,6.8c4.7,2.8,8,8.8,12.3,13.1c1.4,1.4,3.1,2.4,3.8,4.4c0.3,0.9,1.1,1.7-0.2,2.3
	c-1.1,0.5-1.3-0.6-1.8-1.1c-1.9-2.1-2.4-6.2-7.1-4.6c-3,1.1-5.2,4.1-4.4,7.3c0.2,1.3,0.4,2.7,0.5,4c-3.6-3.1-8-4.4-9.5-9
	c-0.3-0.8-1.1-1.3-2-1.2c-5.2,0.3-5.3-2.2-3.8-6.2c0.5-1.4,1.1-3.9-0.7-5.1C59.2,44.3,57.8,40.6,57.6,35.9z"/>
<path class="st0" d="M97.7,75.1c-3,4.3-6.5,2.6-9.4,2.4c-1.3-0.1-2.6-1.3-3.9-1.5s-3.2-0.4-3-1.7c0.3-1.6,2.5-2,3.7-1.3
	C88.8,75,92.8,74.9,97.7,75.1z"/>
</svg>
