<?xml version="1.0" encoding="utf-8"?>
<!-- Generator: Adobe Illustrator 26.0.2, SVG Export Plug-In . SVG Version: 6.00 Build 0)  -->
<svg version="1.1" id="Layer_1" xmlns="http://www.w3.org/2000/svg" xmlns:xlink="http://www.w3.org/1999/xlink" x="0px" y="0px"
	 viewBox="0 0 25.4 23.9" style="enable-background:new 0 0 25.4 23.9;" xml:space="preserve">
<style type="text/css">
	.st0{opacity:0.1;fill:#FFFFFF;}
</style>
<path class="st0" d="M22.1,10.4c-0.9,0.5-1.6,0.5-2.4,0.5c-0.7,0-1.2,0.2-1.8,0.6c-1.3,0.8-2.8,1.2-4.3,0.5
	c-0.6-0.3-1.2-0.3-1.8-0.7s-1.5,0.1-1.7,0.9c-0.1,0.6-0.1,1.1,0.1,1.7c0.5,1.2,0.3,2.4,0.4,3.6c0,0.3-0.1,0.5-0.3,0.8
	C9.9,19,9.2,19.5,8.6,20c-0.3,0.2-0.6,0.3-0.9,0.2c-0.2,0-0.4-0.1-0.6,0c-0.9,0.5-0.9,0.4-1.4-0.3c-0.7-0.9-1.1-2-1.4-3.2
	c-0.5-2.2-0.8-4.4-1-6.6c0-0.4,0-0.8,0.2-1.2C4,8,5.2,7.6,6.3,8.1C7.2,8.5,7.9,9,8.7,9.4C8.8,9.5,9,9.6,9.1,9.7
	c0.3,1.2,1.3,0.8,2,0.8c0.6,0,1-0.7,1.2-1.4c0.1-0.5,0.2-0.9,0.6-1.2c0.5-0.4,0.4-1.6-0.1-1.9c-0.5-0.4-0.7-1.3-0.4-1.8
	c0.3-0.6,1.2-1,1.9-0.9c1.1,0.2,1.7,1,1.7,2.2c0,0.9,0.3,1.6,0.7,2.4c0.2,0.4,0.5,0.6,1,0.6c0.4,0,0.8,0,1.2,0
	c1.3-0.1,2.3,0.3,2.8,1.6C21.7,10.2,21.9,10.2,22.1,10.4z"/>
</svg>
