<?xml version="1.0" encoding="utf-8"?>
<!-- Generator: Adobe Illustrator 26.0.2, SVG Export Plug-In . SVG Version: 6.00 Build 0)  -->
<svg version="1.1" id="Layer_1" xmlns="http://www.w3.org/2000/svg" xmlns:xlink="http://www.w3.org/1999/xlink" x="0px" y="0px"
	 viewBox="0 0 15.4 23.9" style="enable-background:new 0 0 15.4 23.9;" xml:space="preserve">
<style type="text/css">
	.st0{opacity:0.1;fill:#FFFFFF;}
</style>
<path class="st0" d="M5.2,19.2c0.3-0.3,0.2-0.9,0.5-1.2c0.5-0.1,0.9,0.2,1.3,0.4c0.5,0.2,1,0.1,1.3-0.3s0.5-0.8,0.2-1.3
	C8,15.9,7.6,15,6.7,14.5c-0.6-0.3-0.6-1.2-1.4-1.3c0-0.3,0.1-0.4,0.3-0.4c0.3-0.1,0.7-0.1,0.8-0.5c0-0.3-0.4-0.4-0.5-0.6
	c-0.2-0.6-0.4-1.2-0.2-1.9c0-0.1,0.3-0.4,0.2-0.4C5.1,9,5.6,8.3,5.5,7.8c0-0.1-0.2-0.3-0.3-0.3c-1.1,0.1-1.9-0.6-2.8-1
	c-0.1,0-0.2-0.1-0.3-0.1C2.3,6,2.4,5.8,2.6,5.6c0.2-0.3,0.3-0.5,0-0.8C2,4.3,2.3,4.1,2.8,3.8c0.6-0.3,0.8-1,1.3-1.4
	C4.4,2.1,4.6,2,4.9,2.3c0.6,0.6,1.2,1.1,1.6,1.9c0.2,0.5,0.3,1.2,1.1,1.3c0.6,0.1,1.1,0.2,1.7,0.1C10,5.4,11,5.5,11.7,6
	c0.4,0.2,0.8,0.6,1.2,0.8c0.3,0.2,0.4,0.5,0.4,1c-0.1,1-0.9,1.4-1.3,2c-0.3,0.4-0.6,0.7-0.9,1.1c-0.6,0.9-0.7,1.7,0,2.6
	c0.2,0.2,0.3,0.3,0.5,0.5c0.5,0.7,0.5,0.8-0.2,1.4c0,0-0.1,0-0.1,0.1c-0.5,1.3-1.6,2.2-2.1,3.4c-0.2,0.6,0.4,0.9,0.4,1.3
	c0.1,0.2,0,0.3-0.2,0.3c-1-0.2-1.1,0.6-1.2,1.3c-0.8-0.2-1.2-0.9-1.9-1.1C5.9,20.6,6,20.4,6,20.1c0-0.5-0.3-0.7-0.8-0.7
	C5.1,19.4,5.1,19.4,5.2,19.2C5.2,19.3,5.2,19.2,5.2,19.2z"/>
</svg>
