<?xml version="1.0" encoding="utf-8"?>
<!-- Generator: Adobe Illustrator 26.0.2, SVG Export Plug-In . SVG Version: 6.00 Build 0)  -->
<svg version="1.1" id="Layer_1" xmlns="http://www.w3.org/2000/svg" xmlns:xlink="http://www.w3.org/1999/xlink" x="0px" y="0px"
	 viewBox="0 0 63 48" style="enable-background:new 0 0 63 48;" xml:space="preserve">
<style type="text/css">
	.st0{opacity:0.1;fill:#FFFFFF;}
</style>
<path class="st0" d="M44.7,46.8c-0.5-0.3-0.7-0.8-0.9-1.2c-0.3-0.4-0.5-0.6-1.1-0.4c-0.8,0.3-1.7,0.3-2.1-0.7
	c-0.2-0.5-0.7-0.6-1.1-0.7c-0.4-0.1-0.6-0.4-0.7-0.9c-0.1-0.6-0.1-1.2-0.2-1.8c-0.1-0.9-0.7-1.7-1.9-1.6c-1,0.1-1.8,0.3-2.5,1.1
	c-0.3,0.3-0.6,0.6-1,0.9c-0.7,0.5-1.4,0.3-1.7-0.5c-0.1-0.5-0.3-0.9-0.9-1C30,39.8,30,39.2,30,38.8c-0.1-0.6-0.3-1.1-0.8-1.4
	c-0.4-0.3-1.1-0.2-1.4,0.3c-0.4,0.8-1.1,0.9-1.8,0.9c-0.2,0-0.5,0-0.7-0.1c-0.8-0.3-1.4-0.1-2.1,0.4c-0.6,0.4-1.2,1.1-2,0.3
	c-0.2-0.2-0.4,0.1-0.5,0.2c-1.1,0.6-1.2,0.6-1.9-0.5c-0.2-0.3-0.3-0.6-0.6-0.7c-0.6-0.2-1.1-0.6-1.8,0c-0.4,0.4-1,0.3-1.5,0
	c-0.8-0.6-1.9-0.2-2.6-1c-0.2-0.2-0.4,0.1-0.6,0.3c-0.4,0.8-1.5,0.7-2,1.5c-0.1,0.2-0.4,0.1-0.6,0c-0.7-0.5-1.4-1-1.6-1.9
	c-0.1-0.5-0.4-1-0.3-1.6c0.6-0.1,1.3,0,1.9-0.3c0.3-0.2,0.5-0.3,0.4-0.7c-0.1-0.3,0-0.7-0.4-0.8H9c-2-0.1-1.9-1.8-2.4-3
	c-0.2-0.4,0.1-0.8,0.3-1.1c0.9-1.7,0.9-3.3,0-4.9c-0.3-0.6-0.5-1.2-0.4-1.9c0.3-1.6-0.6-3-0.9-4.5C5.5,18,5.3,17.8,5,17.5
	c-0.4-0.4-0.8-0.8-1.1-1.3c-0.5-0.7-0.9-1.4-0.8-2.3c0.1-0.4,0.2-0.9-0.3-1.2c-0.2-0.2-0.1-0.4,0-0.5c0.6-0.6,0.3-1.4,0.3-2.1
	c0-0.6-0.6-0.7-0.9-1.1c-0.3-0.3-1-0.4-0.7-1c0.3-0.5,0.8,0,1.2,0.1C4,8.3,5.1,8.9,6.1,9.7c0.5,0.4,0.9,0.4,1.4,0
	C7.7,9.5,8,9.3,8.3,9.1C9,8.8,9.4,8.7,9.8,8.7c0.4,0,0.7,0.1,1.1,0.1c1.7,0.1,1.7,0.1,2.2,1.9c-1.1,0.2-1,1.2-1.3,1.9
	c0,0.1,0.1,0.3,0.2,0.4c0.1,0.1,0.2,0.2,0.3,0.4c0.5,0.6,1,1.2,1.5,1.8c0.5,0.7,0.1,1.5,0.4,2.3c0.9,0.1,1.8-0.4,2.7-0.6
	c0.4-0.1,0.7-0.2,1,0c1,0.7,2.2,0.8,3.3,1c1.3,0.2,2.6,0.4,4,0.6c0.8,0.1,1.4,0.4,2,0.8c1.1,0.9,2.2,0.9,3.6,0.3
	c1.3-0.6,2.6-1.1,3.8-1.9c0.8-0.5,1.5-0.9,2.4-1c0.2,0,0.5-0.1,0.5-0.4c0-0.4-0.3-0.5-0.6-0.5c-0.9-0.1-1.6-0.5-2.3-1.1
	c-0.3-0.3-0.4-0.5-0.3-0.9c0.1-1.9,1.2-3.3,2.4-4.5c1-1,2.4-1.5,3.8-2.1c2.9-1.2,5.8-1.9,8.8-2.6C50.2,4.3,51,4,51.8,3.3
	s1.6-1.2,2.4-1.9C54.7,1,55.9,1,56.3,1.5c0.9,1.2,2.1,2.1,3.1,3.2c0.4,0.4,0.8,0.8,0.8,1.4c0,0.1,0.1,0.2,0.1,0.4
	c0.4,1.6,0.4,1.6-0.2,3.2c-0.1,0.3-0.4,0.6,0.1,0.9c0.3,0.1,0,0.5,0,0.8c-0.1,0.7-0.3,1.4,0.2,2.1c0.2,0.3,0.2,0.8,0.1,1.2
	c-0.1,0.5,0.6,0.7,0.3,1.2c-0.2,0.4-0.3,0.7-0.5,1.1s-0.1,0.7,0.2,1c0.4,0.3,0.6,0.7,0.5,1.2c0,0.3,0.6,1.1-0.5,0.8
	c-0.2,0-0.3,0.4-0.3,0.6c0,1.2-0.7,2.2-1,3.4c-0.2,0.8-0.7,1.2-1.5,1.4c-0.4,0.1-0.9,0.2-1.3,0.4c-0.4,0.2-0.7,0.5-0.4,1
	c0.2,0.2,0.1,0.6,0.2,0.8c0.2,0.4,0.5,0.8-0.1,1.1C56,28.7,56,29,56,29.2c0.1,0.7-0.3,1.1-0.9,1.3c-0.7,0.2-1,0.6-0.9,1.4
	c0.1,0.6-0.3,0.8-0.8,0.8c-0.6,0-1.2,0.1-1.8-0.2c-0.5-0.3-0.8-0.1-1.3,0.1c-0.6,0.3-1.2,0.6-1.8,1c-0.3,0.2-0.6,0.4-1,0.3
	c-1.2-0.1-1.6,0.9-2.4,1.5c-0.1,0-0.1,0.2-0.1,0.2c0.7,0.6,0.1,1.9,1.1,2.4c1.5,0.7,1.3,2.2,1.2,3.5c0,0.6-0.4,1-1,1.1
	c-0.5,0.1-1,0.3-1.5,0.6c-1,0.6-1.1,0.8-0.5,1.8C44.7,45.6,44.7,46.2,44.7,46.8C44.9,46.6,44.8,46.7,44.7,46.8z"/>
</svg>
