<?xml version="1.0" encoding="utf-8"?>
<!-- Generator: Adobe Illustrator 26.0.2, SVG Export Plug-In . SVG Version: 6.00 Build 0)  -->
<svg version="1.1" id="Layer_1" xmlns="http://www.w3.org/2000/svg" xmlns:xlink="http://www.w3.org/1999/xlink" x="0px" y="0px"
	 viewBox="0 0 27.4 23.9" style="enable-background:new 0 0 27.4 23.9;" xml:space="preserve">
<style type="text/css">
	.st0{opacity:0.1;fill:#FFFFFF;}
</style>
<path class="st0" d="M16.4,21.2c-0.7-0.3-1.4-0.6-2.2-0.7c-1.5-0.2-3-0.7-4.3-1.6c-0.9-0.6-1.8-1.1-2.7-1.7c-0.7-0.4-1.2-1-1.7-1.5
	c-0.6-0.6-1-1.4-0.8-2.3c0.1-0.7-0.1-1.3-0.7-1.8c-0.5-0.5-1-1-1.3-1.7C2.2,8.8,2.5,8.1,3.5,7.6c0.7-0.4,1.1-0.9,1.2-1.7
	C4.8,5.2,5.2,4.8,6,4.5c1-0.4,2.2-0.7,3.2-1.4C10,2.5,11,2.6,11.9,2.9c0.7,0.3,1.4,0.4,2.1,0.3c2.1-0.1,3.8,0.8,5.4,2.1
	C19.8,5.7,20,6.2,20,6.7c0,1.4,0.6,2.7,1.6,3.7c0.1,0.1,0.3,0.3,0.4,0.5c0.4,0.7,1.1,1.1,1.8,1.4c1.2,0.4,1.3,1,0.9,2.2
	c-0.2,0.5-0.4,0.9-0.8,1.2c-0.7,0.8-0.8,1.7-0.8,2.7c0.1,1-0.2,1.5-1.2,1.9C21,20.7,20,20.9,19.1,21c-0.3,0-0.7,0-0.9,0.2
	C17.6,21.2,17,21.2,16.4,21.2z"/>
</svg>
